<svg width="108" height="108" viewBox="0 0 108 108" fill="none" xmlns="http://www.w3.org/2000/svg">
<path d="M107.942 58.6377C107.798 56.5442 107.942 54.4356 107.942 52.327C107.942 49.5231 108.541 45.8879 105.881 44.1799C101.902 41.6254 97.1343 45.4873 94.8605 39.9778C93.6857 37.1361 90.9648 33.3573 92.276 30.304C93.2916 27.9309 96.6492 27.2809 97.5057 24.6962C98.6502 21.3481 95.5199 19.1715 93.3068 16.9647C91.5408 15.2038 89.8885 12.876 87.8573 11.4476C87.2481 10.9798 86.5441 10.6496 85.7942 10.48C85.0443 10.3103 84.2664 10.3053 83.5144 10.4651C80.1947 11.372 78.747 16.2996 75.3061 16.2543C73.1384 16.2543 67.5525 13.0952 66.5899 12.7777C62.4289 11.4249 65.6956 5.92294 64.3161 3.05102C62.8003 -0.0702953 59.4275 -0.244123 56.3352 0.156433C54.0283 0.416103 51.6995 0.416103 49.3926 0.156433C44.557 -0.304584 42.5031 2.11387 43.3292 6.4822C44.7996 13.9567 39.2364 13.7829 34.6813 15.4078C30.3384 16.9193 29.3758 14.773 27.6174 12.8231C24.4796 9.32388 21.7359 9.36923 18.7194 12.8231C17.3475 14.4026 15.7332 15.7781 14.2476 17.2594C12.2088 19.2925 9.32111 21.333 10.1472 24.4392C10.837 27.0239 13.755 27.5757 14.907 29.7296C16.5062 32.7527 14.6114 36.6524 13.2851 39.3958C10.458 45.2682 6.24393 41.2248 1.91618 44.2705C-0.516761 45.9635 0.0744145 49.6138 0.0744145 52.2363C0.0744145 54.1257 0.225999 56.0152 0.0744145 57.9046C-0.395499 62.6659 1.31741 65.3867 6.4334 64.4571C12.7848 63.3008 13.6792 69.4603 15.6877 74.0856C17.2035 77.6301 14.998 78.1213 12.7848 80.1921C9.3969 83.3664 8.88909 85.936 12.6787 88.959C14.0937 90.2161 15.4373 91.5508 16.7033 92.9571C22.9031 99.1543 22.9334 99.1846 29.3834 93.3803C32.4151 90.6293 38.4785 93.0855 41.154 95.368C44.7086 98.391 42.2681 102.926 45.0952 106.175C47.1264 108.541 51.1586 107.929 53.9326 107.929C58.9652 107.929 63.9523 107.453 64.4602 101.459C64.7709 97.8469 65.3697 95.6703 68.8182 94.1663C73.1687 92.2769 76.2838 90.2741 79.4292 94.4308C82.2335 98.2096 86.2505 98.6631 89.4641 95.1866C91.9956 92.3978 100.31 86.7295 97.2252 82.2629C95.9443 80.4113 93.3447 79.6556 92.4503 77.5923C91.321 75 93.5114 72.3019 94.4209 69.6039C94.6962 68.4702 95.0559 67.3587 95.4972 66.2785C96.8539 63.6635 99.7567 64.4949 102.129 64.6234C106.578 64.8576 108.23 62.8775 107.942 58.6377ZM54.0766 83.4873C38.2284 83.5629 24.7828 70.284 24.5175 54.3071C24.2674 38.0581 37.6296 24.8322 54.1599 24.8851C61.914 24.9011 69.3452 27.9828 74.8239 33.4544C80.3026 38.926 83.3815 46.3409 83.3855 54.0728C83.3855 69.9062 69.9248 83.4042 54.0766 83.4873Z" fill="#BBBBBB"/>
</svg>
