<svg width="263" height="281" viewBox="0 0 263 281" fill="none" xmlns="http://www.w3.org/2000/svg">
<path d="M238.774 43.7112C238.875 30.0731 233.067 23.9031 220.074 23.7807C206.37 23.6798 192.674 23.579 178.97 23.4781C152.958 23.2866 126.955 23.0238 100.942 22.9037C89.8969 22.8671 84.1167 28.8624 83.7299 40.5155C83.4828 47.9539 83.6871 55.4134 83.4819 62.8431C83.4008 65.9061 85.1236 66.9996 87.8995 67.0378C90.2573 67.0552 92.6182 67.0488 94.982 67.0185C99.038 66.9323 99.3597 64.1211 99.3136 60.164L99.1547 45.4076C99.1111 41.1021 100.87 39.561 104.791 39.6166C142.175 40.13 179.561 40.4052 216.949 40.4422C222.3 40.4816 223.409 42.1422 223.301 47.6344C223.036 60.9408 223.105 74.2497 223.099 87.5579C223.081 97.9812 222.562 108.32 221.942 118.712C221.808 119.885 221.867 121.073 222.117 122.224C222.703 124.363 224.52 125.109 226.357 125.524C229.754 126.29 239.232 133.72 238.951 125.331C238.511 112.395 238.372 99.5407 238.467 86.5903C238.578 72.2944 238.68 58.0013 238.774 43.7112Z" fill="url(#paint0_linear)"/>
<path d="M247.827 200.172C247.686 197.697 247.863 195.206 247.882 192.714C247.906 189.401 248.598 185.11 245.678 183.069C241.311 180.018 236.018 184.544 233.558 178.014C232.286 174.646 229.317 170.159 230.79 166.561C231.932 163.765 235.641 163.024 236.609 159.977C237.9 156.029 234.466 153.432 232.044 150.806C230.111 148.71 228.308 145.946 226.08 144.242C225.412 143.684 224.638 143.288 223.812 143.081C222.987 142.875 222.128 142.863 221.297 143.045C217.627 144.09 215.987 149.902 212.192 149.82C209.801 149.802 203.666 146.024 202.607 145.641C198.028 144.008 201.68 137.533 200.183 134.128C198.538 130.427 194.819 130.194 191.404 130.642C188.857 130.93 186.287 130.912 183.745 130.586C178.414 130.002 176.127 132.843 177.001 138.012C178.558 146.857 172.422 146.607 167.383 148.49C162.579 150.241 161.536 147.697 159.613 145.378C156.182 141.217 153.154 141.249 149.797 145.306C148.269 147.161 146.477 148.774 144.825 150.512C142.558 152.898 139.355 155.286 140.239 158.964C140.977 162.024 144.192 162.699 145.444 165.254C147.182 168.84 145.057 173.433 143.57 176.664C140.401 183.581 135.787 178.768 130.986 182.332C128.287 184.313 128.908 188.632 128.885 191.731C128.869 193.964 129.019 196.198 128.836 198.429C128.276 204.052 130.142 207.282 135.794 206.225C142.811 204.91 143.744 212.196 145.919 217.678C147.561 221.879 145.123 222.442 142.664 224.871C138.899 228.595 138.316 231.627 142.47 235.23C144.02 236.727 145.491 238.316 146.875 239.988C153.661 247.362 153.694 247.398 160.86 240.591C164.228 237.365 170.896 240.316 173.828 243.035C177.723 246.637 174.991 251.976 178.082 255.839C180.302 258.651 184.755 257.96 187.816 257.983C193.367 258.024 198.873 257.502 199.486 250.423C199.86 246.157 200.539 243.589 204.357 241.84C209.173 239.643 212.627 237.301 216.06 242.239C219.121 246.727 223.549 247.296 227.124 243.213C229.941 239.938 239.163 233.307 235.798 228.004C234.401 225.805 231.54 224.891 230.571 222.446C229.348 219.373 231.788 216.202 232.815 213.021C233.128 211.684 233.535 210.373 234.031 209.1C235.55 206.021 238.746 207.027 241.362 207.198C246.268 207.511 248.108 205.185 247.827 200.172ZM188.187 229.1C170.703 229.061 155.986 213.26 155.832 194.377C155.697 175.172 170.553 159.651 188.789 159.848C197.343 159.93 205.514 163.632 211.51 170.142C217.507 176.653 220.839 185.441 220.776 194.578C220.638 213.289 205.671 229.131 188.187 229.1Z" fill="url(#paint1_linear)"/>
<path d="M71.2415 142.346C71.2479 134.656 67.6863 131.182 60.3707 131.065C48.9834 130.88 37.5954 130.797 26.2066 130.814C18.1209 130.808 14.8519 134.16 14.6873 142.885L14.2226 196.919C14.1778 203.01 14.133 209.092 14.1551 215.184C14.1785 223.357 17.57 227.231 24.9855 227.402C36.6007 227.672 48.2201 227.758 59.8436 227.659C66.8846 227.594 70.6006 223.736 70.7067 216.127C71.016 191.537 71.1942 166.944 71.2415 142.346ZM42.3056 223.591C39.4795 223.57 37.9782 221.915 38.159 218.933C38.1779 218.369 38.3029 217.814 38.5264 217.302C38.75 216.79 39.0676 216.331 39.4603 215.952C39.8531 215.573 40.3131 215.283 40.8129 215.097C41.3127 214.912 41.8421 214.836 42.3698 214.874C44.8778 214.946 46.5874 216.691 46.5133 219.942C46.2521 222.485 44.722 223.608 42.3056 223.591ZM54.8031 211.544C46.443 211.313 38.0821 211.207 29.7695 211.36C26.4243 211.425 25.4031 210.435 25.5135 206.8C25.7368 199.183 25.7511 191.565 25.7737 183.946L25.9338 162.198C25.9684 157.491 26.0031 152.785 25.8956 148.077C25.8165 144.057 26.6059 142.455 30.7601 142.673C39.1186 143.11 47.4807 143.046 55.7937 142.857C58.8043 142.799 59.751 143.682 59.7016 146.995C59.4201 167.062 59.2385 187.184 59.2582 207.218C59.3208 211.211 57.8374 211.674 54.8027 211.589L54.8031 211.544Z" fill="url(#paint2_linear)"/>
<path d="M173.373 193.347C173.071 202.634 179.637 210.202 188.098 210.318C192.063 210.314 195.872 208.659 198.716 205.705C201.561 202.751 203.216 198.73 203.332 194.497C203.417 192.405 203.107 190.316 202.421 188.356C201.735 186.395 200.686 184.602 199.338 183.084C197.989 181.566 196.368 180.353 194.571 179.518C192.774 178.684 190.838 178.244 188.878 178.224C180.251 177.964 173.665 184.364 173.373 193.347Z" fill="url(#paint3_linear)"/>
<path d="M124.081 77.5061L73.6791 77.1351C69.2055 77.1657 64.9229 79.0844 61.7652 82.4727C58.6075 85.8611 56.8308 90.4442 56.8225 95.2229L56.6201 122.722C59.753 123.184 62.909 123.446 66.0714 123.506L66.1881 107.653C66.1964 102.875 67.9731 98.2916 71.1308 94.9032C74.2885 91.5149 78.5711 89.5962 83.0447 89.5656L114.533 89.7974C119.006 89.8939 123.26 91.8754 126.367 95.3098C129.475 98.7443 131.184 103.353 131.122 108.131L130.79 153.234C132.935 150.766 135.208 148.427 137.597 146.228C138.179 145.563 138.769 144.906 139.351 144.241C139.428 144.144 139.525 144.07 139.635 144.024C139.745 143.978 139.863 143.962 139.98 143.977L140.317 143.658L140.669 95.8401C140.731 91.0618 139.022 86.453 135.915 83.0186C132.807 79.5841 128.553 77.6026 124.081 77.5061Z" fill="url(#paint4_linear)"/>
<path d="M115.959 178.742L84.1281 178.507C82.6548 178.501 81.2384 179.118 80.1885 180.223C79.1385 181.328 78.5401 182.832 78.5242 184.406L78.4446 195.212C78.4374 196.786 79.0135 198.299 80.0471 199.419C81.0807 200.54 82.4878 201.177 83.9611 201.193L115.792 201.427C117.266 201.433 118.682 200.816 119.732 199.711C120.782 198.606 121.38 197.102 121.396 195.529L121.476 184.722C121.483 183.148 120.907 181.636 119.873 180.515C118.84 179.395 117.433 178.757 115.959 178.742ZM98.6577 194.825C97.6655 194.818 96.6978 194.497 95.8772 193.902C95.0565 193.307 94.4197 192.465 94.0472 191.483C93.6747 190.501 93.5833 189.423 93.7845 188.385C93.9857 187.347 94.4705 186.396 95.1777 185.651C95.8848 184.907 96.7824 184.403 97.7571 184.204C98.7318 184.004 99.7397 184.118 100.653 184.53C101.567 184.942 102.346 185.635 102.89 186.52C103.435 187.405 103.722 188.444 103.714 189.504C103.703 190.925 103.165 192.284 102.217 193.282C101.268 194.28 99.9882 194.835 98.6577 194.825Z" fill="url(#paint5_linear)"/>
<defs>
<linearGradient id="paint0_linear" x1="161.741" y1="23.3195" x2="160.965" y2="128.736" gradientUnits="userSpaceOnUse">
<stop stop-color="#FFC67F"/>
<stop offset="1" stop-color="#FED199"/>
</linearGradient>
<linearGradient id="paint1_linear" x1="188.829" y1="130.439" x2="187.889" y2="258.068" gradientUnits="userSpaceOnUse">
<stop stop-color="#FFC67F"/>
<stop offset="1" stop-color="#FED199"/>
</linearGradient>
<linearGradient id="paint2_linear" x1="43.0687" y1="130.862" x2="42.3561" y2="227.668" gradientUnits="userSpaceOnUse">
<stop stop-color="#FFC67F"/>
<stop offset="1" stop-color="#FED199"/>
</linearGradient>
<linearGradient id="paint3_linear" x1="188.47" y1="178.217" x2="188.234" y2="210.319" gradientUnits="userSpaceOnUse">
<stop stop-color="#FFC67F"/>
<stop offset="1" stop-color="#FED199"/>
</linearGradient>
<linearGradient id="paint4_linear" x1="98.8799" y1="77.3206" x2="98.3229" y2="152.995" gradientUnits="userSpaceOnUse">
<stop stop-color="#FFC67F"/>
<stop offset="1" stop-color="#FED199"/>
</linearGradient>
<linearGradient id="paint5_linear" x1="100.044" y1="178.624" x2="99.8768" y2="201.31" gradientUnits="userSpaceOnUse">
<stop stop-color="#FFC67F"/>
<stop offset="1" stop-color="#FED199"/>
</linearGradient>
</defs>
</svg>
