<svg width="291" height="269" viewBox="0 0 291 269" fill="none" xmlns="http://www.w3.org/2000/svg">
<path d="M173.693 229.132C173.926 237.973 177.53 244.662 184.564 248.665C188.691 251.054 193.516 252.308 198.166 253.503C201.712 254.459 203.456 256.012 203.572 259.775C203.63 260.79 203.572 261.865 203.572 262.881C203.514 267.122 201.77 268.973 197.643 268.973C185.319 269.033 172.996 268.973 160.672 268.973C138.408 268.973 116.202 268.973 93.9385 268.973C88.9974 268.973 87.3698 267.361 87.3698 262.343C87.3698 261.328 87.3116 260.253 87.3698 259.237C87.5441 256.012 89.2881 254.1 92.4271 253.682C98.2401 252.906 103.646 251.173 108.355 247.41C114.052 242.871 117.074 236.957 117.249 229.132C116.028 229.132 114.923 229.132 113.819 229.132C83.8238 229.132 53.7705 229.132 23.7753 229.132C9.06832 229.132 0 219.754 0 204.642C0 144.313 0 83.9235 0 23.5942C0.0581302 9.79606 9.59149 0 22.9614 0C104.518 0 186.075 0 267.69 0C281.699 0 291 9.61686 291 24.072C291 84.2222 291 144.372 291 204.463C291 219.694 281.874 229.072 266.992 229.072C237.288 229.072 207.583 229.072 177.82 229.072C176.483 229.132 175.205 229.132 173.693 229.132ZM145.558 19.7116C105.332 19.7116 65.1059 19.7116 24.8797 19.7116C20.6944 19.7116 19.2411 21.2049 19.2411 25.5056C19.2411 74.7248 19.2411 123.944 19.2411 173.223C19.2411 178.3 20.52 179.614 25.5773 179.614C105.448 179.614 185.261 179.614 265.132 179.614C270.771 179.614 271.875 178.479 271.875 172.745C271.875 124.063 271.875 75.3221 271.875 26.6405C271.875 20.9659 270.713 19.831 265.074 19.831C225.197 19.7116 185.377 19.7116 145.558 19.7116ZM156.428 204.403C156.487 198.43 151.487 193.233 145.674 193.114C139.919 192.994 134.804 198.071 134.63 204.104C134.455 210.137 139.629 215.573 145.558 215.573C151.313 215.513 156.37 210.376 156.428 204.403ZM74.2904 39.901C69.5238 39.901 68.0124 41.454 67.9543 46.4118C67.9543 55.3119 67.9543 64.2717 67.9543 73.1718C67.9543 77.8906 69.5238 79.4436 74.1742 79.4436C121.783 79.4436 169.333 79.4436 216.942 79.4436C221.302 79.4436 222.929 77.7114 222.929 73.2315C222.929 64.5106 222.929 55.7897 222.929 47.0689C222.929 41.2151 221.651 39.8413 216.07 39.8413C192.644 39.8413 169.217 39.8413 145.733 39.8413C122.015 39.901 98.182 39.901 74.2904 39.901ZM129.456 159.305C134.106 159.305 135.676 157.693 135.676 153.034C135.676 134.039 135.676 115.044 135.676 96.0491C135.676 91.5692 134.048 89.7773 129.689 89.7773C111.087 89.7773 92.5433 89.7773 73.9417 89.7773C69.6982 89.7773 68.0124 91.4498 68.0124 95.7505C68.0124 114.865 68.0124 133.919 68.0124 153.034C68.0124 157.693 69.64 159.305 74.2904 159.305C83.475 159.305 92.6596 159.305 101.844 159.305C111.029 159.305 120.271 159.305 129.456 159.305ZM219.151 99.4539C222.813 99.4539 223.046 99.0955 223.046 93.9585C223.046 90.1954 222.639 89.7773 219.093 89.7773C195.957 89.7773 172.821 89.7773 149.685 89.7773C145.791 89.7773 145.674 90.0162 145.674 95.1532C145.674 99.0955 146.023 99.5136 149.802 99.5136C161.311 99.5136 172.821 99.5136 184.331 99.5136C195.899 99.4539 207.525 99.4539 219.151 99.4539ZM184.68 109.728C172.937 109.728 161.253 109.728 149.511 109.728C145.849 109.728 145.674 110.026 145.674 114.924C145.674 119.046 146.023 119.404 149.627 119.404C172.763 119.404 195.899 119.404 219.035 119.404C222.639 119.404 223.046 118.986 223.046 115.283C223.046 109.967 222.871 109.728 218.919 109.728C207.467 109.668 196.073 109.728 184.68 109.728ZM184.68 129.619C173.054 129.619 161.428 129.619 149.802 129.619C145.791 129.619 145.616 129.857 145.616 134.517C145.616 139.056 145.849 139.355 149.86 139.355C172.879 139.355 195.957 139.355 218.977 139.355C222.755 139.355 223.046 139.056 222.988 134.337C222.988 129.977 222.755 129.678 218.919 129.678C207.525 129.678 196.131 129.678 184.68 129.619C184.68 129.678 184.68 129.678 184.68 129.619ZM184.04 159.305C195.55 159.305 207.06 159.305 218.57 159.305C222.813 159.305 223.046 159.066 223.046 154.348C223.046 149.868 222.813 149.569 218.744 149.569C205.316 149.569 191.888 149.569 178.402 149.569C168.81 149.569 159.219 149.569 149.627 149.569C146.023 149.569 145.674 149.987 145.674 153.75C145.674 154.288 145.733 154.766 145.674 155.303C145.384 158.23 146.604 159.365 149.511 159.365C160.963 159.246 172.531 159.305 184.04 159.305Z" fill="#B1C527"/>
</svg>
