<svg width="446" height="349" viewBox="0 0 446 349" fill="none" xmlns="http://www.w3.org/2000/svg">
<path opacity="0.96" d="M220.114 293.256H123.165V119.365H224.713V152.274C231.368 141.983 239.365 132.644 248.49 124.51C248.49 112.191 248.49 99.8569 248.49 87.5066C248.49 77.9574 241.881 71.3446 232.434 71.3326C193.481 71.3326 154.531 71.3326 115.586 71.3326C105.773 71.3326 99.2109 77.8739 99.2109 87.7095C99.2109 169.331 99.2109 250.953 99.2109 332.575C99.2109 342.447 105.761 349 115.503 349C154.291 349 193.079 349 231.866 349C241.952 349 248.49 342.471 248.502 332.36C248.502 331.087 248.502 329.818 248.502 328.553C237.154 318.47 227.558 306.539 220.114 293.256ZM192.082 96.3397C192.633 95.6677 193.37 95.1759 194.198 94.9261C195.026 94.6764 195.909 94.68 196.735 94.9365C197.562 95.1929 198.294 95.6908 198.84 96.3672C199.386 97.0435 199.722 97.8681 199.804 98.7368C199.887 99.6056 199.712 100.479 199.303 101.248C198.894 102.017 198.269 102.646 197.506 103.056C196.743 103.466 195.876 103.639 195.016 103.553C194.156 103.466 193.341 103.124 192.673 102.571C192.228 102.201 191.859 101.747 191.588 101.234C191.318 100.72 191.15 100.158 191.095 99.5791C191.04 99.0001 191.099 98.4159 191.268 97.86C191.438 97.3041 191.714 96.7874 192.082 96.3397ZM146.35 98.4285C146.353 97.5777 146.686 96.7621 147.279 96.1572C147.872 95.5522 148.676 95.2063 149.518 95.1938H178.473C179.322 95.1969 180.135 95.5387 180.735 96.1447C181.336 96.7506 181.674 97.5716 181.677 98.4285V98.906C181.674 99.763 181.336 100.584 180.735 101.19C180.135 101.796 179.322 102.138 178.473 102.141H149.518C148.67 102.138 147.856 101.796 147.256 101.19C146.656 100.584 146.317 99.763 146.314 98.906L146.35 98.4285ZM173.992 333.136C171.658 333.174 169.365 332.509 167.406 331.226C165.447 329.943 163.912 328.1 162.995 325.932C162.078 323.764 161.822 321.37 162.258 319.054C162.695 316.738 163.805 314.606 165.447 312.93C167.089 311.254 169.188 310.11 171.476 309.643C173.765 309.176 176.139 309.408 178.297 310.31C180.454 311.211 182.297 312.741 183.59 314.704C184.882 316.667 185.567 318.974 185.555 321.331C185.457 324.408 184.211 327.334 182.067 329.523C179.923 331.712 177.039 333.003 173.992 333.136ZM442.732 245.892C437.281 242.801 431.831 239.697 426.357 236.642C426.056 236.526 425.807 236.303 425.656 236.015C425.506 235.727 425.465 235.394 425.541 235.078C426.358 228.099 426.358 221.048 425.541 214.07C425.458 213.672 425.519 213.257 425.712 212.901C425.905 212.544 426.217 212.269 426.593 212.124C431.725 209.223 436.809 206.156 441.963 203.363C443.18 202.747 444.202 201.8 444.914 200.63C445.626 199.459 446.001 198.111 445.995 196.738L433.368 166.097C432.514 165.527 431.63 165.005 430.72 164.533C429.332 163.962 427.785 163.92 426.369 164.414C420.623 166.049 414.865 167.648 409.131 169.308C408.716 169.489 408.251 169.517 407.819 169.385C407.386 169.254 407.013 168.973 406.766 168.591C402.446 163.157 397.51 158.254 392.058 153.981C391.795 153.826 391.596 153.579 391.498 153.288C391.4 152.996 391.41 152.678 391.526 152.394C393.217 146.425 394.836 140.385 396.515 134.393C396.99 132.789 396.856 131.064 396.139 129.554C395.422 128.045 394.174 126.859 392.637 126.229L369.275 116.488C368.329 116.095 367.371 115.713 366.425 115.295C364.967 114.695 363.346 114.636 361.848 115.127C360.351 115.619 359.074 116.63 358.244 117.981C355.182 123.447 352.131 128.914 349.164 134.417C348.632 135.408 348.052 135.444 347.106 135.408C341.975 135.217 336.832 135.062 331.736 135.002C330.006 135.037 328.279 135.192 326.57 135.468C326.253 135.546 325.919 135.508 325.627 135.362C325.335 135.215 325.104 134.97 324.974 134.668C322.782 130.689 320.579 126.742 318.364 122.827C317.43 121.168 316.461 119.52 315.539 117.849C314.706 116.643 313.506 115.745 312.12 115.292C310.734 114.839 309.24 114.857 307.865 115.343C299.03 119.218 290.131 122.954 281.169 126.551C279.772 127.2 278.639 128.315 277.96 129.709C277.282 131.102 277.1 132.689 277.445 134.202C278.828 138.858 280.081 143.561 281.382 148.24C281.784 149.684 282.221 151.116 282.505 152.585C282.543 152.848 282.522 153.116 282.444 153.37C282.366 153.624 282.234 153.857 282.056 154.053C276.502 158.564 271.462 163.685 267.028 169.32C266.855 169.494 266.644 169.624 266.412 169.701C266.18 169.778 265.934 169.798 265.692 169.761C259.655 168.114 253.629 166.427 247.615 164.7C246.038 164.253 244.353 164.41 242.883 165.138C241.413 165.867 240.26 167.118 239.646 168.651C237.281 174.333 234.917 179.991 232.623 185.661C231.252 188.995 229.908 192.341 228.591 195.699C227.598 198.242 229.1 202.002 231.642 203.446C237.057 206.514 242.46 209.605 247.91 212.637C248.234 212.789 248.496 213.049 248.653 213.372C248.81 213.696 248.853 214.064 248.773 214.416C248.584 219.644 248.419 224.86 248.36 230.088C248.392 231.876 248.55 233.659 248.833 235.424C248.911 235.764 248.865 236.121 248.705 236.429C248.544 236.738 248.279 236.979 247.958 237.107C242.673 240.091 237.447 243.171 232.138 246.107C231.026 246.702 230.09 247.585 229.428 248.665C228.765 249.745 228.399 250.984 228.367 252.255C228.331 252.49 228.275 252.721 228.201 252.947L240.556 282.896C240.911 283.146 241.289 283.385 241.632 283.648C242.548 284.396 243.637 284.898 244.797 285.106C245.956 285.315 247.15 285.224 248.265 284.841C253.952 283.158 259.686 281.606 265.385 279.947C265.775 279.776 266.212 279.752 266.618 279.879C267.023 280.006 267.371 280.276 267.596 280.64C271.86 286.091 276.754 291.008 282.174 295.286C282.487 295.473 282.721 295.769 282.834 296.118C282.948 296.467 282.931 296.846 282.789 297.184C281.098 303.152 279.478 309.192 277.811 315.196C277.42 316.775 277.596 318.442 278.308 319.902C279.02 321.363 280.223 322.52 281.701 323.169C288.121 325.843 294.517 328.589 300.925 331.298C303.432 332.349 305.95 333.387 308.48 334.378C309.91 334.804 311.44 334.739 312.83 334.195C314.221 333.651 315.393 332.658 316.165 331.37C319.263 325.783 322.337 320.197 325.47 314.659C325.612 314.476 325.791 314.326 325.995 314.219C326.199 314.112 326.423 314.05 326.652 314.038C331.169 314.169 335.685 314.468 340.214 314.527C342.642 314.518 345.067 314.347 347.473 314.014C347.904 313.911 348.357 313.967 348.75 314.173C349.143 314.379 349.449 314.721 349.613 315.136C352.439 320.257 355.371 325.318 358.149 330.463C358.703 331.654 359.566 332.671 360.646 333.407C361.727 334.142 362.984 334.569 364.285 334.64C364.443 334.678 364.594 334.738 364.735 334.819L395.085 322.071C395.357 321.618 395.617 321.14 395.924 320.71C396.509 319.926 396.899 319.012 397.064 318.045C397.228 317.077 397.162 316.084 396.87 315.148C395.569 310.469 394.245 305.79 392.945 301.099C392.555 299.702 392.212 298.282 391.762 296.885C391.654 296.596 391.649 296.278 391.749 295.986C391.848 295.694 392.045 295.447 392.306 295.286C397.846 290.887 402.84 285.829 407.18 280.222C407.349 279.947 407.613 279.745 407.921 279.655C408.228 279.565 408.558 279.592 408.847 279.732C414.865 281.463 420.895 283.146 426.924 284.829C428.413 285.211 429.987 285.056 431.375 284.391C432.763 283.727 433.877 282.594 434.527 281.189C436.726 275.913 438.854 270.601 441.006 265.301C442.495 261.66 443.938 257.996 445.463 254.367C446.099 252.86 446.173 251.171 445.67 249.613C445.168 248.055 444.125 246.733 442.732 245.892ZM336.087 288.864C300.535 287.933 272.964 259.022 273.909 223.702C274.867 188.143 303.467 160.224 337.979 161.059C373.59 161.919 401.292 190.662 400.488 225.923C399.672 261.828 371.048 289.807 336.087 288.864ZM337.376 194.016C329.46 194.319 321.966 197.696 316.456 203.441C310.946 209.187 307.846 216.858 307.802 224.856C307.757 232.853 310.773 240.559 316.219 246.366C321.665 252.173 329.121 255.634 337.033 256.026C353.42 256.229 367.773 242.001 367.927 225.409C367.91 217.189 364.703 209.302 358.994 203.44C353.285 197.578 345.529 194.208 337.388 194.052L337.376 194.016ZM216.78 13.0108C216.485 5.68178 209.06 0 201.28 0C138.397 0 75.5528 0 12.7484 0C3.63277 0 -2.94088 6.7322 -3 15.983C-3 27.2153 -3 38.4475 -3 49.6798C-3 133.45 -3 217.217 -3 300.979C-3 310.851 3.4909 317.249 13.3869 317.285C25.1706 317.285 36.9543 317.285 48.738 317.285H83.1433V253.639H20.8472V47.8893H193.264L193.69 55.4093H216.91C216.91 41.0258 217.277 27.0123 216.756 13.0347L216.78 13.0108ZM142.424 24.5295C142.421 25.3865 142.083 26.2075 141.483 26.8134C140.882 27.4194 140.069 27.7612 139.22 27.7643H75.8484C75.0037 27.7549 74.1966 27.4104 73.6015 26.8051C73.0064 26.1998 72.6711 25.3824 72.668 24.5295V24.0521C72.6711 23.1951 73.0097 22.3742 73.6099 21.7682C74.2101 21.1623 75.0233 20.8204 75.8721 20.8173H139.197C139.619 20.8157 140.038 20.8981 140.428 21.0599C140.819 21.2216 141.174 21.4594 141.474 21.7598C141.774 22.0602 142.012 22.4172 142.175 22.8105C142.338 23.2038 142.423 23.6257 142.424 24.0521V24.5295Z" fill="url(#paint0_linear)"/>
<defs>
<linearGradient id="paint0_linear" x1="1077.1" y1="693.07" x2="38.5571" y2="131.748" gradientUnits="userSpaceOnUse">
<stop stop-color="#29285B"/>
<stop offset="0.880208" stop-color="#6DC4C7"/>
</linearGradient>
</defs>
</svg>
