<svg width="433" height="420" viewBox="0 0 433 420" fill="none" xmlns="http://www.w3.org/2000/svg">
<path d="M408.597 214.578V129.727H377.539V100.147H408.194V-15H0V100.147H29.8482V129.727H0.403354V244.874H29.8482V274.864H0.403354V390.011H218.416C241.105 408.741 270.247 420 302.011 420C319.053 420 332.565 416.725 340.229 414.371C361.405 407.922 376.631 397.482 385.707 390.011C391.455 385.302 400.228 377.216 408.597 365.446C420.395 348.967 425.74 333.512 428.16 325.016C430.177 317.749 433 305.467 433 290.012C433 261.865 423.925 235.867 408.597 214.578ZM29.8482 43.0341H86.9227V71.3859H29.8482V43.0341ZM349.002 100.147V129.727H58.3854V100.147H349.002ZM29.8482 187.352H86.9227V215.704H29.8482V187.352ZM86.9227 360.021H29.8482V331.669H86.9227V360.021ZM172.131 274.966H58.3854V244.976H179.291C175.761 254.393 173.341 264.526 172.131 274.966ZM302.112 390.113C246.55 390.113 201.374 345.385 201.374 290.114C201.374 234.844 246.449 190.115 302.112 190.115C357.674 190.115 402.849 234.844 402.849 290.114C402.748 345.282 357.674 390.113 302.112 390.113ZM356.766 273.226C355.657 269.029 353.943 265.038 351.825 261.251C351.523 260.636 351.523 260.227 351.825 259.613C355.052 254.393 358.178 249.071 361.405 243.851C361.808 243.236 361.808 242.827 361.304 242.213C357.674 237.607 353.539 233.513 348.901 229.828C348.296 229.419 347.993 229.316 347.287 229.726C342.044 232.899 336.699 235.969 331.456 239.142C330.75 239.552 330.246 239.552 329.641 239.142C325.91 236.993 321.977 235.458 317.843 234.332C317.137 234.127 316.733 233.82 316.633 233.104C315.12 227.065 313.607 221.128 312.095 215.089C311.893 214.373 311.591 214.168 310.986 214.066C305.137 213.349 299.288 213.349 293.44 214.066C292.633 214.168 292.33 214.475 292.129 215.294C290.717 221.231 289.204 227.065 287.692 233.001C287.49 233.82 287.188 234.127 286.28 234.434C282.146 235.56 278.314 237.095 274.583 239.245C273.877 239.654 273.373 239.654 272.768 239.245C267.524 236.072 262.18 232.899 256.936 229.828C256.331 229.419 255.928 229.419 255.323 229.931C250.684 233.615 246.55 237.709 242.92 242.213C242.415 242.827 242.415 243.236 242.819 243.851C245.945 249.071 249.071 254.291 252.298 259.408C252.701 260.125 252.701 260.636 252.298 261.353C250.281 264.935 248.667 268.825 247.558 272.816C247.256 273.738 246.852 274.147 245.945 274.352C239.995 275.785 234.147 277.32 228.298 278.753C227.592 278.958 227.29 279.162 227.189 279.879C226.483 285.713 226.483 291.547 227.189 297.381C227.29 297.995 227.491 298.302 228.197 298.507C234.248 299.94 240.197 301.475 246.247 303.011C247.054 303.215 247.357 303.625 247.558 304.341C248.667 308.435 250.382 312.325 252.499 316.009C252.903 316.624 252.903 317.135 252.499 317.749C249.272 322.969 246.146 328.292 242.92 333.512C242.617 334.024 242.516 334.433 242.92 334.945C246.651 339.653 250.886 343.849 255.625 347.534C255.827 347.739 256.129 347.841 256.331 347.944C256.634 347.739 256.835 347.636 257.037 347.534C262.281 344.361 267.625 341.291 272.869 338.118C273.575 337.708 274.079 337.606 274.785 338.015C278.415 340.062 282.347 341.7 286.381 342.724C287.289 342.928 287.692 343.44 287.894 344.259C289.305 350.195 290.818 356.029 292.33 361.966C292.431 362.478 292.532 362.887 293.339 362.989C299.187 363.706 305.137 363.808 310.986 362.989C311.792 362.887 312.196 362.682 312.397 361.864C313.809 355.927 315.422 349.991 316.834 343.952C317.036 343.338 317.238 342.928 317.943 342.724C322.078 341.598 326.111 339.96 329.842 337.811C330.548 337.401 331.052 337.504 331.657 337.913C336.901 341.086 342.245 344.156 347.489 347.329C348.094 347.636 348.397 347.739 349.002 347.329C353.64 343.645 357.775 339.551 361.506 334.945C362.01 334.331 362.01 334.023 361.606 333.307C358.38 327.985 355.254 322.662 352.027 317.442C351.724 316.931 351.623 316.521 352.027 315.907C354.144 312.222 355.758 308.333 356.867 304.239C357.069 303.42 357.472 303.113 358.279 302.908C364.329 301.475 370.279 299.94 376.329 298.405C376.833 298.302 377.236 298.2 377.337 297.484C378.043 291.752 378.144 285.918 377.438 280.186C377.337 279.162 376.934 278.753 375.925 278.548C369.976 277.115 364.027 275.58 358.178 274.147C357.17 274.147 356.867 273.84 356.766 273.226ZM302.011 314.986C287.389 314.986 275.692 303.215 275.692 288.681C275.692 274.147 287.49 262.479 302.112 262.479C316.733 262.479 328.632 274.249 328.531 288.784C328.431 303.318 316.632 315.088 302.011 314.986Z" fill="url(#paint0_linear)"/>
<defs>
<linearGradient id="paint0_linear" x1="39" y1="50.5" x2="774" y2="438" gradientUnits="userSpaceOnUse">
<stop stop-color="#F78B2E"/>
<stop stop-color="#F78B2E"/>
<stop offset="0.875366" stop-color="#F14B39"/>
<stop offset="1" stop-color="#F0423A"/>
</linearGradient>
</defs>
</svg>
