<svg width="37" height="37" viewBox="0 0 37 37" fill="none" xmlns="http://www.w3.org/2000/svg">
<g clip-path="url(#clip0)">
<path d="M28.7376 12.5525C28.4083 10.0948 27.1976 7.83373 25.3285 6.18579C23.4422 4.52282 21.0172 3.60699 18.5 3.60699C15.9832 3.60699 13.5585 4.52253 11.6724 6.18499C9.80339 7.83236 8.59251 10.0929 8.26269 12.5501C8.22287 12.8466 8.43107 13.1194 8.72772 13.1593C9.02379 13.1996 9.2971 12.9909 9.33692 12.6942C9.94937 8.13154 13.8886 4.6909 18.5 4.6909C23.1125 4.6909 27.0518 8.13255 27.6633 12.6965C27.6998 12.9687 27.9324 13.1665 28.1998 13.1665C28.2238 13.1665 28.248 13.1649 28.2724 13.1616C28.5691 13.1219 28.7773 12.8492 28.7376 12.5525Z" fill="white"/>
<path d="M28.2796 14.6133C27.9822 14.5766 27.712 14.7875 27.6752 15.0846C27.1038 19.701 23.1593 23.1823 18.5 23.1823C13.8373 23.1823 9.89244 19.6982 9.324 15.078C9.28743 14.781 9.01752 14.5697 8.71993 14.6063C8.42285 14.6429 8.21169 14.9133 8.24826 15.2104C8.88347 20.373 13.2907 24.2662 18.5001 24.2662C23.7055 24.2662 28.1124 20.3762 28.7508 15.2177C28.7876 14.9207 28.5766 14.6501 28.2796 14.6133Z" fill="white"/>
<path d="M21.6361 17.3544H20.4213V8.05824C20.4213 7.67313 20.1081 7.35986 19.723 7.35986H17.8955C17.7315 7.35986 17.572 7.41789 17.4466 7.52326L14.1264 10.3095C13.8367 10.5527 13.7922 10.9765 14.0251 11.2745L15.114 12.6681C15.2295 12.8158 15.4026 12.9121 15.589 12.9323C15.7756 12.9526 15.9651 12.8955 16.1096 12.7759L16.8662 12.1495V17.3543H15.3325V17.3544C14.9474 17.3544 14.6341 17.6677 14.6341 18.0528V19.7101C14.6341 20.0952 14.9474 20.4085 15.3325 20.4085H21.6361C22.0212 20.4085 22.3345 20.0951 22.3345 19.7101V18.0528C22.3345 17.6677 22.0212 17.3544 21.6361 17.3544ZM21.2506 19.3247H15.7181V18.4384H17.2518C17.6369 18.4384 17.9501 18.1251 17.9501 17.74V11.3299C17.9501 11.0565 17.7964 10.8143 17.549 10.698C17.3015 10.5815 17.017 10.6175 16.8063 10.792L15.7239 11.6882L15.1084 10.9006L18.0358 8.44385H19.3375V17.74C19.3375 18.1251 19.6508 18.4384 20.0359 18.4384H21.2506V19.3247Z" fill="white"/>
<path d="M33.1975 31.0091L28.3145 23.3712C28.8642 23.2573 29.3598 22.9468 29.7011 22.4949C30.0946 21.9738 30.2515 21.3068 30.1316 20.665C30.0302 20.1217 30.3048 19.5701 30.7996 19.3236C31.384 19.0326 31.8216 18.5054 32.0003 17.8774C32.179 17.2494 32.0845 16.5708 31.7408 16.0156C31.45 15.5456 31.5068 14.9321 31.8791 14.5236C32.3188 14.041 32.5366 13.3913 32.4763 12.7412C32.416 12.091 32.0827 11.4925 31.5617 11.0988C31.1207 10.7657 30.9521 10.173 31.1517 9.65756C31.3874 9.04865 31.3557 8.3643 31.0646 7.77974C30.7736 7.19526 30.2465 6.75755 29.6185 6.57869C29.087 6.42729 28.7156 5.9356 28.7155 5.38291C28.7154 4.72999 28.4385 4.10323 27.956 3.66335C27.4735 3.22347 26.8237 3.00574 26.1737 3.06579C25.6232 3.11681 25.0995 2.79227 24.8997 2.27694C24.6637 1.6681 24.1791 1.18371 23.5703 0.947834C22.9614 0.712032 22.277 0.74354 21.6925 1.03448C21.1977 1.28069 20.5919 1.16752 20.2195 0.759149C19.7797 0.276705 19.1528 0 18.4999 0C17.847 0 17.2202 0.276705 16.7802 0.759077C16.4078 1.16738 15.802 1.28069 15.3072 1.03441C14.7227 0.743467 14.0383 0.71196 13.4295 0.947762C12.8206 1.18364 12.3361 1.66803 12.1001 2.27687C11.9003 2.79219 11.3758 3.11659 10.8261 3.06572C10.1758 3.00559 9.52635 3.22333 9.04384 3.66328C8.56132 4.10316 8.28447 4.72992 8.28433 5.38284C8.28426 5.93553 7.91288 6.42729 7.3813 6.57862C6.75331 6.7574 6.22621 7.19519 5.93519 7.77967C5.64418 8.36415 5.61246 9.04858 5.84819 9.65749C6.04771 10.1729 5.87912 10.7656 5.43815 11.0988C4.91719 11.4924 4.58383 12.091 4.52356 12.7411C4.46336 13.3912 4.68103 14.0409 5.12076 14.5235C5.493 14.932 5.54987 15.5455 5.25901 16.0156C4.91538 16.5708 4.82086 17.2494 4.9995 17.8774C5.17821 18.5054 5.61585 19.0326 6.20026 19.3236C6.69499 19.5701 6.96967 20.1217 6.86821 20.665C6.74832 21.3069 6.90529 21.9738 7.29877 22.4949C7.64008 22.9468 8.13568 23.2573 8.68533 23.3712L3.80235 31.0091C3.62263 31.2903 3.61843 31.6422 3.79137 31.9276C3.9643 32.213 4.27887 32.372 4.61064 32.3429L9.3764 31.9235L10.9961 36.4251C11.1091 36.7391 11.3852 36.9573 11.7169 36.9944C11.75 36.9981 11.7831 37 11.8159 37C12.1106 37 12.3841 36.8519 12.5458 36.599L18.4999 27.2856L24.4539 36.5989C24.6157 36.8519 24.8891 36.9999 25.1839 36.9999C25.2167 36.9999 25.2498 36.9981 25.283 36.9943C25.6146 36.9571 25.8907 36.739 26.0038 36.4249L27.6235 31.9233L32.3892 32.3426C32.7217 32.3718 33.0356 32.2128 33.2085 31.9275C33.3814 31.6422 33.3772 31.2902 33.1975 31.0091ZM4.95094 31.2248L9.71164 23.778C9.88103 23.9502 10.0019 24.1711 10.0483 24.4192C10.1358 24.8869 10.3658 25.3135 10.6987 25.6438L7.30838 31.0173L4.95094 31.2248ZM10.5461 31.9729L10.3402 31.4006C10.2067 31.0296 9.83926 30.7943 9.44636 30.8292L8.66531 30.8979L11.6254 26.2064C12.0588 26.345 12.5282 26.3562 12.9726 26.2298C13.3477 26.1231 13.7437 26.2032 14.0468 26.4242L10.5461 31.9729ZM11.868 35.6469L11.0116 33.2664L14.7921 27.2745C15.1073 27.5579 15.4971 27.7541 15.9208 27.8333C16.2404 27.893 16.5663 27.8841 16.8773 27.8115L11.868 35.6469ZM18.8376 26.096C18.8029 26.0883 18.7675 26.0842 18.732 26.0834C18.6548 26.0758 18.5775 26.0706 18.4999 26.0706C18.4225 26.0706 18.3452 26.0758 18.268 26.0834C18.2322 26.0842 18.1968 26.0883 18.1619 26.096C17.7836 26.1509 17.4161 26.2976 17.0976 26.5381C16.8151 26.7512 16.4678 26.8328 16.1199 26.7679C15.7719 26.7028 15.4776 26.5013 15.2912 26.2003C15.2517 26.1366 15.2087 26.0761 15.1639 26.0173C15.1571 26.0083 15.1501 25.9995 15.1426 25.9909C14.566 25.2574 13.5878 24.928 12.676 25.1872C12.3356 25.284 11.9823 25.2347 11.6813 25.0484C11.3803 24.862 11.1787 24.5677 11.1136 24.2198C10.9748 23.478 10.4828 22.8652 9.82727 22.5502C9.79374 22.5306 9.75905 22.515 9.72349 22.5033C9.50944 22.413 9.28036 22.3526 9.04102 22.3304C8.68858 22.2977 8.37697 22.1241 8.16364 21.8416C7.95032 21.5591 7.86858 21.2119 7.93362 20.8638C8.12347 19.847 7.60944 18.8147 6.6835 18.3534C6.36669 18.1956 6.13884 17.9211 6.04193 17.5807C5.94509 17.2402 5.99431 16.8869 6.18061 16.5859C6.72506 15.7063 6.61861 14.558 5.92182 13.7933C5.68335 13.5317 5.57011 13.1934 5.6027 12.841C5.63536 12.4885 5.80887 12.1769 6.09136 11.9635C6.9167 11.3399 7.23236 10.2307 6.85882 9.26603C6.73098 8.93592 6.74753 8.57965 6.90536 8.26276C7.06311 7.94588 7.33751 7.71795 7.67802 7.62105C8.6729 7.33769 9.36788 6.41739 9.36809 5.38298C9.36817 5.02896 9.51226 4.70275 9.77386 4.4642C10.0355 4.22572 10.3737 4.1122 10.7262 4.14493C11.7566 4.24039 12.7367 3.63308 13.1106 2.66855C13.2386 2.33851 13.4908 2.08623 13.8209 1.95839C14.151 1.83056 14.5074 1.84696 14.8242 2.00472C15.7504 2.46555 16.8839 2.25367 17.581 1.48939C17.8195 1.22786 18.1458 1.08384 18.4998 1.08384C18.8539 1.08384 19.1802 1.22786 19.4187 1.48939C20.1157 2.25367 21.2494 2.46555 22.1755 2.00472C22.4924 1.84703 22.8486 1.83056 23.1787 1.95839C23.5089 2.08623 23.7611 2.33851 23.889 2.66855C24.2629 3.633 25.2429 4.24025 26.2735 4.14493C26.6258 4.1122 26.9641 4.22572 27.2258 4.4642C27.4874 4.70275 27.6315 5.02896 27.6315 5.38298C27.6317 6.41739 28.3267 7.33769 29.3216 7.62105C29.662 7.71795 29.9364 7.94588 30.0942 8.26276C30.252 8.57965 30.2685 8.93592 30.1407 9.26603C29.7671 10.2307 30.0828 11.3399 30.9081 11.9635C31.1906 12.1769 31.3641 12.4885 31.3968 12.841C31.4294 13.1935 31.3161 13.5317 31.0777 13.7933C30.3809 14.558 30.2745 15.7063 30.8189 16.5858C31.0052 16.8869 31.0544 17.2401 30.9575 17.5806C30.8606 17.9211 30.6328 18.1955 30.3159 18.3533C29.39 18.8146 28.876 19.847 29.0659 20.8638C29.1308 21.2118 29.0492 21.559 28.8358 21.8415C28.6225 22.124 28.3109 22.2976 27.9584 22.3303C27.7188 22.3526 27.4896 22.4131 27.2753 22.5035C27.2401 22.5151 27.2056 22.5306 27.1724 22.55C26.5168 22.865 26.0246 23.4778 25.8858 24.2197C25.8207 24.5677 25.6191 24.8619 25.3181 25.0483C25.0171 25.2347 24.6637 25.2839 24.3234 25.1872C23.4114 24.9278 22.433 25.2575 21.8565 25.9913C21.8493 25.9995 21.8426 26.0081 21.836 26.0167C21.791 26.0756 21.7479 26.1363 21.7083 26.2002C21.5219 26.5012 21.2276 26.7027 20.8796 26.7678C20.5318 26.8327 20.1844 26.7512 19.9019 26.538C19.5835 26.2976 19.2161 26.1509 18.8376 26.096ZM25.1318 35.6469L20.122 27.8105C20.2957 27.8511 20.4739 27.8727 20.6531 27.8727C20.7951 27.8727 20.9377 27.8597 21.0791 27.8333C21.5027 27.7541 21.8924 27.558 22.2077 27.2746L25.9883 33.2666L25.1318 35.6469ZM27.5535 30.8292C27.1602 30.7946 26.7931 31.0296 26.6596 31.4007L26.4537 31.9731L22.9528 26.4245C23.2561 26.2033 23.6521 26.1232 24.0273 26.2299C24.4716 26.3562 24.941 26.3451 25.3744 26.2065L28.3343 30.8979L27.5535 30.8292ZM29.6912 31.0173L26.3011 25.644C26.6341 25.3137 26.864 24.887 26.9516 24.4192C26.9981 24.1711 27.1188 23.9502 27.2882 23.7781L32.0489 31.2248L29.6912 31.0173Z" fill="white"/>
</g>
<defs>
<clipPath id="clip0">
<rect width="37" height="37" fill="white"/>
</clipPath>
</defs>
</svg>
