<svg width="33" height="33" viewBox="0 0 33 33" fill="none" xmlns="http://www.w3.org/2000/svg">
<g clip-path="url(#clip0)">
<path d="M20.1665 9.24151C20.2924 9.36738 20.4573 9.43029 20.6223 9.43029C20.7872 9.43029 20.9522 9.36738 21.078 9.24151C21.3297 8.98982 21.3297 8.5817 21.078 8.32995L21.0693 8.32124C20.8176 8.06955 20.4095 8.06955 20.1578 8.32124C19.9061 8.57293 19.9061 8.98105 20.1578 9.2328L20.1665 9.24151Z" fill="white"/>
<path d="M30.5647 15.3398L32.8112 13.0933C32.9955 12.909 33.0507 12.6317 32.9509 12.3909C32.8511 12.1501 32.6161 11.9931 32.3554 11.9931H27.6986C27.0899 9.50129 25.8124 7.2308 23.9861 5.40446C21.3324 2.7506 17.8039 1.28906 14.0508 1.28906C10.2977 1.28906 6.76919 2.7506 4.1154 5.40446C1.46154 8.05832 0 11.5867 0 15.3398C0 19.0929 1.46154 22.6214 4.1154 25.2752C4.90456 26.0644 5.77152 26.7472 6.69829 27.3184L4.75651 30.7489C4.64359 30.9485 4.64514 31.193 4.76064 31.391C4.87607 31.5891 5.08806 31.7109 5.31738 31.7109H8.63672C8.86894 31.7109 9.08325 31.586 9.19765 31.3839L10.5706 28.9582C11.6944 29.2433 12.8612 29.3906 14.0508 29.3906C15.2403 29.3906 16.4072 29.2433 17.5309 28.9582L18.9039 31.3839C19.0183 31.586 19.2326 31.7109 19.4648 31.7109H22.7842C23.0135 31.7109 23.2255 31.5891 23.341 31.3911C23.4565 31.193 23.458 30.9485 23.3451 30.749L21.4033 27.3185C22.3301 26.7472 23.1971 26.0645 23.9862 25.2753C25.8118 23.4497 27.09 21.1783 27.6986 18.6867H32.3555C32.6161 18.6867 32.8512 18.5296 32.9509 18.2888C33.0507 18.048 32.9955 17.7708 32.8113 17.5864L30.5647 15.3398ZM29.3862 14.6953H24.8881L26.3013 13.2821H30.7994L29.3862 14.6953ZM8.26089 30.4219H6.42282L7.8257 27.9435C8.30717 28.1818 8.80146 28.3926 9.30716 28.5735L8.26089 30.4219ZM21.6787 30.4219H19.8407L18.7944 28.5735C19.3001 28.3926 19.7944 28.1818 20.2759 27.9435L21.6787 30.4219ZM23.0747 24.3637C22.2232 25.2152 21.2723 25.9307 20.2487 26.5011C20.236 26.5072 20.2233 26.5131 20.2108 26.5201C20.203 26.5245 20.1959 26.5296 20.1884 26.5343C19.4032 26.9663 18.5757 27.3131 17.7171 27.5692C17.6834 27.5759 17.65 27.5859 17.617 27.5982C16.4727 27.9294 15.2751 28.1016 14.0508 28.1016C12.8265 28.1016 11.6288 27.9294 10.4845 27.5983C10.4515 27.5859 10.4181 27.576 10.3843 27.5693C9.52578 27.3132 8.69833 26.9663 7.91317 26.5344C7.90563 26.5297 7.89854 26.5246 7.89074 26.5201C7.8783 26.5131 7.8656 26.5073 7.85297 26.5012C6.82932 25.9308 5.87838 25.2152 5.02696 24.3637C2.61654 21.9534 1.28906 18.7486 1.28906 15.3398C1.28906 11.931 2.61654 8.72631 5.02689 6.31595C7.43724 3.9056 10.642 2.57812 14.0508 2.57812C17.4596 2.57812 20.6643 3.9056 23.0747 6.31595C24.6585 7.89976 25.7881 9.85082 26.3681 11.9931H26.0344C25.8634 11.9931 25.6995 12.061 25.5786 12.1818L23.868 13.8925C23.6954 12.7207 23.3165 11.5813 22.7444 10.545C22.5724 10.2334 22.1803 10.1204 21.8686 10.2923C21.557 10.4644 21.4439 10.8565 21.6159 11.1681C22.2278 12.2763 22.5695 13.4812 22.657 14.6954H19.8151C19.6717 13.3898 19.0948 12.1804 18.1526 11.2382C17.0569 10.1425 15.6002 9.53906 14.0508 9.53906C12.5013 9.53906 11.0446 10.1425 9.94905 11.238C8.85341 12.3337 8.25 13.7904 8.25 15.3398C8.25 16.8893 8.85341 18.346 9.94898 19.4416C11.0446 20.5372 12.5013 21.1406 14.0508 21.1406C15.6002 21.1406 17.0569 20.5372 18.1525 19.4416C19.0947 18.4995 19.6716 17.29 19.8151 15.9844H22.6542C22.5005 17.9992 21.6503 19.9544 20.1578 21.4469C18.5266 23.0782 16.3577 23.9766 14.0508 23.9766C11.7439 23.9766 9.57496 23.0782 7.94372 21.4469C6.31241 19.8157 5.41406 17.6468 5.41406 15.3398C5.41406 13.0329 6.31241 10.864 7.94372 9.23278C10.6496 6.52691 14.8764 5.92737 18.2226 7.77479C18.5341 7.94675 18.9263 7.8337 19.0984 7.52207C19.2704 7.21044 19.1573 6.81837 18.8456 6.64628C16.9994 5.62695 14.8254 5.2207 12.7245 5.50262C10.5534 5.79382 8.58496 6.76848 7.03222 8.32129C5.15747 10.196 4.125 12.6886 4.125 15.3398C4.125 17.9911 5.15747 20.4837 7.03216 22.3584C8.90691 24.2332 11.3995 25.2656 14.0508 25.2656C16.7021 25.2656 19.1947 24.2332 21.0693 22.3585C22.5927 20.8352 23.5591 18.9118 23.8702 16.7896L25.5785 18.4979C25.6994 18.6188 25.8634 18.6867 26.0343 18.6867H26.3679C25.7879 20.8288 24.6578 22.7806 23.0747 24.3637ZM16.1558 14.1245C15.9779 13.8162 15.5837 13.7106 15.2754 13.8886L13.7285 14.7817C13.5291 14.8968 13.4062 15.1096 13.4062 15.3398C13.4062 15.5701 13.5291 15.7829 13.7285 15.898L15.2754 16.7911C15.3769 16.8497 15.4877 16.8775 15.5971 16.8775C15.8198 16.8775 16.0365 16.7619 16.1558 16.5552C16.2604 16.3741 16.2664 16.1635 16.1916 15.9844H18.5165C18.38 16.9449 17.9393 17.8319 17.241 18.5301C16.3889 19.3823 15.2559 19.8516 14.0508 19.8516C12.8456 19.8516 11.7127 19.3823 10.8605 18.5301C10.0083 17.6779 9.53906 16.545 9.53906 15.3398C9.53906 14.1347 10.0083 13.0017 10.8605 12.1495C11.7127 11.2974 12.8456 10.8281 14.0508 10.8281C15.2559 10.8281 16.3889 11.2974 17.2411 12.1496C17.9393 12.8478 18.38 13.7348 18.5166 14.6953H16.1917C16.2664 14.5161 16.2604 14.3056 16.1558 14.1245ZM26.3013 17.3976L24.8881 15.9844H29.3862L30.7994 17.3976H26.3013Z" fill="white"/>
</g>
<defs>
<clipPath id="clip0">
<rect width="33" height="33" fill="white"/>
</clipPath>
</defs>
</svg>
