<svg width="30" height="30" viewBox="0 0 30 30" fill="none" xmlns="http://www.w3.org/2000/svg">
<path d="M14.9998 27.95C7.88314 27.95 2.0498 22.1555 2.0498 15C2.0498 7.84443 7.88314 2.04999 14.9998 2.04999C22.1165 2.04999 27.9498 7.84443 27.9498 15C27.9498 22.1555 22.1165 27.95 14.9998 27.95ZM14.9998 2.82777C8.31092 2.82777 2.82758 8.27221 2.82758 15C2.82758 21.7278 8.27203 27.1722 14.9998 27.1722C21.7276 27.1722 27.172 21.7278 27.172 15C27.172 8.27221 21.6887 2.82777 14.9998 2.82777Z" fill="white"/>
<path d="M15 29C22.732 29 29 22.732 29 15C29 7.26801 22.732 1 15 1C7.26801 1 1 7.26801 1 15C1 22.732 7.26801 29 15 29Z" stroke="white" stroke-width="0.636166" stroke-miterlimit="10"/>
<path d="M14.9221 21.1056H10.0999V9.12778H14.5721C15.3499 9.12778 16.0887 9.16667 16.7887 9.28333C17.4499 9.4 18.111 9.59444 18.7332 9.86667C19.3554 10.1389 19.8999 10.5278 20.3276 10.9556C20.7554 11.3833 21.1054 11.9667 21.3776 12.6278C21.6499 13.3278 21.7665 14.1056 21.7665 15C21.7665 16.0111 21.5721 16.9056 21.2221 17.7222C20.8332 18.5 20.3276 19.1611 19.7054 19.6278C19.0443 20.0944 18.3443 20.4444 17.5276 20.7167C16.6721 20.9889 15.8165 21.1056 14.9221 21.1056ZM14.8832 12.55H13.9887V17.6444H14.7276C16.6721 17.6444 17.6832 16.75 17.6832 15C17.6832 14.2222 17.4499 13.6389 16.9443 13.1722C16.3999 12.7833 15.7387 12.55 14.8832 12.55Z" fill="white"/>
</svg>
