<svg width="225" height="364" viewBox="0 0 225 364" fill="none" xmlns="http://www.w3.org/2000/svg">
<mask id="mask0" mask-type="alpha" maskUnits="userSpaceOnUse" x="0" y="0" width="225" height="364">
<rect width="225" height="364" fill="url(#paint0_linear)"/>
</mask>
<g mask="url(#mask0)">
<path d="M194.007 193.553L79.2432 193.17L73.2566 192.274L73.0019 192.019L64.9774 179.359L35.172 177.568L34.7899 177.185L32.6245 162.99L31.7329 142.785L32.4971 135.368L18.9956 141.506L18.4861 141.25L11.4805 125.137L2.94651 136.135L2.81914 136.263L-3.93166 140.995L-7.37074 145.726L-7.75286 145.854L-14.5036 146.238L-15.0131 145.854L-15.3953 129.485V129.357L-11.5741 117.337L-11.4467 117.209L-2.91267 106.85L-2.78529 106.723L10.3342 98.2825L15.3017 76.7986L1.92752 80.5071L-11.7014 92.5279L-12.3383 92.0164L-2.02106 73.4737L-1.89368 73.3458L13.5185 62.8597H13.6459L31.096 57.2329L48.1641 44.8285L48.2914 44.7007L68.5438 40.8643L87.6498 40.6085H87.7772L111.214 48.0255L125.607 53.7802L137.962 61.5809L138.09 61.7087L151.973 81.5302L158.342 90.6097V90.7376L164.329 108.385V108.513L164.711 115.418L193.879 115.802L194.134 115.93L208.272 130.508L208.4 130.764L208.782 178.463L208.655 178.719L194.389 193.425L194.007 193.553ZM79.3706 192.274L193.879 192.658L208.145 178.336L207.763 131.02L193.879 116.697L164.456 116.314L164.074 115.93L163.692 108.769L158.979 104.804L159.743 115.802L159.361 116.314H147.77L147.388 115.93L146.114 99.4334L134.396 96.7479L135.415 116.186L135.033 116.697L119.621 116.314L119.238 115.93L117.2 95.2134L94.0185 95.597L96.0565 115.802L95.6744 116.314L69.8176 117.209L69.4354 116.825L67.9069 100.329L51.221 110.175L52.1127 119.383L51.7305 119.894L46.763 120.789L34.0256 132.299L33.3888 132.171L26.7653 118.36L12.4995 124.882L19.3777 140.867L33.134 134.6L33.7709 134.984L32.6245 142.785L33.5161 162.99L35.5541 176.801L65.2321 178.463L65.6142 178.719L73.6387 191.507L79.3706 192.274ZM-14.5036 129.485L-14.1215 145.342L-7.88023 144.959L-4.56852 140.355L-4.44115 140.227L2.30964 135.496L11.2258 124.114L10.4615 99.1777L-2.14843 107.362L-10.5551 117.592L-14.5036 129.485ZM27.1475 117.72L33.5161 130.892L45.9987 119.638L46.2535 119.511L50.9663 118.743L50.2021 110.175L27.1475 117.72ZM11.2258 98.794L11.99 123.603L26.1285 117.081L24.0905 95.9806L11.2258 98.794ZM24.9821 95.8528L27.0201 116.825L50.0747 109.408L44.725 91.2491L24.9821 95.8528ZM68.5438 99.6892L70.1997 116.058L95.1649 115.291L92.9995 95.597L68.5438 99.6892ZM119.875 115.291L134.396 115.674L133.377 96.4922L117.71 95.0855L119.875 115.291ZM148.152 115.291H158.852L158.087 104.037L147.006 99.6892L148.152 115.291ZM45.4892 90.9933L50.8389 109.024L67.6522 99.1777L62.6846 79.4841L45.4892 90.9933ZM158.852 103.398L163.182 106.978L157.705 90.8654L152.865 84.0878L158.852 103.398ZM146.878 98.6661L157.833 103.014L151.337 82.1696L141.274 76.6707L146.878 98.6661ZM63.5763 78.9726L68.5438 98.794L92.9995 94.7018L86.7582 72.8343L63.5763 78.9726ZM134.269 95.7249L145.859 98.4104L140.128 76.1592L129.046 73.3458L134.269 95.7249ZM16.1933 76.5428L11.2258 97.8989L24.0905 95.0855L34.4077 76.9265L16.1933 76.5428ZM117.71 94.1903L133.377 95.597L128.155 73.0901L110.322 70.6604L117.71 94.1903ZM35.172 77.438L25.2369 94.9576L44.3429 90.4818L35.172 77.438ZM87.5225 72.7064L93.7638 94.574L116.818 94.1903L109.431 70.5325L87.5225 72.7064ZM35.6815 76.6707L45.1071 90.226L62.4299 78.7168L51.7305 62.2203L35.6815 76.6707ZM-1.38419 73.8574L-10.4277 90.0982L1.41803 79.7399L1.5454 79.612L15.5565 75.7756L30.077 58.5117L14.028 63.6269L-1.38419 73.8574ZM140.765 75.3919L150.19 80.5071L137.58 62.2203L127.008 55.5705L140.765 75.3919ZM52.4948 61.7087L63.1941 78.2053L86.2487 71.9392L73.1293 52.6292L52.4948 61.7087ZM16.8302 75.7756L35.0446 76.1592L50.9663 61.8366L31.4782 58.1281L16.8302 75.7756ZM128.791 72.3228L139.491 75.0083L125.225 54.5474L112.233 49.4322L128.791 72.3228ZM109.94 69.7652L127.645 72.1949L110.832 48.9207L91.7258 48.6649L109.94 69.7652ZM74.0209 52.3735L87.2677 71.8113L108.921 69.7652L90.7068 48.6649L74.0209 52.3735ZM32.3698 57.3608L51.8579 61.0693L71.9829 52.1177L48.5462 45.7237L32.3698 57.3608ZM50.3294 45.2122L73.2566 51.6062L89.1783 48.1534L68.5438 41.7594L50.3294 45.2122ZM90.9615 47.7698L108.284 48.0255L87.6498 41.5037L71.346 41.7594L90.9615 47.7698Z" fill="white" fill-opacity="0.71"/>
<path d="M-10.5554 145.854L-10.9375 145.47L-15.3956 129.613L-19.5989 108.769V108.513L-12.466 91.8884L-11.7017 92.0163L-10.6827 117.337L-3.80457 140.483V140.611L-4.44144 144.831L-0.620234 144.703L2.18198 135.879L-2.91295 107.234V107.106L1.41774 79.9955L1.54511 79.8677L13.5182 63.1153L13.6456 62.9874L48.2912 44.8284L48.6733 45.5957L14.0277 63.6268L2.18198 80.2513L-2.02134 107.106L3.0736 135.751L6.25793 144.064L14.5372 143.169L18.7405 140.611L19.3774 140.995V143.296L18.9953 143.68L-0.238111 145.47L-4.82356 145.598V145.47L-7.4984 145.598L-10.5554 145.854ZM-10.1732 144.959H-7.62577H-5.20568L-4.56881 140.739L-11.447 117.592V117.465L-12.2112 94.0624L-18.5799 108.769L-14.5039 129.357L-10.1732 144.959ZM2.69148 137.158L0.398754 144.575L5.36632 144.064L2.69148 137.158ZM18.4858 141.762L16.1931 143.169L18.4858 142.913V141.762Z" fill="white" fill-opacity="0.71"/>
<path d="M194.007 194.193L79.2435 193.809H79.1161L73.1296 192.914L72.3653 192.402L64.2134 179.486L64.086 178.975L63.8313 130.508L64.086 129.869L74.9128 115.546L75.8044 115.163H194.134L194.899 115.546L209.037 130.125L209.292 130.892L209.674 178.591L209.419 179.359L194.899 193.937L194.007 194.193ZM79.3709 191.635L193.625 192.019L207.509 178.08L207.126 131.148L193.625 117.209H76.1865L65.8693 130.764L66.124 178.463L73.8938 190.74L79.3709 191.635Z" fill="white" fill-opacity="0.71"/>
<path d="M73.1294 192.914L49.0558 190.101L48.5464 189.845L34.5353 178.08L34.1532 177.44L31.9878 163.118L31.0962 142.913V142.785L32.3699 131.659L32.752 131.02L45.6168 119.383L46.2536 119.127L75.6769 115.291L76.6959 116.953L66.1239 131.02L66.3786 178.719L74.4032 191.379L73.1294 192.914ZM49.5653 187.927L71.0914 190.484L64.2133 179.486L64.0859 178.975L63.8312 130.508L64.0859 129.869L73.3842 117.592L46.8905 121.045L34.5353 132.171L33.2615 142.913L34.1532 162.99L36.1911 176.673L49.5653 187.927Z" fill="white" fill-opacity="0.71"/>
<path d="M-21.5094 147.261L-21.7642 145.215L31.9874 141.762L58.3537 131.787L33.5159 132.682L33.3885 130.508L64.8498 129.357L65.2319 131.403L32.4969 143.808H32.2422L-21.5094 147.261Z" fill="white" fill-opacity="0.71"/>
<path d="M65.1048 179.998L35.1721 178.208V176.162L60.0099 177.568L32.752 164.013L-0.619873 159.154L-0.365125 156.98L33.1341 161.967H33.5162L65.6143 177.952L65.1048 179.998Z" fill="white" fill-opacity="0.71"/>
<path d="M-0.110458 212.863L-6.86125 210.05L-6.98862 209.922L-13.9942 201.866L-20.8723 195.472L-25.8399 188.31L-30.0432 174.371L-32.3359 161.327V161.072L-28.8969 150.33L-28.6421 150.074L-21.8913 146.365H-21.6366L-14.5037 147.516L-9.15397 149.69L-5.46014 152.248L-0.365206 156.084L-0.237831 156.34L0.653782 165.292L4.34761 173.988L7.65932 183.834L9.1878 194.321V194.449L7.2772 201.482L5.62135 207.364L5.49397 207.492L0.399036 212.48L-0.110458 212.863ZM-6.35176 209.155L0.0169144 211.84L4.85711 207.109L6.51296 201.354L8.29619 194.449L6.76771 184.09L3.456 174.371L-0.237831 165.675V165.548L-1.12945 156.724L-6.09701 153.015L-9.79084 150.458L-15.0131 148.284L-21.7639 147.133L-28.1326 150.713L-31.4443 161.2L-29.0242 174.116L-24.9483 187.927L-20.1081 194.832L-13.2299 201.098L-6.35176 209.155Z" fill="white" fill-opacity="0.71"/>
<path d="M-3.16742 205.958L-7.75287 204.423L-7.88024 204.295L-14.2489 198.669L-19.4712 194.193L-25.4578 188.438L-25.5851 188.31L-29.7885 174.371L-32.3359 161.327V161.072L-28.8969 152.248L-28.6421 151.992L-22.5282 149.179H-22.2734L-15.5226 151.225L-12.2109 153.271L-9.66347 155.445L-8.00761 157.875L-7.116 160.688L-5.2054 165.931L-1.76631 170.023L0.399036 174.755L3.58337 183.834L5.49397 192.402V192.53L4.34761 197.646L1.67277 202.377L1.54539 202.505L-2.7853 205.83L-3.16742 205.958ZM-7.37074 203.656L-3.04005 205.19L1.0359 202.121L3.71074 197.518L4.85711 192.658L3.07388 184.218L-0.110458 175.266L-2.14843 170.663L-5.58752 166.698L-5.71489 166.571L-7.75287 161.327L-8.64448 158.514L-10.173 156.34L-12.5931 154.294L-15.7774 151.864L-22.2734 149.946L-28.1326 152.632L-31.4443 161.2L-29.0242 174.116L-24.9483 187.927L-19.0891 193.553L-13.8668 198.029L-7.37074 203.656Z" fill="white" fill-opacity="0.71"/>
<path d="M-4.31337 200.715L-8.13457 200.331L-8.38932 200.203L-12.4653 196.75L-16.5412 191.635L-21.6362 185.88L-21.7635 185.753L-25.8395 174.243L-26.9858 164.269V164.141L-25.4574 156.34L-25.2026 156.084L-20.235 153.015H-19.9803L-15.5222 153.399L-15.2675 153.527L-11.5737 156.212L-10.2999 157.747L-10.1725 157.875L-9.9178 159.281L-9.66305 163.118L-9.40831 164.908L-8.38932 165.803L-8.26195 166.059L-7.37033 169.895L-7.4977 170.279L-11.3189 175.522L-12.2105 179.742L-12.3379 182.556L-9.40831 184.346L-9.28093 184.474L-6.47872 188.054L0.781569 190.228L3.45641 191.124L5.36702 192.275L5.49438 192.914L2.69217 195.983L0.526819 198.796L0.399448 198.924L-3.93125 200.842L-4.31337 200.715ZM-7.87982 199.436L-4.69549 199.819L-4.82286 197.262L-7.75245 193.553L-10.4273 189.333L-11.8284 186.52L-12.8474 183.451L-14.1211 184.346L-13.9937 186.52L-14.758 186.904L-17.815 184.218L-17.9423 184.09L-19.9803 178.975V178.719L-19.5982 173.86L-19.4708 173.604L-15.6496 169L-12.9748 166.315L-10.4273 164.908V165.036L-10.682 163.246L-10.9368 159.409L-11.1915 158.258L-12.3379 156.852L-15.777 154.422L-19.9803 154.038L-24.6931 156.852L-26.2216 164.397L-25.0752 174.243L-21.1267 185.625L-16.0317 191.379L-11.9558 196.495L-7.87982 199.436ZM-7.11559 193.17L-4.18599 196.878L-4.05862 197.134L-3.93125 199.692L-0.237419 198.029L1.92793 195.344L4.34802 192.658L2.94692 191.763L0.399448 190.996L-6.73346 188.694L-6.98821 188.566L-9.9178 184.985L-12.2105 183.579L-11.3189 186.264L-10.0452 188.95L-7.11559 193.17ZM-17.1781 183.707L-15.0127 185.625L-15.1401 184.218L-15.0127 183.834L-13.2295 182.556L-13.1021 179.486L-12.2105 175.139L-12.0831 175.011L-8.38932 169.895L-9.15356 166.315L-10.0452 165.547L-12.5926 166.954L-15.1401 169.512L-18.8339 173.988L-19.2161 178.591L-17.1781 183.707Z" fill="white" fill-opacity="0.71"/>
<path d="M-4.56842 197.518L-8.26224 197.006L-8.38962 196.878L-16.4141 191.635L-16.5415 191.379L-17.4331 187.159L-20.8722 185.113L-21.127 184.857L-23.1649 177.568L-25.585 174.371L-25.7124 173.988L-24.8208 168.489L-21.7638 159.537L-21.6365 159.409L-18.5795 156.596L-20.3627 153.527L-22.7828 149.69V149.435L-22.0186 145.342L-21.2543 145.47L-21.8912 149.435L-19.5985 153.143L-17.9426 155.956L-15.9046 153.655L-16.032 151.481V151.353L-15.1404 147.772L-14.5035 147.516L-9.28123 149.69L-9.15386 150.33L-11.9561 153.655L-11.574 156.34L-11.7013 156.724L-14.2488 159.537L-14.1214 159.665L-13.3572 164.908L-12.2108 166.443L-9.4086 169.512H-8.26224L-8.77174 167.466L-8.51699 166.954L-7.62538 166.571L-8.64436 166.443L-8.89911 166.315L-10.0455 165.292L-9.66335 164.524L-5.46003 165.548L0.144402 165.036L0.52652 165.675L-1.63882 170.023L0.399149 174.627L0.144402 175.266L-1.51145 175.778L0.781269 184.73L3.45611 191.124V191.507L-0.492466 196.367L-0.747213 196.495L-4.56842 197.39V197.518ZM-8.0075 196.239L-4.56842 196.622L-1.00196 195.727L2.69187 191.252L0.0170288 184.985L-2.40307 176.034L-4.56842 176.417L-9.79072 179.359H-9.9181L-12.5929 179.87L-15.013 179.742L-17.3058 179.486L-19.7259 178.975L-22.2733 177.952L-20.4901 184.346L-17.051 186.392L-16.7963 186.648L-15.9046 190.868L-8.0075 196.239ZM-17.1784 178.847L-15.013 179.103L-12.5929 179.231L-10.1728 178.719L-4.95053 175.778H-4.82316L-2.53044 175.266L-2.65782 170.663L-9.79072 170.535L-10.0455 170.407L-12.9751 167.21L-14.2488 165.548L-14.3762 165.292L-15.013 160.432L-17.8153 163.374L-21.3817 171.558L-22.4007 177.185L-19.3437 178.463L-17.1784 178.847ZM-24.9482 173.988L-23.1649 176.417L-22.2733 171.302L-18.5795 162.99L-18.4521 162.862L-15.5225 159.665L-18.07 157.363L-20.9996 160.049L-24.0565 168.872L-24.9482 173.988ZM-1.63882 172.197V174.883L-0.619837 174.499L-1.63882 172.197ZM-6.98851 169.64L-2.40307 169.768L-0.619837 166.187L-5.46003 166.698L-5.20528 166.954L-6.98851 169.64ZM-7.88012 167.721L-7.62538 169L-6.22427 166.826L-7.88012 167.721ZM-17.4331 156.724L-14.8857 159.026L-12.3382 156.34L-12.7203 153.655L-12.5929 153.271L-10.1728 150.33L-14.5035 148.539L-15.2678 151.609L-15.1404 153.783L-15.2678 154.038L-17.4331 156.724Z" fill="white" fill-opacity="0.71"/>
<path d="M-7.49817 193.809H-7.62554L-11.9562 192.402L-16.2869 191.763L-16.4143 190.996L-12.3384 189.205L-10.3004 188.694L-6.60655 187.799L-2.40323 185.753L-4.69595 182.811L-9.15402 184.985L-9.79089 184.602L-10.3004 179.103V178.847L-7.75292 173.732L-7.88029 173.476L-8.26241 170.407H-9.66352L-11.7015 170.918H-11.9562L-14.1216 170.407L-15.5227 169.768L-15.6501 169.64L-17.0512 167.594L-18.4523 163.374L-21.6366 160.049L-25.2031 156.724L-28.7695 152.632L-28.1327 152.12L-24.5662 156.084L-20.9998 159.409L-17.8154 162.734L-17.688 162.862L-16.1596 167.082L-14.8858 168.872L-13.6121 169.512L-11.5741 170.023L-9.53615 169.512H-7.62554L-7.24342 169.895L-6.98868 172.709L-2.14849 169.768L-1.51162 170.279L-4.05909 176.162V181.66H-3.67697L0.908478 184.474V185.241L-0.87475 186.136L1.2906 190.356V190.74L0.781103 192.53L0.398985 192.786L-3.54959 193.553L-7.49817 193.809ZM-14.6311 191.124L-11.7015 191.507L-7.49817 192.786L-3.93172 192.53L-0.365257 191.891L0.0168629 190.484L-2.02111 186.392L-6.47918 188.566L-10.173 189.461L-12.211 189.973L-14.6311 191.124ZM-3.67697 182.939L-1.63899 185.497L-0.49263 184.857L-3.67697 182.939ZM-9.40877 179.231L-9.02665 183.962L-5.07807 182.044V176.289L-7.11605 174.371L-9.40877 179.231ZM-6.73393 173.604L-4.82333 175.394L-3.0401 171.302L-6.73393 173.604Z" fill="white" fill-opacity="0.71"/>
<path d="M4.85722 207.62L0.908648 202.505L0.781271 202.377L-0.365088 198.541L-1.12933 196.495L-4.18629 193.298L-6.86113 188.566L-9.53598 185.241L-11.3192 186.776L-11.574 186.904L-13.7393 187.031L-11.9561 189.461L-11.8287 189.589L-11.4466 191.891L-11.9561 192.402L-16.1594 191.763L-19.089 194.193L-20.2353 195.472H-20.8722L-25.7124 188.438L-25.585 187.799L-20.9996 184.346L-20.8722 184.218L-17.5605 183.323H-17.4331L-14.6309 183.579L-14.7583 184.474L-17.5605 184.218L-20.7448 185.113L-24.8208 188.182L-20.4901 194.448L-19.5985 193.553L-16.4141 190.996L-16.032 190.868L-12.2108 191.379L-12.4656 189.717L-14.6309 186.776L-14.3762 186.136L-11.574 185.88L-9.53598 184.218H-8.89911L-6.22427 187.543L0.526524 184.346L3.32874 183.323H3.45612L6.8952 183.451L3.96561 174.627L0.526524 175.138L0.399151 174.243L4.22035 173.732L4.72985 173.988L8.04156 183.707L7.65944 184.218L3.71086 184.09L1.03602 185.113L-5.20528 188.182L0.781271 191.891L2.05501 193.298L3.07399 195.216L4.72985 197.134L7.78681 201.226L7.91418 201.61L6.25833 207.492L4.85722 207.62ZM1.54552 201.993L4.98459 206.469L6.3857 201.61L3.45612 197.773L1.80026 195.727L0.781271 193.809L-0.365088 192.658L-5.46003 189.461L-3.54942 192.786L-0.492464 195.855L-0.365088 195.983L0.399151 198.157L1.54552 201.993Z" fill="white" fill-opacity="0.71"/>
<path d="M0.399137 212.735L-0.365105 212.607L-3.54944 205.702L-4.6958 200.459L-3.93156 200.203L-2.65783 205.446L0.144389 211.712L4.85721 207.237L6.51306 201.354L8.29629 194.704L4.85721 192.914L5.23933 192.147L8.93316 194.193L9.1879 194.576L7.2773 201.61L5.62145 207.492L5.49407 207.748L0.399137 212.735Z" fill="white" fill-opacity="0.71"/>
<path d="M101.788 284.22L53.896 264.399L53.7686 264.271L39.3754 248.925L28.1666 233.58L20.2694 219.129L14.4102 208.26V208.132L13.2639 195.344L10.589 182.683L7.53207 184.218L6.8952 183.962L3.5835 174.243L3.83824 173.732L8.42369 172.197L8.93318 161.583L8.80581 159.409H9.69742L9.82479 161.583L9.3153 171.814L21.0337 167.849L33.3889 166.187L33.5163 167.082L21.161 168.744L9.3153 172.709L11.0985 181.533L19.2504 179.486L34.6626 177.824L35.1721 178.208L37.9743 193.681L42.6871 209.155L50.2022 224.372L55.1697 237.288L65.6144 253.529L81.0266 268.491L102.425 283.325L101.788 284.22ZM54.2781 263.632L98.4767 281.791L80.2623 269.13L64.8501 254.169V254.041L54.2781 237.672L49.3106 224.756L41.7955 209.41L37.0827 194.065L34.4079 178.975L19.3778 180.637L11.2259 182.683L14.0281 195.471L15.1745 208.132L21.0337 218.874L28.9308 233.196L40.0123 248.414L54.2781 263.632ZM4.47511 174.627L7.4047 183.451L10.2069 182.044L8.42369 173.22L4.47511 174.627Z" fill="white" fill-opacity="0.71"/>
<path d="M80.5166 269.386L67.2698 268.747L67.015 268.619L51.3481 252.25L39.375 234.859L31.0957 220.792L26.2555 208.132L21.4153 193.553L18.8679 180.254V180.126L20.6511 168.489L20.7785 161.583L12.7539 160.177L0.398723 165.931L0.0166016 165.164L12.4992 159.409L12.7539 159.281L21.288 160.816L21.6701 161.328L21.4153 168.617L19.7595 180.126L22.307 193.425L27.0198 207.748L31.86 220.408L40.0119 234.347L51.985 251.739L67.5245 267.852L80.5166 268.491L93.2539 266.829L100.769 261.33L105.482 255.575L109.303 250.46L111.214 247.391L103.062 241.764L102.934 241.636L100.132 236.521L100.005 236.137L102.934 224.884L95.0372 224.5L94.655 223.989L98.6036 209.155L99.2405 208.899L108.794 214.909L108.411 215.549L99.2405 209.922L95.674 223.605L103.444 223.989L103.826 224.628L100.896 236.265L103.571 241.125L112.105 246.879L112.233 247.519L110.067 250.972L106.119 256.087L101.406 261.969L93.6361 267.596L93.5087 267.724L80.5166 269.386Z" fill="white" fill-opacity="0.71"/>
<path d="M67.9074 226.163L49.693 225.14L31.4786 221.048L20.6519 219.513L11.7358 221.687L11.2263 221.431L8.29668 212.096L4.8576 207.748L4.73022 207.364L6.38608 201.482L7.02294 201.226L14.7927 207.876L26.5111 207.492L42.178 209.027L64.2136 210.306L80.8995 210.561L98.7318 208.899L113.762 201.738L116.309 194.193L98.6044 196.623L79.371 198.285L60.0103 198.541H59.8829L37.4652 194.449L21.9256 194.065L13.6464 196.111H13.519L8.6788 195.088L8.80617 194.193L13.519 195.216L21.7983 193.17L37.4652 193.553L59.8829 197.646L79.1163 197.39L98.3497 195.727L116.691 193.17L117.201 193.681L114.399 201.993L116.055 209.411L115.927 209.794L108.667 215.549L103.572 224.756L103.19 225.012L94.9106 224.628L83.3196 225.268L67.9074 226.163ZM49.8204 224.245L67.9074 225.268L83.447 224.245L95.038 223.605L103.062 223.989L108.03 215.037L108.157 214.909L115.163 209.283L113.634 202.505L98.8592 209.538H98.7318L81.0269 211.329L64.341 211.073L42.3054 209.794L26.6384 208.26L14.7927 208.643L14.538 208.515L7.15032 202.249L5.62184 207.237L8.93355 211.457L9.06092 211.584L11.9905 220.664L20.6519 218.618H20.7793L31.7334 220.152L49.8204 224.245Z" fill="white" fill-opacity="0.71"/>
<path d="M122.55 285.883L101.915 284.22L101.788 284.093L80.3894 269.386L67.2699 268.747H67.1425L53.8957 264.399L48.8007 262.737L48.546 262.609L30.2042 247.647L16.7026 234.219L16.5753 234.091L11.2256 221.431L11.9898 221.048L17.3395 233.708L30.7137 247.007L49.0555 261.969L54.1504 263.632L67.3973 267.852L80.6441 268.491L80.7715 268.619L102.17 283.325L122.423 285.116L135.797 281.279L139.363 277.699L130.192 282.046H129.938L111.341 278.594H111.214L93.1267 267.596L80.5167 255.064L80.3894 254.936L73.8933 239.462L67.5246 225.907L63.8308 210.817L59.6275 198.157L58.099 189.973L58.6085 189.461L73.3838 191.379L79.3704 192.274L79.7525 192.658V197.773L81.4083 210.433L98.4764 208.771L97.2026 193.298H98.0943L99.368 209.155L98.9859 209.666L81.0262 211.329L80.5167 210.945L78.8609 197.773V193.042L73.2564 192.274L58.9906 190.356L60.3917 197.901L64.7224 210.561L68.2889 225.651L74.7849 239.079L81.1536 254.552L93.6362 266.957L111.596 277.826L129.938 281.151L141.146 275.908L141.656 276.548L136.306 281.919L136.179 282.046L122.677 285.883H122.55Z" fill="white" fill-opacity="0.71"/>
<path d="M141.783 276.42L141.019 276.164L141.274 267.724V267.468L146.369 258.389L145.732 255.575L139.363 260.69L139.109 260.818L129.046 259.923L117.71 262.097H117.455L105.737 256.087L105.609 255.959L97.8396 247.007L90.5793 250.46L80.899 254.936H80.6442L64.9773 254.041L51.3483 252.122L39.3752 248.925L30.2043 247.391L29.9496 247.263L16.448 233.963L16.7027 233.196L28.2937 232.813L39.5026 233.836L54.4053 236.777L74.0208 238.439L85.7391 236.137L94.6553 234.859L100.26 235.498L100.642 235.882L101.788 242.02L102.68 240.869L103.317 240.741L111.851 246.496L111.978 247.135L110.195 250.076L119.875 252.89H129.938L139.236 252.25L142.93 249.565L146.114 245.856L148.279 239.462H149.044L150.063 244.578L150.827 245.856L150.954 246.112L147.77 263.504V263.632L141.783 276.42ZM142.038 267.98L141.911 274.246L147.006 263.632L150.19 246.496L149.426 245.345V245.217L148.662 241.636L147.006 246.624L146.878 246.752L143.567 250.716L139.745 253.529L139.491 253.657L130.065 254.296H120.003H119.875L109.558 251.227L109.303 250.588L111.214 247.519L103.317 242.148L102.043 243.81L101.279 243.682L100.005 236.905L94.7827 236.265L86.1213 237.544L74.4029 239.846H74.2755L54.5326 238.184L39.63 234.987L28.5485 233.963L17.9765 234.347L30.7138 246.879L39.8847 248.414L51.7304 251.611L65.232 253.529L80.7716 254.424L90.3246 249.949L97.8396 246.24L98.3491 246.368L106.246 255.575L117.837 261.458L129.173 259.284L139.109 260.179L145.859 254.68L146.496 254.936L147.388 258.644V258.9L142.038 267.98Z" fill="white" fill-opacity="0.71"/>
<path d="M116.309 270.409H116.055L100.897 261.969L100.77 261.841L90.0703 250.46L89.943 250.332L85.6123 236.905L83.0648 224.628L80.5173 210.817L81.409 210.689L83.9564 224.5L86.5039 236.777L90.7072 249.949L101.279 261.202L116.309 269.514L130.957 267.596L141.147 267.34L146.115 258.517L145.35 255.064V254.808L149.172 245.089L148.407 241.636L146.752 246.624L146.624 246.752L139.746 253.273L139.364 260.563L138.854 260.946L128.792 260.051L128.41 259.54L129.429 254.041H120.258L117.965 261.841L117.328 262.097L105.61 256.087L105.483 255.447L109.049 250.588L101.661 243.81L98.0949 246.752L97.458 246.496L94.401 235.498V235.37L94.6558 223.733H95.5474L95.2926 235.242L98.0949 245.473L101.407 242.659H101.916L109.813 249.949V250.46L106.247 255.192L117.074 260.691L119.239 253.018L119.621 252.762H129.683L130.066 253.273L129.429 259.284L138.6 260.051L138.982 253.018L139.109 252.762L146.115 246.112L148.28 239.718H149.044L150.063 244.833V245.089L146.242 254.808L146.752 256.854L150.191 246.112L151.082 246.368L147.898 263.76H147.006L146.497 259.923L142.039 267.98L141.657 268.235L131.212 268.491L116.309 270.409ZM147.134 258.644L147.388 260.946L148.789 253.146L147.134 258.644Z" fill="white" fill-opacity="0.71"/>
<path d="M122.55 285.883L102.043 284.22L101.916 283.453L111.214 277.954L116.054 269.898L117.328 261.841L117.71 261.458L129.046 259.284L129.556 259.54L131.721 267.98V268.108L130.702 280.896L141.147 275.908L141.401 267.852L138.854 260.563L139.618 260.307L142.166 267.596V267.724L141.911 276.164L141.656 276.548L130.32 281.919L122.805 285.755L122.55 285.883ZM103.317 283.453L122.423 284.988L129.556 281.279L130.575 268.108L128.537 260.179L117.837 262.225L116.563 270.154V270.282L111.596 278.466L111.469 278.594L103.317 283.453Z" fill="white" fill-opacity="0.71"/>
<path d="M150.955 246.496H150.19L149.299 243.043V242.787L152.101 234.731L151.082 234.987L149.044 240.102L148.28 239.974L147.515 230.255L147.388 223.222L144.968 215.804V215.549L145.86 210.689L145.987 210.433L150.445 205.318L152.738 199.691L150.19 193.042L150.572 192.402L154.012 192.914L154.394 193.297V195.983L163.31 197.773L163.692 193.425L164.456 193.553L164.074 198.285L163.565 198.668L153.884 196.75L153.629 196.367V193.681L151.209 193.425L153.502 199.564V199.947L151.209 205.702L151.082 205.83L146.751 210.945L145.86 215.677L148.28 223.222L148.407 230.255L148.917 238.056L150.445 234.347L150.7 234.091L152.61 233.708L153.12 234.219L150.19 242.915L150.572 244.833L153.757 234.603L158.342 224.117L162.546 210.561L166.239 199.436L167.004 193.425L167.895 193.553L167.004 199.691L163.437 210.817L159.106 224.372L154.648 234.987L150.955 246.496Z" fill="white" fill-opacity="0.71"/>
<path d="M103.571 224.884L103.189 224.245L108.284 215.037L108.794 214.781L117.073 216.7L125.734 215.677L133.504 213.247H136.306L138.599 213.63L142.675 214.526L145.35 215.165L148.916 214.142L152.355 208.771L150.572 206.086L144.968 209.155H144.713L137.198 208.26H137.071L131.848 205.063L125.48 205.702L123.314 208.132L124.843 210.05V210.689L121.786 213.247H121.276L115.672 209.794L115.544 209.283L117.455 205.574L117.582 205.446L122.932 201.993H123.059L132.358 199.819L140.892 198.924L148.152 198.285H148.279L152.483 199.18L151.718 197.134L151.973 196.622L153.884 195.983H154.139L163.819 197.901L166.876 199.18L166.494 199.947L163.564 198.669L154.139 196.75L152.737 197.262L153.629 199.692L153.12 200.203L148.279 199.18L141.019 199.819L132.485 200.715L123.314 202.889L118.092 206.213L116.436 209.41L121.404 212.48L123.824 210.433L122.423 208.643V208.132L124.97 205.318L125.225 205.19L131.848 204.551H132.103L137.325 207.748L144.586 208.643L150.445 205.446L150.954 205.574L152.992 208.643L162.927 210.561L163.309 211.073L158.979 224.628L158.469 224.884L156.431 223.989L153.374 223.733L150.572 223.989L147.77 223.733H147.643L143.312 221.559L138.726 218.874L135.669 219.129H135.542L131.848 218.746L123.314 222.198L112.742 224.372L103.571 224.884ZM108.794 215.677L104.208 223.861L112.615 223.094L123.059 220.92L131.593 217.467H131.848L135.669 217.851L138.854 217.595H139.109L143.821 220.408L148.025 222.454L150.699 222.71L153.502 222.454L156.813 222.71L158.469 223.349L162.418 210.689L153.12 208.899L149.681 214.398L149.426 214.526L145.605 215.549H145.35L142.548 214.909L138.472 214.014L136.179 213.63H133.504L125.734 215.932L116.946 216.955H116.818L108.794 215.677Z" fill="white" fill-opacity="0.71"/>
<path d="M154.011 235.242L152.483 234.603L152.228 234.219L152.865 223.222L152.483 208.899L153.502 196.495L154.011 196.111L163.692 198.029L164.074 198.541L161.017 210.561L156.941 223.733L154.648 235.114L154.011 235.242ZM153.12 233.836L153.884 234.091L156.177 223.222L160.253 210.05L163.182 198.413L154.521 196.622L153.502 208.643L153.884 222.966L153.12 233.836Z" fill="white" fill-opacity="0.71"/>
<path d="M114.398 202.249L114.016 201.482L116.564 200.075L122.168 196.494L135.924 192.402L136.179 193.297L122.55 197.39L116.946 200.715L114.398 202.249Z" fill="white" fill-opacity="0.71"/>
<path d="M121.532 213.247L121.277 212.479L123.824 210.306L117.71 206.085L117.583 205.83L116.564 200.331L116.819 193.425H117.71L117.456 200.203L118.475 205.318L122.678 208.132V207.62L124.971 205.062L123.06 202.377L122.933 202.249L122.041 196.878V196.622L124.206 192.914L124.588 192.658L131.594 192.402L131.976 192.786L132.868 199.947L132.486 204.167L137.326 207.109L140.001 204.807L140.638 199.052L138.472 192.914L138.854 192.402H147.261L147.643 192.786L148.662 198.541L148.025 204.807L147.898 205.062L145.096 208.899L144.968 209.027L138.982 212.096H138.727L136.816 211.712L132.995 211.968L126.754 212.991L121.532 213.247ZM124.588 210.689L122.678 212.352L126.626 212.224L132.868 211.201L136.816 210.945H136.944L138.727 211.329L143.312 209.027L137.326 208.387L124.588 210.689ZM123.315 208.132L124.588 209.794L136.052 207.62L131.721 204.935L131.467 204.551L131.849 200.075L131.085 193.425L124.588 193.681L122.678 197.006L123.442 202.121L125.48 205.062V205.574L123.315 208.132ZM138.345 207.62L144.586 208.387L147.134 204.807L147.77 198.796L146.751 193.681H139.364L141.274 199.308V199.436L140.638 205.446L140.51 205.702L138.345 207.62Z" fill="white" fill-opacity="0.71"/>
<path d="M103.571 241.764L102.935 241.636L100.132 236.521L100.387 235.882L113.761 233.708L123.569 228.593L132.995 225.779H133.249L137.453 226.674L141.147 225.779L144.586 226.035L144.84 226.163L148.279 229.999L150.19 233.068L150.063 223.477L148.789 214.781L145.987 211.201L142.675 211.712L138.726 212.224L138.599 211.329L142.548 210.817L146.114 210.306L146.496 210.434L149.553 214.27L149.681 214.526L150.954 223.349L151.209 234.475L150.445 234.731L148.534 231.79L149.044 239.846L148.534 240.23L142.166 238.567L134.905 239.59L126.117 239.334L113.889 241.253H113.761L104.845 239.974L103.571 241.764ZM101.151 236.649L103.317 240.741L104.463 239.462L104.845 239.334L114.016 240.613L126.244 238.695L135.033 238.951L142.166 237.928L145.223 235.754L147.643 230.511L144.458 226.93L141.274 226.674L137.707 227.569H137.58L133.377 226.674L124.079 229.488L114.271 234.603H114.143L101.151 236.649ZM143.185 238.056L148.152 239.334L147.643 231.917L145.732 236.01L145.605 236.137L143.185 238.056Z" fill="white" fill-opacity="0.71"/>
<path d="M134.268 253.913L122.932 253.018L122.55 252.378L123.187 251.483L104.463 240.102L100.132 236.649L100.26 235.882L111.851 230.639L123.06 226.674L122.805 221.559V221.303L125.352 215.932L126.244 212.48L126.371 212.352L129.046 209.283L129.301 209.155L132.995 208.26L133.504 208.771L133.249 211.584L133.759 213.631V213.886L132.103 218.106L131.466 223.477L135.542 223.861L140.255 223.605H140.51L143.949 225.523L143.057 221.048L142.166 214.909L142.293 211.201H143.185L143.057 214.909L143.949 220.92L144.968 226.291L144.331 226.802L140.128 224.5L135.542 224.756L132.103 224.373L133.504 225.907L133.632 226.291L132.613 234.475L130.957 238.695L134.651 238.823L137.071 234.347L137.325 234.091L140.764 233.452H141.019L145.477 235.37L145.605 235.498L148.789 239.59V240.23L143.694 245.217L143.439 245.345L135.67 246.368L127.645 245.984H127.39V246.112L124.333 251.1L134.268 253.146V253.913ZM123.696 252.25L127.518 252.506L123.951 251.739L123.696 252.25ZM107.902 241.125L123.696 250.716L126.753 245.729L113.889 242.915L107.902 241.125ZM127.9 245.089L135.797 245.473L143.312 244.45L148.025 239.846L145.095 236.137L140.764 234.347L137.707 234.987L135.287 239.59L134.905 239.846L130.32 239.59L129.938 238.951L131.848 234.219L132.74 226.419L130.957 224.373L123.951 227.314L124.206 231.022L124.715 235.754V235.882L123.696 238.951L125.989 238.567L126.499 238.951L127.39 244.961L127.9 245.089ZM104.973 239.335L114.016 242.148L126.626 244.833L125.862 239.59L123.314 239.974L122.805 239.462L123.951 235.754L123.442 231.15L123.187 227.57L112.233 231.406L101.279 236.393L104.973 239.335ZM123.569 221.559L123.824 226.291L130.575 223.477L131.211 217.851L132.867 213.631L132.358 211.584V211.457L132.485 209.155L129.428 209.794L126.881 212.735L125.862 216.188L123.569 221.559Z" fill="white" fill-opacity="0.71"/>
<path d="M120.003 254.169L119.875 253.273L121.913 252.506L111.723 247.519L111.596 246.879L112.997 244.45L113.507 242.276L113.634 240.741L114.398 238.311L113.634 234.219L111.723 231.15V230.894L112.36 223.477L112.488 223.222L116.818 216.7L121.276 212.352L121.913 212.991L117.455 217.211L113.252 223.477L112.615 230.639L114.526 233.58V233.708L115.417 238.056V238.311L114.526 240.869L114.398 242.404L113.761 244.833L112.488 246.879L123.187 251.995V252.762L122.55 253.018H130.192L134.141 252.762L135.542 245.601L134.651 238.951V238.695L137.198 234.091V226.802L135.287 224.117L135.16 223.861V218.106V217.978L136.816 213.375L136.434 210.945L136.816 207.492L137.58 207.364L139.109 211.201V211.457L138.854 213.758L139.109 217.723L140.637 223.477L141.529 225.651V225.779L141.274 233.58L140 237.416L142.166 237.288L142.675 237.672L143.949 244.45L143.694 248.798L143.439 249.181L134.396 253.529V253.401L134.268 253.529L129.938 253.785L120.003 254.169ZM135.415 239.334L136.306 245.856V245.984L135.033 252.634L143.057 248.798L143.312 244.833L142.166 238.567L139.745 238.695L139.363 238.184L140.892 233.708L141.147 226.163L140.255 223.989L138.727 218.106L138.472 214.014L138.727 211.712L137.835 209.538L137.58 211.201L137.962 213.503V213.758L136.306 218.362V223.989L138.217 226.674L138.344 226.93V234.475V234.731L135.415 239.334Z" fill="white" fill-opacity="0.71"/>
<path d="M104.845 240.102L104.591 239.334L114.271 235.498L133.122 225.779H133.377L137.708 226.674L138.09 227.058V234.603L137.58 234.987L132.358 234.731L124.461 236.265L114.908 238.951L104.845 240.102ZM133.25 226.674L114.526 236.265L108.03 238.951L114.78 238.056L124.333 235.37L132.358 233.836L137.198 234.091V227.314L133.25 226.674Z" fill="white" fill-opacity="0.71"/>
<path d="M65.2325 344.068H64.9777L41.541 331.153L20.7791 321.945L1.03625 313.633L-14.6307 306.727L-14.7581 306.088L-2.53021 288.057L3.71109 272.967L7.65967 257.238L9.06078 237.288L6.51331 222.199L1.41837 211.073L1.54574 210.561L4.98483 206.981L5.74906 207.109L17.34 241.381L30.969 256.215L47.6549 267.34L69.8179 274.246L92.8725 280.256L93.1272 280.896L90.4524 285.244L101.789 283.325L102.298 283.709L102.043 290.742L109.813 284.22L110.577 284.604L109.686 294.835L111.087 313.761V314.017L105.865 323.224L94.1462 339.848L93.8915 339.976L65.2325 344.068ZM-13.8664 306.216L1.41837 312.866L21.1613 321.178L42.0505 330.385L65.3598 343.173L93.8915 339.209L105.482 322.712L110.577 313.633L109.176 294.835V294.707L109.941 285.371L102.171 291.893L101.407 291.51L101.661 283.965L89.9429 285.883L89.5608 285.244L92.363 280.64L69.5631 275.013L47.2728 268.108H47.1454L30.3321 256.982L30.2048 256.854L16.4484 241.892L16.3211 241.764L4.85745 208.132L2.18261 210.945L7.27755 221.943L9.82501 237.161V237.288L8.42391 257.494L4.47533 273.351L-1.89334 288.568L-13.8664 306.216Z" fill="white" fill-opacity="0.71"/>
<path d="M64.9775 344.068L41.5407 331.153L41.286 330.769L44.8525 308.262L46.1262 292.533L46.2536 277.315L47.0178 267.98L30.9688 257.366L29.1855 270.282L24.8548 299.95L21.2884 321.689L20.7789 322.073L1.036 313.761L0.78125 313.121L8.04154 292.405L12.1175 277.699L14.4102 263.248L16.5756 233.836L17.3398 233.964L15.3018 263.376L12.8817 277.954L8.80577 292.661L1.80024 313.121L20.5241 321.05L24.0906 299.822L28.2939 270.154L30.2045 256.47L30.8414 256.215L47.6547 267.34L47.9094 267.724L47.1452 277.315L46.8904 292.661L45.6167 308.39L42.1776 330.513L64.7227 343.045L67.2702 310.436L67.5249 294.707L67.907 281.407L69.3082 274.502L70.964 270.921L71.4735 270.665L92.9996 280.256L93.2543 280.896L90.07 286.011L87.3952 295.346L83.3192 310.308L76.8232 341.767L93.6365 339.337L97.4577 306.216L101.279 291.765L101.406 291.51L109.94 284.348L110.705 284.732L106.501 302.379L106.119 323.096H105.227L105.61 302.252V302.124L109.558 285.755L102.043 292.021L98.3493 306.472L94.4007 339.721L94.0186 340.104L76.3137 342.662L75.8042 342.15L82.555 310.18L86.6309 295.09L89.3058 285.627L92.2354 280.896L71.6009 271.688L70.0724 274.757L68.7987 281.535L68.4165 294.835L68.1618 310.436L65.6143 343.685L64.9775 344.068Z" fill="white" fill-opacity="0.71"/>
<path d="M30.8989 247.261L30.0073 247.274L30.1504 256.609L31.042 256.595L30.8989 247.261Z" fill="white" fill-opacity="0.71"/>
<path d="M48.5222 262.202L47.0942 267.643L47.9564 267.871L49.3844 262.43L48.5222 262.202Z" fill="white" fill-opacity="0.71"/>
<path d="M67.7798 310.82H67.6524L45.2347 308.773L45.1073 308.646L24.3455 300.333L8.16903 293.044L-2.40297 288.824L-2.65771 288.185L3.71096 272.967L4.22045 272.839L12.6271 277.443L26.7656 284.732L46.6358 292.149L68.0345 294.323L86.8858 294.707L101.279 291.51L101.534 284.348L89.8154 286.267H89.5606L68.2893 281.791L46.6358 277.699L28.5488 270.665L14.6651 263.76H14.5377L7.78691 257.749L8.2964 257.11L15.0472 262.992L28.9309 269.898L46.8906 276.931L68.4167 281.023L89.688 285.371L101.916 283.325L102.425 283.837L102.171 291.893L101.788 292.277L87.1406 295.602H87.0132L67.9072 295.218L46.5084 293.044H46.3811L26.3834 285.499L12.245 278.21L4.22045 273.734L-1.63873 288.185L8.55115 292.149L24.6002 299.566L45.3621 307.878L67.7798 310.052L82.8099 309.797L97.7126 305.96L105.737 301.996L109.049 294.835L109.813 295.09L106.374 302.507L106.247 302.635L97.9673 306.727L83.0646 310.692H82.9372L67.7798 310.82Z" fill="white" fill-opacity="0.71"/>
</g>
<defs>
<linearGradient id="paint0_linear" x1="211.027" y1="-4.35657e-05" x2="-138.736" y2="83.2145" gradientUnits="userSpaceOnUse">
<stop stop-color="#69C9CA"/>
<stop offset="1" stop-color="#21205F"/>
</linearGradient>
</defs>
</svg>
