<svg width="28" height="28" viewBox="0 0 28 28" fill="none" xmlns="http://www.w3.org/2000/svg">
<path d="M20.2727 0H7.72678C3.46623 0 0 3.4664 0 7.72694V20.2729C0 24.5336 3.46623 27.9998 7.72678 27.9998H20.2727C24.5336 27.9998 27.9998 24.5334 27.9998 20.2729V7.72694C28 3.4664 24.5336 0 20.2727 0ZM25.5157 20.2729C25.5157 23.1638 23.1638 25.5156 20.2729 25.5156H7.72678C4.83607 25.5157 2.48428 23.1638 2.48428 20.2729V7.72694C2.48428 4.83623 4.83607 2.48428 7.72678 2.48428H20.2727C23.1636 2.48428 25.5156 4.83623 25.5156 7.72694V20.2729H25.5157Z" fill="white"/>
<path d="M13.9999 6.78516C10.0216 6.78516 6.78506 10.0217 6.78506 14C6.78506 17.9782 10.0216 21.2145 13.9999 21.2145C17.9782 21.2145 21.2148 17.9782 21.2148 14C21.2148 10.0217 17.9782 6.78516 13.9999 6.78516ZM13.9999 18.7301C11.3916 18.7301 9.26935 16.6082 9.26935 13.9998C9.26935 11.3913 11.3914 9.26927 13.9999 9.26927C16.6084 9.26927 18.7305 11.3913 18.7305 13.9998C18.7305 16.6082 16.6082 18.7301 13.9999 18.7301Z" fill="white"/>
<path d="M21.5173 4.67871C21.0387 4.67871 20.5685 4.87248 20.2305 5.212C19.8908 5.54987 19.6955 6.02022 19.6955 6.50052C19.6955 6.97932 19.891 7.44951 20.2305 7.78903C20.5684 8.12689 21.0387 8.32232 21.5173 8.32232C21.9976 8.32232 22.4663 8.12689 22.8059 7.78903C23.1454 7.44951 23.3392 6.97915 23.3392 6.50052C23.3392 6.02022 23.1454 5.54987 22.8059 5.212C22.468 4.87248 21.9976 4.67871 21.5173 4.67871Z" fill="white"/>
</svg>
