<svg width="162" height="150" viewBox="0 0 162 150" fill="none" xmlns="http://www.w3.org/2000/svg">
<g filter="url(#filter0_d)">
<path d="M33.0069 68.358C43.993 59.6794 47.5508 62.2522 57.8779 53.9962C67.7504 46.1013 65.6274 42.8515 77.3434 32.1868C84.6508 25.5352 91.3159 19.6141 101.672 17.2916C105.756 16.3765 116.137 14.054 124.921 19.4212C136.858 26.7129 137.584 43.1469 137.901 50.2704C138.756 69.6506 129.217 84.0863 125.463 89.634C109.868 112.695 82.97 125.534 58.4201 125.805C51.0877 125.887 40.5228 125.859 30.8464 118.891C23.101 113.315 14.413 102.207 16.2482 90.1675C17.7289 80.426 25.4451 74.3407 33.0069 68.358Z" fill="url(#paint0_linear)"/>
</g>
<path d="M136.933 44.8458L99.3949 30.7712C98.9585 30.608 98.4741 30.622 98.0482 30.8101C97.6223 30.9983 97.2898 31.3452 97.1239 31.7745C96.9579 32.2038 96.9722 32.6804 97.1634 33.0994C97.3547 33.5184 97.7073 33.8455 98.1436 34.0088L131.348 46.4625L108.362 55.0796L79.4539 42.1991C79.0314 42.0293 78.5584 42.0271 78.1343 42.1931C77.7103 42.3591 77.3681 42.6804 77.1797 43.0893C76.9912 43.4983 76.9712 43.9632 77.1239 44.3864C77.2765 44.8096 77.5899 45.1581 77.9983 45.3587L103.72 56.8194L78.7282 66.1915L26.1165 46.4625L78.7407 26.7417L91.708 31.6083C92.139 31.7467 92.6076 31.7165 93.0167 31.524C93.4257 31.3314 93.7436 30.9914 93.9046 30.5744C94.0656 30.1574 94.0572 29.6954 93.8811 29.2843C93.7051 28.8733 93.375 28.5446 92.9592 28.3666L79.3621 23.2662C78.9591 23.1154 78.5139 23.1154 78.1109 23.2662L20.5526 44.8622C20.2189 44.9864 19.9317 45.2076 19.729 45.4965C19.5263 45.7853 19.4179 46.128 19.4181 46.4789V54.3984C19.4182 54.7498 19.5267 55.0929 19.7293 55.3823C19.9319 55.6717 20.2189 55.8938 20.5526 56.0193L38.5291 62.7611V68.7684C38.5175 69.0032 38.5545 69.2378 38.6378 69.4581C38.7211 69.6784 38.849 69.8798 39.0138 70.05C39.1786 70.2201 39.3768 70.3556 39.5964 70.4482C39.816 70.5408 40.0524 70.5885 40.2913 70.5885C40.5302 70.5885 40.7666 70.5408 40.9862 70.4482C41.2058 70.3556 41.404 70.2201 41.5688 70.05C41.7336 69.8798 41.8615 69.6784 41.9448 69.4581C42.0282 69.2378 42.0651 69.0032 42.0535 68.7684V64.0824L78.1192 77.6235C78.3206 77.6979 78.5338 77.7368 78.749 77.7384C78.9629 77.7372 79.1748 77.6983 79.3746 77.6235L106.54 67.3979V94.8577C96.3771 100.125 84.8859 102.396 73.4441 101.399C62.0023 100.402 51.0958 96.1789 42.0327 89.2361V75.6949C42.0106 75.2497 41.8154 74.8299 41.4873 74.5225C41.1592 74.2151 40.7235 74.0436 40.2705 74.0436C39.8174 74.0436 39.3817 74.2151 39.0536 74.5225C38.7256 74.8299 38.5303 75.2497 38.5083 75.6949V90.0567C38.5081 90.316 38.5672 90.5719 38.6813 90.8056C38.7954 91.0393 38.9615 91.2448 39.1673 91.4067C48.5324 98.7933 59.8417 103.404 71.7725 104.7C83.7032 105.995 95.7624 103.922 106.54 98.723V105.74C104.974 106.16 103.617 107.124 102.72 108.455C101.823 109.785 101.447 111.39 101.663 112.972C101.878 114.554 102.67 116.006 103.891 117.057C105.112 118.108 106.679 118.688 108.302 118.688C109.924 118.688 111.492 118.108 112.713 117.057C113.934 116.006 114.726 114.554 114.941 112.972C115.156 111.39 114.781 109.785 113.884 108.455C112.987 107.124 111.629 106.16 110.064 105.74V96.9094C112.948 95.2977 115.697 93.4632 118.285 91.4232C118.491 91.2614 118.658 91.0561 118.773 90.8224C118.887 90.5887 118.947 90.3327 118.948 90.0731V62.7447L136.92 56.0029C137.254 55.8774 137.541 55.6553 137.744 55.3659C137.946 55.0765 138.055 54.7334 138.055 54.382V46.4625C138.056 46.113 137.949 45.7714 137.749 45.4827C137.549 45.1941 137.264 44.972 136.933 44.8458V44.8458ZM111.486 112.092C111.486 112.71 111.3 113.314 110.951 113.827C110.602 114.341 110.106 114.741 109.526 114.977C108.946 115.213 108.307 115.275 107.692 115.154C107.076 115.033 106.51 114.736 106.066 114.298C105.623 113.861 105.321 113.305 105.199 112.699C105.077 112.093 105.14 111.465 105.381 110.894C105.622 110.323 106.029 109.836 106.552 109.493C107.074 109.151 107.689 108.968 108.316 108.969C109.158 108.97 109.964 109.3 110.558 109.885C111.152 110.471 111.486 111.264 111.486 112.092V112.092ZM22.9342 48.982L76.9764 69.2526V73.4586L22.9342 53.1879V48.982ZM80.4924 73.4586V69.2526L106.54 59.4784V63.6721L80.4924 73.4586ZM115.428 89.2155C113.71 90.526 111.921 91.7438 110.068 92.8634V66.0766L115.428 64.066V89.2155ZM110.068 62.3631V58.1571L134.535 48.982V53.1879L110.068 62.3631Z" fill="#43535B"/>
<defs>
<filter id="filter0_d" x="0" y="0" width="161.955" height="149.82" filterUnits="userSpaceOnUse" color-interpolation-filters="sRGB">
<feFlood flood-opacity="0" result="BackgroundImageFix"/>
<feColorMatrix in="SourceAlpha" type="matrix" values="0 0 0 0 0 0 0 0 0 0 0 0 0 0 0 0 0 0 127 0"/>
<feOffset dx="4" dy="4"/>
<feGaussianBlur stdDeviation="10"/>
<feColorMatrix type="matrix" values="0 0 0 0 0.992157 0 0 0 0 0.32549 0 0 0 0 0.2 0 0 0 0.5 0"/>
<feBlend mode="normal" in2="BackgroundImageFix" result="effect1_dropShadow"/>
<feBlend mode="normal" in="SourceGraphic" in2="effect1_dropShadow" result="shape"/>
</filter>
<linearGradient id="paint0_linear" x1="15.998" y1="70.9103" x2="137.955" y2="70.9103" gradientUnits="userSpaceOnUse">
<stop stop-color="#F4962C" stop-opacity="0.94"/>
<stop offset="0.3" stop-color="#F7812E" stop-opacity="0.9"/>
<stop offset="1" stop-color="#FD5333" stop-opacity="0.94"/>
</linearGradient>
</defs>
</svg>
