<svg width="178" height="141" viewBox="0 0 178 141" fill="none" xmlns="http://www.w3.org/2000/svg">
<g filter="url(#filter0_d)">
<path d="M20.0315 85.7783C13.9609 72.0112 16.0912 59.5896 17.8131 49.5465C19.7672 38.15 22.9868 34.5661 24.8368 32.9083C30.6272 27.7025 38.2796 27.7025 40.3658 27.7306C59.2546 27.9668 63.7275 48.173 79.9293 47.6965C90.9934 47.3721 101.089 37.5854 102.482 36.2359C107.532 31.3425 108.829 27.4022 115.793 22.5569C119.873 19.7178 124.25 16.6704 129.84 16.6384C141.193 16.5783 148.857 28.9799 149.438 29.949C158.88 45.7063 149.353 66.337 147.568 70.2052C130.749 106.645 74.2631 128.357 41.8515 109.813C35.6807 106.285 25.6897 98.6164 20.0315 85.7783Z" fill="url(#paint0_linear)"/>
</g>
<path d="M26.0101 78.4943V14.2278L24.2081 16.0297H145.053L143.251 14.2278C143.251 44.1272 143.251 74.0147 143.251 103.89L145.053 102.088H100.796C98.4777 102.088 98.4736 105.692 100.796 105.692H145.049C145.525 105.686 145.979 105.494 146.316 105.157C146.653 104.821 146.845 104.366 146.851 103.89C146.851 74.004 146.851 44.1166 146.851 14.2278C146.844 13.7521 146.651 13.2979 146.315 12.9616C145.979 12.6252 145.524 12.433 145.049 12.4258H24.2161C23.7405 12.433 23.2863 12.6252 22.9499 12.9616C22.6136 13.2979 22.4214 13.7521 22.4142 14.2278V78.4943C22.4142 80.8128 26.0181 80.8168 26.0181 78.4943H26.0101Z" fill="#43535B"/>
<path d="M69.626 3.60395H100.608C102.927 3.60395 102.931 0 100.608 0H69.626C67.3074 0 67.3034 3.60395 69.626 3.60395Z" fill="#43535B"/>
<path d="M100.7 39.4074H131.101C133.42 39.4074 133.424 35.8035 131.101 35.8035H100.7C98.3815 35.8035 98.3775 39.4074 100.7 39.4074Z" fill="#43535B"/>
<path d="M95.8908 51.9172H102.626C104.945 51.9172 104.949 48.3132 102.626 48.3132H95.8908C93.5723 48.3132 93.5683 51.9172 95.8908 51.9172Z" fill="#43535B"/>
<path d="M114.94 51.3364H131.87C134.189 51.3364 134.193 47.7324 131.87 47.7324H114.94C112.617 47.7324 112.613 51.3364 114.94 51.3364Z" fill="#43535B"/>
<path d="M67.9281 50.0912C67.9297 52.4376 67.2077 54.7275 65.8606 56.6487C64.5134 58.5699 62.6066 60.029 60.4001 60.8272C58.1935 61.6253 55.7945 61.7236 53.5301 61.1087C51.2656 60.4939 49.2458 59.1957 47.7459 57.3912C41.0506 49.4304 48.2865 37.0128 58.5018 38.8508C61.1311 39.3438 63.5081 40.7338 65.2271 42.7836C66.9461 44.8334 67.9007 47.4161 67.9281 50.0912C67.9761 52.4057 71.5801 52.4137 71.5321 50.0912C71.5341 47.0109 70.5883 44.0046 68.8231 41.4803C67.0579 38.956 64.5587 37.0359 61.6648 35.9808C58.7709 34.9256 55.6224 34.7865 52.6466 35.5821C49.6709 36.3778 47.012 38.0699 45.031 40.4286C43.0416 42.791 41.8297 45.7097 41.5607 48.7865C41.2917 51.8632 41.9787 54.948 43.5279 57.6198C45.0771 60.2916 47.4131 62.4202 50.2169 63.7152C53.0208 65.0101 56.156 65.4083 59.1945 64.8554C66.3544 63.606 71.3839 57.247 71.5321 50.0872C71.5801 47.7606 67.9761 47.7646 67.9281 50.0912Z" fill="#43535B"/>
<path d="M35.929 97.5672L36.001 87.5562C36.001 86.459 35.8569 85.2777 36.2293 84.2405C36.6559 83.1724 37.2434 82.1758 37.9712 81.2853C40.9625 77.4651 45.6196 76.1757 50.0965 76.5601C53.228 76.8284 56.4555 76.6242 59.599 76.6242C62.9947 76.6242 66.4064 76.7003 69.7941 76.6242C72.8375 76.5521 75.9689 79.5714 77.6588 81.8299C80.9904 86.2347 82.1517 92.2413 81.2147 97.6713C80.9224 99.3451 82.8685 100.807 84.226 99.4252C91.199 92.3054 98.1733 85.1869 105.149 78.0698C106.775 76.4119 104.228 73.8611 102.602 75.519L81.6712 96.8464L84.6825 98.6003C86.3884 88.7735 82.2518 76.9045 72.1968 73.3286C69.618 72.4156 66.2302 73.0082 63.5153 73.0082C59.4668 73.0082 55.4064 73.0803 51.3579 73.0082C49.2556 72.9682 47.2734 72.7399 45.1591 73.0923C41.9643 73.6349 39.0058 75.1232 36.6658 77.365C34.9159 79.0388 33.0258 81.5576 32.4812 83.9803C32.0167 86.0305 32.3851 88.5212 32.3731 90.6275C32.3544 92.9421 32.337 95.2553 32.321 97.5672C32.321 99.8857 35.925 99.8897 35.925 97.5672H35.929Z" fill="#43535B"/>
<defs>
<filter id="filter0_d" x="0" y="0.638184" width="177.55" height="139.934" filterUnits="userSpaceOnUse" color-interpolation-filters="sRGB">
<feFlood flood-opacity="0" result="BackgroundImageFix"/>
<feColorMatrix in="SourceAlpha" type="matrix" values="0 0 0 0 0 0 0 0 0 0 0 0 0 0 0 0 0 0 127 0"/>
<feOffset dx="4" dy="4"/>
<feGaussianBlur stdDeviation="10"/>
<feColorMatrix type="matrix" values="0 0 0 0 0.964706 0 0 0 0 0.576471 0 0 0 0 0.247059 0 0 0 0.5 0"/>
<feBlend mode="normal" in2="BackgroundImageFix" result="effect1_dropShadow"/>
<feBlend mode="normal" in="SourceGraphic" in2="effect1_dropShadow" result="shape"/>
</filter>
<linearGradient id="paint0_linear" x1="83.0968" y1="114.738" x2="85.7356" y2="22.2926" gradientUnits="userSpaceOnUse">
<stop stop-color="#F4822C"/>
<stop offset="0.64" stop-color="#FAB431"/>
<stop offset="1" stop-color="#FDCA33"/>
</linearGradient>
</defs>
</svg>
