<svg width="185" height="151" viewBox="0 0 185 151" fill="none" xmlns="http://www.w3.org/2000/svg">
<g filter="url(#filter0_d)">
<path d="M154.168 70.1028C154.84 71.9321 159.49 77.932 157.99 92.9322C156.743 105.396 151.99 115.295 127.49 117.932C120.49 117.795 116.163 115.939 113.663 114.874C86.6625 103.374 86.9897 109.295 87.9897 107.795C82.9897 108.795 79.6147 110.295 77.4897 111.295C68.9897 115.295 70.6963 115.488 65.1625 119.374C65.6625 119.023 60.338 123.247 48.9895 122.932C37.6412 122.618 22.9897 107.795 19.4891 98.932C12.3256 80.7955 24.7371 43.011 26.6625 38.8735C44.7946 -0.10289 101.513 22.0895 133.233 43.2948C139.272 47.329 145.99 55.7949 154.168 70.1028Z" fill="url(#paint0_linear)"/>
</g>
<path d="M31.1721 92.5905V22.8201L29.3701 24.7764H150.215L148.413 22.8201C148.413 55.2802 148.413 87.7273 148.413 120.161L150.215 118.205H105.958C103.64 118.205 103.636 122.118 105.958 122.118H150.211C150.687 122.111 151.141 121.903 151.478 121.537C151.815 121.172 152.007 120.678 152.013 120.161C152.013 87.7157 152.013 55.2686 152.013 22.8201C152.006 22.3037 151.813 21.8106 151.477 21.4454C151.141 21.0803 150.686 20.8716 150.211 20.8638H29.3781C28.9025 20.8716 28.4483 21.0803 28.112 21.4454C27.7756 21.8106 27.5834 22.3037 27.5762 22.8201V92.5905C27.5762 95.1076 31.1801 95.112 31.1801 92.5905H31.1721Z" fill="#43535B"/>
<path d="M74.788 11.2861H105.77C108.089 11.2861 108.093 7.37354 105.77 7.37354H74.788C72.4694 7.37354 72.4654 11.2861 74.788 11.2861Z" fill="#43535B"/>
<path d="M105.862 50.1558H136.263C138.582 50.1558 138.586 46.2432 136.263 46.2432H105.862C103.544 46.2432 103.54 50.1558 105.862 50.1558Z" fill="#43535B"/>
<path d="M101.053 63.7373H107.788C110.107 63.7373 110.111 59.8247 107.788 59.8247H101.053C98.7342 59.8247 98.7302 63.7373 101.053 63.7373Z" fill="#43535B"/>
<path d="M120.102 63.1069H137.032C139.351 63.1069 139.355 59.1938 137.032 59.1938H120.102C117.779 59.1938 117.775 63.1069 120.102 63.1069Z" fill="#43535B"/>
<path d="M73.0901 61.7547C73.0916 64.3021 72.3697 66.788 71.0225 68.8738C69.6754 70.9595 67.7686 72.5436 65.562 73.41C63.3555 74.2765 60.9565 74.3832 58.692 73.7157C56.4276 73.0482 54.4078 71.6389 52.9079 69.6798C46.2126 61.0374 53.4485 47.5564 63.6637 49.5518C66.2931 50.087 68.67 51.596 70.389 53.8213C72.108 56.0467 73.0626 58.8505 73.0901 61.7547C73.1381 64.2674 76.7421 64.2761 76.694 61.7547C76.6961 58.4106 75.7503 55.1469 73.9851 52.4064C72.2198 49.6659 69.7206 47.5815 66.8267 46.436C63.9328 45.2905 60.7843 45.1394 57.8086 46.0032C54.8328 46.867 52.174 48.704 50.1929 51.2646C48.2036 53.8294 46.9917 56.9981 46.7227 60.3382C46.4537 63.6784 47.1407 67.0274 48.6899 69.928C50.2391 72.8286 52.575 75.1395 55.3789 76.5453C58.1828 77.9512 61.3179 78.3835 64.3565 77.7832C71.5163 76.4268 76.5458 69.5233 76.694 61.7503C76.7421 59.2245 73.1381 59.2289 73.0901 61.7547Z" fill="#43535B"/>
<path d="M41.0909 113.297L41.163 102.429C41.163 101.238 41.0188 99.9551 41.3913 98.8291C41.8179 97.6696 42.4053 96.5876 43.1332 95.6208C46.1245 91.4735 50.7816 90.0737 55.2585 90.491C58.3899 90.7823 61.6175 90.5606 64.7609 90.5606C68.1566 90.5606 71.5684 90.6432 74.9561 90.5606C77.9995 90.4823 81.1309 93.7602 82.8208 96.2121C86.1524 100.994 87.3137 107.515 86.3767 113.41C86.0843 115.227 88.0305 116.814 89.388 115.314C96.361 107.585 103.335 99.8565 110.311 92.13C111.937 90.3302 109.39 87.561 107.764 89.3607L86.8332 112.514L89.8445 114.419C91.5503 103.75 87.4138 90.8649 77.3588 86.9828C74.7799 85.9916 71.3922 86.635 68.6772 86.635C64.6288 86.635 60.5683 86.7132 56.5199 86.635C54.4176 86.5915 52.4354 86.3437 50.3211 86.7263C47.1263 87.3153 44.1677 88.9311 41.8277 91.3648C40.0778 93.182 38.1877 95.9165 37.6431 98.5466C37.1786 100.772 37.547 103.476 37.535 105.763C37.5163 108.276 37.499 110.787 37.483 113.297C37.483 115.814 41.0869 115.818 41.0869 113.297H41.0909Z" fill="#43535B"/>
<defs>
<filter id="filter0_d" x="3.05176e-05" y="0" width="184.541" height="150.546" filterUnits="userSpaceOnUse" color-interpolation-filters="sRGB">
<feFlood flood-opacity="0" result="BackgroundImageFix"/>
<feColorMatrix in="SourceAlpha" type="matrix" values="0 0 0 0 0 0 0 0 0 0 0 0 0 0 0 0 0 0 127 0"/>
<feOffset dx="4" dy="4"/>
<feGaussianBlur stdDeviation="10"/>
<feColorMatrix type="matrix" values="0 0 0 0 0.364706 0 0 0 0 0.552941 0 0 0 0 0.701961 0 0 0 0.5 0"/>
<feBlend mode="normal" in2="BackgroundImageFix" result="effect1_dropShadow"/>
<feBlend mode="normal" in="SourceGraphic" in2="effect1_dropShadow" result="shape"/>
</filter>
<linearGradient id="paint0_linear" x1="57.3294" y1="25.2709" x2="117.435" y2="135.151" gradientUnits="userSpaceOnUse">
<stop offset="0.322917" stop-color="#70C0C5"/>
<stop offset="0.973958" stop-color="#436B9F"/>
</linearGradient>
</defs>
</svg>
