<svg width="177" height="152" viewBox="0 0 177 152" fill="none" xmlns="http://www.w3.org/2000/svg">
<g filter="url(#filter0_d)">
<path d="M151.185 68.1628C154.715 52.1695 148.428 38.5403 147.504 36.6125C145.56 32.5468 142.812 26.7992 136.465 22.4161C129.369 17.5174 118.48 14.8042 109.647 19.0009C105.589 20.9247 102.904 24.4034 97.5527 31.3568C89.2744 42.0983 90.282 44.8432 84.4074 50.5472C82.3845 52.5305 75.4191 59.1031 65.2131 60.8008C54.8405 62.5302 51.9171 57.4054 42.0799 58.4209C33.0956 59.357 23.3061 64.9062 18.9428 72.6173C10.9501 86.7344 20.2756 109.618 34.4522 120.216C61.6551 140.525 107.041 115.821 125.684 101.811C134.739 95.0087 147.429 85.1755 151.185 68.1628Z" fill="url(#paint0_linear)"/>
</g>
<path d="M65.1456 18.9691C65.1461 21.2756 65.6787 23.5509 66.7021 25.618C67.7254 27.6852 69.2118 29.4883 71.0458 30.8872C72.8797 32.2861 75.0116 33.2431 77.2757 33.6836C79.5397 34.1241 81.8749 34.0364 84.0996 33.4271C86.3242 32.8179 88.3783 31.7037 90.102 30.1711C91.8258 28.6385 93.1727 26.7288 94.038 24.5907C94.9033 22.4527 95.2636 20.1438 95.091 17.8437C94.9184 15.5436 94.2174 13.3144 93.0427 11.3294C91.4475 8.68606 89.0836 6.59257 86.2667 5.32876C83.4499 4.06495 80.3145 3.69102 77.2794 4.25697C70.2149 5.55405 65.2884 11.9204 65.1456 18.9691C65.106 21.0118 68.2792 21.0118 68.3189 18.9691C68.4181 14.0624 71.389 9.55237 76.0776 7.8626C78.3618 7.04633 80.8403 6.9442 83.1839 7.56978C85.5275 8.19537 87.6254 9.51907 89.199 11.3651C96.2239 19.6949 88.5525 32.7093 77.8585 30.5713C75.1868 30.0125 72.7862 28.5574 71.0548 26.4472C69.3233 24.3371 68.365 21.6985 68.3387 18.9691C68.2792 16.9302 65.106 16.9223 65.1456 18.9691Z" fill="#43535B"/>
<path d="M101.257 22.3645C101.384 27.172 104.221 31.4877 108.774 33.2171C111.024 34.0475 113.476 34.1656 115.795 33.5554C118.115 32.9451 120.191 31.6361 121.741 29.8059C128.536 21.6466 121.245 9.13199 110.809 10.9566C105.256 11.9284 101.404 16.8272 101.257 22.3645C101.202 24.4073 104.375 24.4073 104.431 22.3645C104.554 17.7712 108.167 13.9395 112.852 13.9395C115.086 13.9395 117.229 14.8271 118.809 16.4071C120.389 17.9871 121.277 20.1301 121.277 22.3645C121.277 24.599 120.389 26.7419 118.809 28.3219C117.229 29.9019 115.086 30.7896 112.852 30.7896C108.167 30.7896 104.554 26.9578 104.431 22.3645C104.375 20.3336 101.202 20.3336 101.257 22.3645Z" fill="#43535B"/>
<path d="M35.8325 22.3645C35.9634 27.172 38.7995 31.4877 43.3691 33.2171C45.6193 34.0475 48.0705 34.1656 50.3901 33.5554C52.7098 32.9451 54.7856 31.6361 56.3358 29.8059C63.1306 21.6466 55.84 9.13199 45.3999 10.9566C39.8467 11.9284 35.9991 16.8272 35.8484 22.3645C35.7968 24.4073 38.9701 24.4073 39.0217 22.3645C39.1486 17.7712 42.7582 13.9395 47.4467 13.9395C49.6812 13.9395 51.8241 14.8271 53.4041 16.4071C54.9841 17.9871 55.8717 20.1301 55.8717 22.3645C55.8717 24.599 54.9841 26.7419 53.4041 28.3219C51.8241 29.9019 49.6812 30.7896 47.4467 30.7896C42.7384 30.7896 39.1288 26.9578 39.0058 22.3645C38.9503 20.3336 35.777 20.3336 35.8325 22.3645Z" fill="#43535B"/>
<path d="M102.844 92.4144H122.058C122.477 92.4082 122.877 92.2391 123.173 91.9429C123.47 91.6466 123.639 91.2466 123.645 90.8277V69.0631L122.852 70.4355L130.539 66.5482C130.78 66.4091 130.98 66.2091 131.119 65.9682C131.258 65.7273 131.332 65.454 131.332 65.1758L131.38 56.1716C131.38 53.6132 131.895 50.4796 131.285 47.9965C130.448 44.5892 127.068 41.1303 123.431 40.9796C117.663 40.7376 111.828 40.9796 106.057 40.9796C101.789 40.9796 98.0683 42.4671 95.6329 46.1124C94.4944 47.818 97.2433 49.4086 98.3738 47.699C100.69 44.2322 104.224 44.1291 107.985 44.1291H121.868C123.657 44.1291 124.958 44.3988 126.318 45.684C128.024 47.2984 128.226 48.8374 128.214 51.0587C128.191 55.7552 128.166 60.4529 128.139 65.152L128.932 63.7835L121.245 67.6708C121.005 67.8096 120.805 68.009 120.666 68.2491C120.527 68.4892 120.453 68.7617 120.452 69.0393V90.8039L122.038 89.2173H102.844C100.801 89.2173 100.797 92.3906 102.844 92.3906V92.4144Z" fill="#43535B"/>
<path d="M57.2759 89.241H38.0618L39.6484 90.8277V69.063C39.6474 68.7854 39.5736 68.513 39.4344 68.2728C39.2952 68.0327 39.0955 67.8333 38.8551 67.6945L31.1718 63.8073L31.9651 65.1757L31.8937 52.2565C31.8937 50.3248 31.6636 48.6073 32.7545 46.9334C33.6311 45.5887 35.1542 44.3591 36.7766 44.1568C38.7599 43.9148 40.8899 44.1568 42.8693 44.1568H49.43C53.5632 44.1568 57.8828 43.4864 61.0085 46.7668C62.4166 48.2503 64.6617 46.0052 63.2496 44.5257C59.7907 40.8883 55.6377 40.9835 50.973 40.9835H42.4805C40.291 40.9835 37.5818 40.5472 35.4716 41.158C32.2626 42.0902 29.1925 45.1246 28.7284 48.524C28.3753 51.0983 28.7284 53.9662 28.7284 56.5682L28.776 65.1797C28.7763 65.4579 28.8497 65.7312 28.9889 65.9721C29.1282 66.213 29.3283 66.413 29.5693 66.5521L37.2565 70.4394L36.4632 69.067V90.8316C36.4684 91.2508 36.6372 91.6514 36.9336 91.9479C37.2301 92.2443 37.6307 92.4131 38.0499 92.4183H57.264C59.3068 92.4183 59.3108 89.245 57.264 89.245L57.2759 89.241Z" fill="#43535B"/>
<path d="M90.0321 102.767L68.9377 102.89L70.5244 104.477V77.9007C70.5133 77.4834 70.3426 77.0862 70.0474 76.791C69.7522 76.4958 69.3551 76.3251 68.9377 76.3141L59.882 75.374L61.4686 76.9607V56.2749C61.4686 53.6887 61.072 50.9121 62.1787 48.4924C62.7279 47.3177 63.5581 46.2964 64.5958 45.5188C65.6335 44.7412 66.8469 44.2312 68.1285 44.034C70.806 43.6373 73.7571 43.9745 76.4584 43.9745H87.1007C89.6592 43.9745 91.8329 44.5377 93.8836 46.1799C95.0425 47.112 95.9983 48.2716 96.692 49.5872C97.3544 50.8407 97.3822 51.9116 97.398 53.3277L97.6122 76.9448L98.7784 75.4177L90.0241 76.8734C89.3379 76.9884 88.8698 77.7619 88.8579 78.4045C88.7204 87.0569 88.5803 95.7068 88.4375 104.354C88.4058 106.397 91.579 106.401 91.6108 104.354C91.7509 95.7068 91.8911 87.0569 92.0312 78.4045L90.869 79.9356L99.6233 78.4759C99.9578 78.383 100.253 78.1829 100.463 77.9064C100.673 77.6298 100.786 77.292 100.785 76.9448C100.711 68.8106 100.637 60.6765 100.563 52.5423C100.512 46.9018 95.5853 42.1618 90.2304 40.9956C86.8984 40.2697 83.0112 40.8012 79.6118 40.8012C75.8872 40.8012 72.0317 40.5117 68.3229 40.825C65.8186 41.06 63.4687 42.1399 61.6593 43.8872C59.85 45.6346 58.6889 47.9454 58.3668 50.44C57.8828 54.4979 58.2874 58.8175 58.2874 62.9031V76.9448C58.2975 77.3624 58.4679 77.7602 58.7633 78.0556C59.0587 78.351 59.4564 78.5214 59.8741 78.5314L68.9298 79.4715L67.3432 77.8849V104.461C67.3493 104.88 67.5184 105.28 67.8147 105.576C68.1109 105.872 68.5109 106.042 68.9298 106.048L90.0241 105.925C92.0748 105.933 92.0788 102.759 90.0321 102.767Z" fill="#43535B"/>
<defs>
<filter id="filter0_d" x="0" y="0.930664" width="176.251" height="150.988" filterUnits="userSpaceOnUse" color-interpolation-filters="sRGB">
<feFlood flood-opacity="0" result="BackgroundImageFix"/>
<feColorMatrix in="SourceAlpha" type="matrix" values="0 0 0 0 0 0 0 0 0 0 0 0 0 0 0 0 0 0 127 0"/>
<feOffset dx="4" dy="4"/>
<feGaussianBlur stdDeviation="10"/>
<feColorMatrix type="matrix" values="0 0 0 0 0.584314 0 0 0 0 0.72549 0 0 0 0 0.176471 0 0 0 0.5 0"/>
<feBlend mode="normal" in2="BackgroundImageFix" result="effect1_dropShadow"/>
<feBlend mode="normal" in="SourceGraphic" in2="effect1_dropShadow" result="shape"/>
</filter>
<linearGradient id="paint0_linear" x1="36.0071" y1="136.602" x2="119.809" y2="29.1712" gradientUnits="userSpaceOnUse">
<stop stop-color="#629A4B"/>
<stop offset="1" stop-color="#C4CE15" stop-opacity="0.8"/>
</linearGradient>
</defs>
</svg>
