<svg width="198" height="155" viewBox="0 0 198 155" fill="none" xmlns="http://www.w3.org/2000/svg">
<g filter="url(#filter0_d)">
<path d="M18.6359 62.5466C19.6199 59.9723 25.3514 44.9419 39.3558 37.9887C52.9685 31.2266 66.0495 36.2399 76.8828 40.395C100.126 49.3069 96.2596 59.5806 114.545 65.1115C135.34 71.4212 147.096 60.1822 161.6 69.9848C163.563 71.3092 173.944 78.3231 174 92.1363C174.046 103.24 167.406 114.558 158.778 121.516C155.313 124.314 147.423 129.715 122.016 130.806C81.91 132.531 55.9811 121.013 50.716 118.578C37.0707 112.287 27.1515 107.53 21.0656 95.7692C18.9624 91.7213 12.3729 78.9713 18.6359 62.5466Z" fill="url(#paint0_linear)"/>
</g>
<path d="M145.357 16.1169H129.244V20.1369H145.357C146.965 20.1369 148.507 20.7756 149.644 21.9125C150.78 23.0495 151.419 24.5915 151.419 26.1994V76.565H38.6003V26.1994C38.6003 24.5915 39.239 23.0495 40.376 21.9125C41.5129 20.7756 43.0549 20.1369 44.6628 20.1369H60.7565V16.1169H44.6442C41.9722 16.1194 39.4105 17.1829 37.5225 19.0736C35.6344 20.9643 34.5745 23.5274 34.5757 26.1994V86.6148C34.5782 89.2843 35.6398 91.8438 37.5274 93.7315C39.4151 95.6192 41.9746 96.6808 44.6442 96.6832H78.6176L77.1066 108.771H74.8588C73.7902 108.771 72.7654 109.195 72.0097 109.951C71.2541 110.707 70.8296 111.732 70.8296 112.8V116.829H66.8004V120.868H123.2V116.843H119.171V112.8C119.171 111.732 118.747 110.707 117.991 109.951C117.235 109.195 116.211 108.771 115.142 108.771H112.894L111.383 96.6832H145.357C148.027 96.6808 150.587 95.6193 152.475 93.7318C154.363 91.8443 155.426 89.2848 155.43 86.6148V26.1994C155.43 23.527 154.369 20.9639 152.48 19.0733C150.591 17.1828 148.029 16.1194 145.357 16.1169ZM115.142 116.848H74.8588V112.8H115.142V116.848ZM108.832 108.79H81.1685L82.6795 96.7019H107.321L108.832 108.79ZM145.357 92.6773H44.6255C43.0176 92.6773 41.4756 92.0386 40.3387 90.9016C39.2017 89.7647 38.563 88.2226 38.563 86.6148V80.5522H151.401V86.6148C151.396 88.2162 150.757 89.7506 149.625 90.883C148.493 92.0154 146.958 92.6537 145.357 92.6586V92.6773Z" fill="#43535B"/>
<path d="M141.327 84.6001H145.357V88.6293H141.327V84.6001Z" fill="#43535B"/>
<path d="M127.612 48.3417C127.965 48.3412 128.312 48.2479 128.617 48.0713C128.923 47.8947 129.176 47.6409 129.353 47.3353C129.53 47.0298 129.623 46.6832 129.624 46.3303C129.624 45.9774 129.532 45.6306 129.356 45.3245C128.173 43.2686 126.488 41.5453 124.46 40.3147C122.432 39.0841 120.126 38.3861 117.756 38.2856C115.385 38.1851 113.028 38.6853 110.903 39.7398C108.778 40.7943 106.954 42.3689 105.601 44.3172H84.391C83.0375 42.3707 81.2142 40.7977 79.0903 39.7442C76.9664 38.6907 74.6109 38.1907 72.2422 38.2907C69.8735 38.3907 67.5684 39.0875 65.5409 40.3163C63.5135 41.5451 61.8292 43.2662 60.6446 45.3198C60.4689 45.6259 60.3768 45.9728 60.3774 46.3257C60.3779 46.6786 60.4712 47.0251 60.6478 47.3307C60.8244 47.6362 61.0782 47.89 61.3837 48.0666C61.6892 48.2432 62.0358 48.3365 62.3887 48.3371H69.3839L70.727 52.3663L69.3839 56.3956H62.3887C62.0351 56.3957 61.6878 56.4888 61.3816 56.6657C61.0754 56.8426 60.8212 57.0969 60.6444 57.4031C60.4677 57.7094 60.3746 58.0567 60.3747 58.4103C60.3747 58.7639 60.4678 59.1113 60.6446 59.4175C61.8284 61.4717 63.512 63.1935 65.539 64.4232C67.566 65.6528 69.8709 66.3505 72.2396 66.4515C74.6083 66.5524 76.9641 66.0533 79.0885 65.0006C81.2128 63.9478 83.0367 62.3755 84.391 60.4295H105.591C106.945 62.3778 108.769 63.9523 110.894 65.0068C113.019 66.0613 115.376 66.5615 117.746 66.461C120.116 66.3605 122.423 65.6626 124.451 64.4319C126.479 63.2013 128.163 61.478 129.347 59.4222C129.524 59.1159 129.617 58.7686 129.617 58.415C129.617 58.0614 129.524 57.714 129.347 57.4078C129.17 57.1015 128.916 56.8472 128.61 56.6704C128.304 56.4935 127.956 56.4003 127.603 56.4002H120.608L119.26 52.371L120.608 48.3417H127.612ZM115.249 53.0052L117.264 59.0444C117.392 59.4497 117.646 59.8036 117.989 60.0551C118.332 60.3066 118.746 60.4426 119.171 60.4435H123.182C122.045 61.2979 120.739 61.9011 119.352 62.2131C117.964 62.525 116.526 62.5386 115.133 62.2528C113.739 61.9671 112.423 61.3887 111.27 60.5558C110.117 59.7229 109.154 58.6545 108.445 57.4215C108.269 57.116 108.015 56.8622 107.71 56.6854C107.405 56.5087 107.059 56.4151 106.706 56.4142H83.2998C82.9462 56.4143 82.5989 56.5075 82.2928 56.6843C81.9866 56.8611 81.7324 57.1154 81.5556 57.4215C80.8467 58.6545 79.8839 59.7229 78.731 60.5558C77.5782 61.3887 76.2615 61.9671 74.8682 62.2528C73.4749 62.5386 72.0368 62.525 70.6492 62.2131C69.2615 61.9011 67.956 61.2979 66.819 60.4435H70.8296C71.2552 60.4421 71.6695 60.3061 72.013 60.0547C72.3565 59.8034 72.6116 59.4497 72.7416 59.0444L74.7563 53.0052C74.8963 52.5924 74.8963 52.1449 74.7563 51.7321L72.7416 45.6696C72.611 45.2647 72.3557 44.9114 72.0124 44.6602C71.669 44.4089 71.2551 44.2726 70.8296 44.2705H66.819C67.9554 43.4151 69.2607 42.811 70.6483 42.4983C72.0359 42.1856 73.4741 42.1715 74.8676 42.4568C76.261 42.7421 77.5779 43.3204 78.731 44.1532C79.884 44.9861 80.8468 46.0546 81.5556 47.2878C81.7317 47.5946 81.9857 47.8494 82.292 48.0263C82.5984 48.2032 82.946 48.296 83.2998 48.2951H106.706C107.059 48.2951 107.405 48.202 107.711 48.0251C108.016 47.8483 108.27 47.5939 108.445 47.2878C109.154 46.0546 110.117 44.9861 111.27 44.1532C112.423 43.3204 113.74 42.7421 115.133 42.4568C116.527 42.1715 117.965 42.1856 119.353 42.4983C120.74 42.811 122.045 43.4151 123.182 44.2705H119.171C118.746 44.2714 118.332 44.4074 117.989 44.6589C117.646 44.9103 117.392 45.2643 117.264 45.6696L115.249 51.7321C115.103 52.1455 115.103 52.5964 115.249 53.0099V53.0052Z" fill="#43535B"/>
<path d="M69.6637 23.8677C69.1585 24.9139 68.7178 25.9901 68.344 27.0902L60.472 28.214C59.9924 28.2816 59.5535 28.5205 59.2363 28.8865C58.9191 29.2526 58.7452 29.721 58.7465 30.2054V38.2638H62.7711V31.9635L70.1627 30.9049C70.5449 30.8466 70.9023 30.6798 71.1924 30.4243C71.4826 30.1689 71.6933 29.8355 71.7996 29.4639C72.2848 27.7847 72.951 26.1632 73.7862 24.6278C73.9739 24.2938 74.0622 23.9131 74.0408 23.5305C74.0193 23.148 73.8889 22.7796 73.665 22.4686L69.1741 16.4994L75.2366 10.4369L81.1965 14.9185C81.5061 15.1509 81.876 15.2894 82.2622 15.3175C82.6483 15.3456 83.0343 15.2622 83.3744 15.077C84.9101 14.2425 86.5315 13.5764 88.2104 13.0904C88.5823 12.9816 88.915 12.7681 89.1688 12.4753C89.4227 12.1826 89.587 11.823 89.6421 11.4395L90.6914 4.04324H99.3141L100.368 11.4348C100.423 11.8184 100.587 12.178 100.841 12.4707C101.095 12.7634 101.428 12.9769 101.8 13.0857C103.479 13.5717 105.1 14.2378 106.636 15.0724C106.974 15.2583 107.36 15.3427 107.745 15.3154C108.13 15.2881 108.5 15.1503 108.809 14.9185L114.774 10.4509L120.836 16.5134L116.35 22.4686C116.119 22.7792 115.982 23.1492 115.955 23.5351C115.928 23.921 116.011 24.3066 116.196 24.6465C117.03 26.1759 117.696 27.7911 118.183 29.4639C118.292 29.8355 118.506 30.1679 118.798 30.4216C119.091 30.6754 119.45 30.8399 119.833 30.8955L127.225 31.9495V38.2545H131.254V30.2147C131.254 29.7297 131.079 29.2611 130.761 28.8946C130.443 28.5281 130.004 28.2882 129.524 28.2187L121.657 27.0995C121.281 25.9965 120.839 24.9173 120.332 23.8677L125.099 17.5254C125.39 17.1381 125.531 16.6587 125.497 16.1754C125.463 15.6921 125.255 15.2375 124.912 14.8952L116.364 6.347C116.021 6.00587 115.566 5.79939 115.083 5.76515C114.601 5.73092 114.122 5.8712 113.734 6.16046L107.382 10.9219C106.335 10.4159 105.259 9.97364 104.159 9.59744L103.045 1.73015C102.975 1.25053 102.734 0.812094 102.368 0.49458C102.002 0.177067 101.534 0.00156753 101.049 0H88.9565C88.4721 0.000753286 88.0041 0.176076 87.6383 0.493838C87.2726 0.811601 87.0337 1.25052 86.9652 1.73015L85.8413 9.59744C84.7412 9.97282 83.665 10.4151 82.6189 10.9219L76.2672 6.14647C75.8792 5.85721 75.4002 5.71693 74.9175 5.75116C74.4347 5.7854 73.9803 5.99188 73.637 6.33301L65.0889 14.8952C64.7456 15.2382 64.5378 15.6937 64.5035 16.1777C64.4692 16.6618 64.6109 17.142 64.9023 17.53L69.6637 23.8677Z" fill="#43535B"/>
<path d="M92.9858 8.05859H97.015V12.0878H92.9858V8.05859Z" fill="#43535B"/>
<path d="M73.637 17.7447L76.4864 14.8953L79.3358 17.7447L76.4864 20.6034L73.637 17.7447Z" fill="#43535B"/>
<path d="M110.67 17.7447L113.514 14.8953L116.364 17.7447L113.514 20.6034L110.67 17.7447Z" fill="#43535B"/>
<path d="M78.8881 36.2586H82.9173C82.8858 34.6515 83.175 33.0543 83.7682 31.5604C84.3614 30.0665 85.2465 28.7059 86.3719 27.5582C87.4973 26.4105 88.8402 25.4988 90.3222 24.8764C91.8042 24.254 93.3954 23.9334 95.0028 23.9334C96.6101 23.9334 98.2013 24.254 99.6833 24.8764C101.165 25.4988 102.508 26.4105 103.634 27.5582C104.759 28.7059 105.644 30.0665 106.237 31.5604C106.83 33.0543 107.12 34.6515 107.088 36.2586H111.113C111.113 31.9853 109.415 27.8871 106.394 24.8654C103.372 21.8438 99.2737 20.1462 95.0004 20.1462C90.7272 20.1462 86.6289 21.8438 83.6073 24.8654C80.5856 27.8871 78.8881 31.9853 78.8881 36.2586Z" fill="#43535B"/>
<defs>
<filter id="filter0_d" x="0" y="18.6738" width="198" height="136.307" filterUnits="userSpaceOnUse" color-interpolation-filters="sRGB">
<feFlood flood-opacity="0" result="BackgroundImageFix"/>
<feColorMatrix in="SourceAlpha" type="matrix" values="0 0 0 0 0 0 0 0 0 0 0 0 0 0 0 0 0 0 127 0"/>
<feOffset dx="4" dy="4"/>
<feGaussianBlur stdDeviation="10"/>
<feColorMatrix type="matrix" values="0 0 0 0 0.584314 0 0 0 0 0.72549 0 0 0 0 0.176471 0 0 0 0.5 0"/>
<feBlend mode="normal" in2="BackgroundImageFix" result="effect1_dropShadow"/>
<feBlend mode="normal" in="SourceGraphic" in2="effect1_dropShadow" result="shape"/>
</filter>
<linearGradient id="paint0_linear" x1="162.266" y1="124.316" x2="43.9331" y2="42.7798" gradientUnits="userSpaceOnUse">
<stop stop-color="#629A4B"/>
<stop offset="1" stop-color="#C4CE15" stop-opacity="0.8"/>
</linearGradient>
</defs>
</svg>
