<svg width="159" height="147" viewBox="0 0 159 147" fill="none" xmlns="http://www.w3.org/2000/svg">
<g filter="url(#filter0_d)">
<path d="M19.0567 37.8678C20.1162 35.3226 24.415 25.0079 35.0789 19.8119C43.8105 15.5577 54.2633 15.9799 62.11 20.5223C69.9567 25.0647 68.7105 29.9603 76.4638 37.1656C87.6919 47.5981 94.7836 41.4725 110.156 50.6182C113.672 52.7088 131.439 63.2671 134.188 82.1268C134.419 83.7221 135.925 94.9908 130.534 104.076C117.248 126.361 65.3128 130.482 37.0801 102.651C20.9199 86.7179 10.524 58.3431 19.0567 37.8678Z" fill="url(#paint0_linear)"/>
</g>
<path d="M64.4401 70.8905C64.3346 76.3746 60.9856 81.3879 55.7531 83.2471C53.128 84.1907 50.2706 84.2737 47.5952 83.4838C44.9197 82.694 42.5655 81.0724 40.8738 78.8543C39.1821 76.6362 38.2409 73.937 38.1868 71.1479C38.1327 68.3589 38.9684 65.6251 40.5727 63.343C42.1771 61.061 44.4666 59.3493 47.1094 58.4562C49.7521 57.5631 52.6106 57.5351 55.2704 58.3762C57.9301 59.2173 60.2528 60.8837 61.9016 63.1339C63.5504 65.384 64.4395 68.1009 64.4401 70.8905C64.4767 72.977 67.7241 72.9851 67.6876 70.8905C67.6878 67.5161 66.645 64.2241 64.702 61.4652C62.7591 58.7063 60.0108 56.6154 56.8337 55.4788C53.6565 54.3421 50.2056 54.2152 46.9535 55.1155C43.7014 56.0158 40.8071 57.8993 38.6668 60.508C36.5265 63.1168 35.2448 66.3233 34.9972 69.6886C34.7496 73.0539 35.5483 76.4135 37.2838 79.3074C39.0193 82.2013 41.6068 84.488 44.6922 85.8545C47.7775 87.2211 51.2098 87.6006 54.5191 86.9411C62.1872 85.4838 67.5415 78.5545 67.6876 70.8905C67.7241 68.808 64.4767 68.808 64.4401 70.8905Z" fill="#43535B"/>
<path d="M95.7862 70.8906C95.6523 76.7969 90.9637 81.7209 84.9559 81.7209C82.0835 81.7209 79.3288 80.5798 77.2977 78.5488C75.2667 76.5177 74.1256 73.763 74.1256 70.8906C74.1256 68.0182 75.2667 65.2635 77.2977 63.2324C79.3288 61.2013 82.0835 60.0603 84.9559 60.0603C90.9678 60.0603 95.6523 64.9842 95.7862 70.8906C95.8349 72.9771 99.0824 72.9852 99.0337 70.8906C99.0379 67.9909 98.1465 65.1606 96.4814 62.7866C94.8164 60.4125 92.4588 58.6106 89.731 57.6271C87.0032 56.6435 84.0382 56.5263 81.2412 57.2914C78.4443 58.0566 75.9518 59.6668 74.1045 61.9019C72.2573 64.1371 71.1452 66.8881 70.9205 69.7791C70.6958 72.6701 71.3692 75.56 72.8489 78.0538C74.3286 80.5476 76.5422 82.5236 79.1873 83.7119C81.8324 84.9001 84.7799 85.2425 87.627 84.6923C94.2721 83.4745 98.8835 77.5073 99.0337 70.8906C99.0824 68.8081 95.8349 68.8081 95.7862 70.8906Z" fill="#43535B"/>
<path d="M25.5557 119.895H75.7981C76.2267 119.888 76.6361 119.715 76.9393 119.412C77.2424 119.109 77.4155 118.7 77.4218 118.271C77.4218 114.78 77.5639 111.256 77.4218 107.77C77.3325 105.642 74.9415 103.398 73.4883 101.993C69.9064 98.5265 65.2772 96.3439 60.3239 95.7863C54.7301 95.08 48.8156 95.2424 43.1975 95.5753C38.1599 95.8716 33.4226 97.0894 29.3227 100.138C27.5813 101.433 24.488 103.661 23.9603 105.886C23.5544 107.656 23.9319 109.97 23.9319 111.78V118.275C23.9319 120.362 27.1794 120.366 27.1794 118.275V106.097L26.7004 107.246C29.7489 103.341 33.8042 100.43 38.6876 99.3789C43.9647 98.2422 49.7777 98.567 55.1563 98.6888C60.0641 98.7943 64.7648 99.4397 68.8647 102.342C70.6549 103.609 73.606 105.955 74.1743 108.163C74.5275 109.535 74.1743 111.411 74.1743 112.832V118.275L75.7981 116.651H25.5557C23.4773 116.647 23.4773 119.895 25.5557 119.895Z" fill="#43535B"/>
<path d="M86.8516 112.19H104.664C105.093 112.184 105.502 112.011 105.805 111.708C106.108 111.404 106.281 110.995 106.288 110.566V105.245C106.288 104.047 106.572 102.5 106.064 101.384C105.2 99.4925 103.203 97.7023 101.599 96.4601C97.8119 93.5171 93.3872 92.7499 88.7027 92.6566C80.7708 92.5023 72.2665 92.4576 66.3398 98.433C64.8663 99.9187 67.1517 102.216 68.6374 100.731C73.5492 95.7741 80.4988 95.8594 87.0911 95.8918C91.0368 95.8918 95.0028 96.038 98.4573 98.1894C99.8821 99.0825 102.452 100.946 103.04 102.655C103.341 103.54 103.04 105.058 103.04 105.991V110.554L104.664 108.93H86.8516C84.7651 108.93 84.7611 112.178 86.8516 112.178V112.19Z" fill="#43535B"/>
<path d="M103.763 28.0442C103.637 36.4754 97.7064 43.6483 89.7136 46.0595C85.6634 47.3092 81.2913 46.9889 77.4666 45.1624C76.1919 44.5576 74.6534 43.0353 73.1961 43.2383C71.7388 43.4413 70.1273 44.3871 68.7715 44.8945L64.3508 46.5507L66.1857 48.9376L68.264 44.1435C68.7958 42.9257 69.969 41.2533 69.969 39.8975C69.969 39.0288 69.1084 38.1438 68.6943 37.4294C68.0593 36.3469 67.5317 35.2049 67.1193 34.0195C65.3738 28.8967 66.2344 23.4653 68.9379 18.8579C74.4951 9.35502 86.8517 6.24151 95.9609 12.7689C98.368 14.5252 100.329 16.8218 101.687 19.4742C103.045 22.1265 103.762 25.0605 103.779 28.0401C103.808 30.1266 107.055 30.1307 107.027 28.0401C106.856 16.8486 98.429 7.30912 87.209 6.11567C76.1757 4.94253 66.2384 12.8339 63.5593 23.376C62.0411 29.4325 63.4294 35.6189 66.9123 40.7175V39.0937C65.727 41.8297 64.5403 44.5684 63.3522 47.3098C62.8611 48.4505 63.7054 50.2528 65.1871 49.6967L74.0283 46.3843L72.778 46.2178C75.9863 48.4537 79.7539 49.752 83.6586 49.9671C87.5632 50.1821 91.4507 49.3056 94.8852 47.4357C102.127 43.6036 106.876 36.305 106.998 28.0726C107.039 25.9536 103.791 25.9496 103.763 28.0442Z" fill="#43535B"/>
<path d="M75.9564 22.8157L72.0757 26.7533C71.7776 27.0614 71.6109 27.4733 71.6109 27.9021C71.6109 28.3308 71.7776 28.7427 72.0757 29.0508L76.2487 33.4918C77.6816 35.0221 79.9711 32.7205 78.5463 31.1982L74.3692 26.7533V29.0508L78.2499 25.1133C79.7194 23.6235 77.4381 21.3259 75.9564 22.8157Z" fill="#43535B"/>
<path d="M91.5605 25.4624L95.4412 29.4V27.1024L91.2682 31.5433C89.8393 33.0696 92.1328 35.3712 93.5658 33.8409L97.7266 29.4C98.0247 29.0918 98.1914 28.6799 98.1914 28.2512C98.1914 27.8224 98.0247 27.4105 97.7266 27.1024L93.8459 23.1648C92.3764 21.6751 90.0829 23.9767 91.5483 25.4624H91.5605Z" fill="#43535B"/>
<path d="M84.6109 34.1251C86.0398 30.4149 87.466 26.7033 88.8894 22.9904C89.6404 21.0378 86.5025 20.1935 85.7597 22.1257C84.3335 25.8414 82.9073 29.5543 81.4811 33.2645C80.7302 35.2171 83.868 36.0614 84.6109 34.1251Z" fill="#43535B"/>
<defs>
<filter id="filter0_d" x="0" y="0.854736" width="158.555" height="145.316" filterUnits="userSpaceOnUse" color-interpolation-filters="sRGB">
<feFlood flood-opacity="0" result="BackgroundImageFix"/>
<feColorMatrix in="SourceAlpha" type="matrix" values="0 0 0 0 0 0 0 0 0 0 0 0 0 0 0 0 0 0 127 0"/>
<feOffset dx="4" dy="4"/>
<feGaussianBlur stdDeviation="10"/>
<feColorMatrix type="matrix" values="0 0 0 0 0.364706 0 0 0 0 0.552941 0 0 0 0 0.701961 0 0 0 0.5 0"/>
<feBlend mode="normal" in2="BackgroundImageFix" result="effect1_dropShadow"/>
<feBlend mode="normal" in="SourceGraphic" in2="effect1_dropShadow" result="shape"/>
</filter>
<linearGradient id="paint0_linear" x1="102.557" y1="114.212" x2="34.5755" y2="17.0719" gradientUnits="userSpaceOnUse">
<stop stop-color="#436B9F"/>
<stop offset="0.734375" stop-color="#70C0C5"/>
</linearGradient>
</defs>
</svg>
