<svg width="178" height="149" viewBox="0 0 178 149" fill="none" xmlns="http://www.w3.org/2000/svg">
<g filter="url(#filter0_d)">
<path d="M20.0315 91.0618C13.9609 76.1156 16.0912 62.63 17.8131 51.7269C19.7672 39.3543 22.9868 35.4634 24.8368 33.6636C30.6272 28.012 38.2796 28.012 40.3658 28.0424C59.2546 28.2989 63.7275 50.2357 79.9293 49.7184C90.9934 49.3662 101.089 38.7413 102.482 37.2762C107.532 31.9638 108.829 27.6859 115.793 22.4256C119.873 19.3434 124.25 16.035 129.84 16.0002C141.193 15.935 148.857 29.3988 149.438 30.4509C158.88 47.5577 149.354 69.9553 147.568 74.1549C130.749 113.716 74.2631 137.287 41.8515 117.155C35.6807 113.325 25.6897 104.999 20.0315 91.0618Z" fill="url(#paint0_linear)"/>
</g>
<g clip-path="url(#clip0)">
<path d="M139.349 40.4606C139.348 40.4606 139.348 40.4606 139.348 40.4606L139.344 40.4567L131.857 39.3885C130.804 39.2386 130.073 38.2639 130.223 37.2115C130.295 36.7058 130.565 36.2496 130.973 35.9431L137.025 31.4044C137.875 30.7666 138.048 29.5602 137.41 28.7097L130.481 19.4707C129.843 18.6202 128.636 18.4479 127.786 19.0858L121.736 23.6244C120.889 24.2671 119.682 24.1015 119.039 23.2546C118.727 22.8434 118.593 22.324 118.668 21.8132L119.738 14.3258C119.889 13.2734 119.158 12.2982 118.106 12.1471C118.106 12.1471 118.105 12.1469 118.104 12.1469L106.679 10.5147C105.626 10.3636 104.651 11.094 104.5 12.1464C104.5 12.1466 104.5 12.1466 104.5 12.1469L103.43 19.6343C103.28 20.6867 102.305 21.4184 101.253 21.2685C100.747 21.1965 100.291 20.9263 99.9841 20.5178L95.4474 14.4663C94.8096 13.6157 93.6032 13.4435 92.7527 14.0813L86.9687 18.4217C84.3519 18.1436 81.713 18.1436 79.0963 18.4217C61.9594 20.3804 48.5207 34.0469 46.8502 51.2144C46.7983 51.7591 46.779 52.3 46.7521 52.8408H46.1746C45.2613 52.8425 44.4748 53.4859 44.2922 54.3807L42.9622 60.7055L37.6343 57.0311C36.8697 56.5035 35.8371 56.5975 35.1802 57.2544L29.4059 63.0288C28.75 63.6854 28.6561 64.7166 29.1826 65.4809L32.8397 70.7991L26.5129 72.1292C25.628 72.3231 24.9981 73.1077 25 74.0135V81.7127C24.9995 82.6231 25.6374 83.4094 26.5283 83.5971L32.8551 84.9271L29.198 90.2453C28.6715 91.0097 28.7654 92.0409 29.4213 92.6975L35.1956 98.4719C35.8525 99.1287 36.8851 99.2228 37.6497 98.6952L42.9679 95.0284L44.298 101.355C44.4806 102.25 45.2671 102.893 46.1804 102.895H53.8796C54.79 102.896 55.5763 102.258 55.764 101.367L57.094 95.04L62.4122 98.6971C63.1766 99.2235 64.2078 99.1297 64.8644 98.4738L67.8536 95.475V100.961C67.8622 103.699 69.3292 106.225 71.7032 107.59V118.284C71.7032 122.536 75.1502 125.983 79.4023 125.983H87.1015C91.3536 125.983 94.8007 122.536 94.8007 118.284V107.59C97.1747 106.225 98.6416 103.699 98.6502 100.961V93.3423C98.7025 90.1368 100.379 87.1775 103.102 85.4853C104.7 84.4491 106.214 83.2906 107.633 82.0207L105.066 79.1527C103.796 80.2903 102.44 81.327 101.01 82.2536C97.1881 84.6524 94.8485 88.8301 94.8007 93.3423V100.961C94.8007 103.087 93.0772 104.81 90.9511 104.81H75.5527C73.4266 104.81 71.7032 103.087 71.7032 100.961V93.1825C71.6586 88.7558 69.3559 84.6586 65.5977 82.319C50.3421 72.7331 45.7457 52.5952 55.3316 37.3395C61.2792 27.8741 71.6591 22.113 82.8381 22.073C82.8094 22.1416 82.7842 22.2116 82.763 22.2828C82.6916 22.7881 82.8239 23.3013 83.1306 23.7091L87.6674 29.7587C88.1457 30.3778 88.1916 31.2281 87.7829 31.8953C87.3893 32.5665 86.6282 32.9327 85.8581 32.8211L78.3706 31.7509C77.3183 31.6 76.3431 32.3307 76.192 33.3829C76.192 33.3836 76.1918 33.3843 76.1918 33.385L74.5576 44.8164C74.4068 45.8685 75.1375 46.8439 76.1896 46.995C76.1903 46.995 76.191 46.9952 76.1918 46.9952L83.6792 48.0654C84.7316 48.2153 85.4632 49.19 85.3134 50.2424C85.2414 50.7481 84.9712 51.2043 84.5627 51.5108L78.5131 56.0475C77.6626 56.6854 77.4903 57.8917 78.1281 58.7423L85.0574 67.9813C85.6952 68.8318 86.9016 69.004 87.7521 68.3662L93.8036 63.8295C94.6549 63.1929 95.8612 63.3668 96.4978 64.2183C96.8024 64.6256 96.9336 65.1371 96.8621 65.6407L95.7939 73.1281C95.6428 74.1803 96.3732 75.1559 97.4256 75.307C97.4258 75.307 97.4258 75.307 97.4261 75.307L108.859 76.9412C108.949 76.9527 109.04 76.9585 109.131 76.9585C110.089 76.9597 110.902 76.2557 111.038 75.307L112.106 67.8196C112.256 66.7672 113.231 66.0355 114.283 66.1854C114.789 66.2574 115.245 66.5276 115.552 66.9361L120.09 72.9857C120.728 73.8362 121.935 74.0085 122.785 73.3707L132.024 66.4414C132.875 65.8036 133.047 64.5972 132.409 63.7467L127.872 57.6971C127.396 57.0771 127.35 56.2282 127.757 55.5606C128.142 54.8804 128.91 54.5118 129.682 54.6367L137.169 55.7049C138.221 55.856 139.197 55.1253 139.348 54.0732C139.348 54.0729 139.348 54.0729 139.348 54.0727L140.98 42.6394C141.131 41.5871 140.401 40.6117 139.349 40.4606ZM75.5527 108.66H90.9511V112.509H75.5527V108.66ZM75.5527 116.359H90.9511V118.284C90.9511 120.41 89.2277 122.133 87.1015 122.133H79.4023C77.2761 122.133 75.5527 120.41 75.5527 118.284V116.359ZM60.2295 83.1659C61.2804 84.0254 62.3785 84.8256 63.5189 85.5623C65.3376 86.7116 66.7066 88.4505 67.3974 90.4878L63.2687 94.6088L59.2709 91.8525C57.5203 90.6462 55.1232 91.0874 53.9166 92.838C53.6274 93.2579 53.4244 93.7309 53.3195 94.2296L52.3109 99.0358H47.7356L46.7271 94.2373C46.2892 92.1569 44.2477 90.8252 42.1672 91.2631C41.6685 91.368 41.1954 91.571 40.7756 91.8602L36.7759 94.6088L33.2689 91.1096L36.0233 87.1137C37.2309 85.3638 36.791 82.9665 35.0412 81.7589C34.6211 81.469 34.1476 81.2654 33.6481 81.1603L28.8496 80.1498V75.5765L33.6481 74.566C35.7278 74.125 37.0564 72.0815 36.6154 70.0016C36.5107 69.5081 36.3103 69.0401 36.0252 68.6241L33.2689 64.6167L36.7759 61.1174L40.7775 63.8737C42.5288 65.0789 44.9259 64.6362 46.1311 62.8849C46.4198 62.4655 46.6224 61.993 46.7271 61.4947L47.0639 59.8933C47.3723 62.1111 47.8831 64.2958 48.5903 66.4202C42.257 67.1752 37.7349 72.9217 38.4899 79.255C39.2449 85.5883 44.9914 90.1104 51.3247 89.3553C55.1372 88.9006 58.4745 86.581 60.2295 83.1659ZM57.2403 80.4539C55.8029 84.4491 51.3992 86.5225 47.4041 85.0854C43.409 83.6481 41.3355 79.2444 42.7726 75.2493C43.8721 72.1929 46.774 70.1572 50.0221 70.164C50.0471 70.164 50.0702 70.164 50.0952 70.164C51.8653 73.9806 54.2826 77.4618 57.2403 80.4539ZM135.799 51.6167L130.217 50.8198C127.06 50.3689 124.135 52.5629 123.684 55.7198C123.468 57.2359 123.862 58.7759 124.781 60.0011L128.163 64.5109L122.004 69.1304L118.62 64.6225C116.707 62.0709 113.087 61.5534 110.536 63.4667C109.311 64.3853 108.501 65.7531 108.284 67.2691L107.504 72.8587L99.884 71.7692L100.681 66.1873C101.133 63.0304 98.9402 60.1048 95.7833 59.6529C94.2663 59.4357 92.7255 59.8302 91.4996 60.7498L86.9899 64.1317L82.3703 57.9723L86.8782 54.5885C89.4298 52.6753 89.9473 49.056 88.0341 46.5047C87.1155 45.2795 85.7476 44.4694 84.2316 44.2524L78.6497 43.4556L79.7392 35.8353L85.3211 36.6322C88.478 37.0843 91.4036 34.8914 91.8555 31.7345C92.0728 30.2176 91.6782 28.6768 90.7586 27.4509L87.3652 22.9373L93.5245 18.3178L96.9083 22.8276C98.8216 25.3791 102.441 25.8966 104.992 23.9834C106.217 23.0648 107.027 21.697 107.244 20.181L108.041 14.5991L115.662 15.6866L114.865 21.2685C114.414 24.4256 116.608 27.3503 119.765 27.8012C121.281 28.0178 122.821 27.6232 124.046 26.7041L128.556 23.3222L133.175 29.4816L128.665 32.8653C126.114 34.7786 125.596 38.3979 127.51 40.9492C128.428 42.1744 129.796 42.9845 131.312 43.2015L136.894 43.9983L135.799 51.6167Z" fill="#43535B"/>
<path d="M107.766 28.3267C99.2619 28.3267 92.3677 35.2208 92.3677 43.725C92.3677 52.2292 99.2619 59.1233 107.766 59.1233C116.27 59.1233 123.164 52.2292 123.164 43.725C123.155 35.2246 116.266 28.336 107.766 28.3267ZM107.766 55.2737C101.388 55.2737 96.2173 50.1033 96.2173 43.725C96.2173 37.3467 101.388 32.1762 107.766 32.1762C114.144 32.1762 119.315 37.3467 119.315 43.725C119.307 50.1001 114.141 55.2663 107.766 55.2737Z" fill="#43535B"/>
<path d="M85.1767 95.1863H81.3271V100.961H85.1767V95.1863Z" fill="#43535B"/>
<path d="M74.8329 76.2829C62.9509 71.6413 57.0815 58.2462 61.7233 46.3642C63.5221 41.7601 66.7502 37.8545 70.9332 35.2213L68.8756 31.9646C56.2836 39.8974 52.5065 56.536 60.4393 69.128C63.5115 74.0047 68.0665 77.7679 73.4355 79.865C78.1878 81.6858 81.3259 86.2476 81.3271 91.3367H85.1767C85.1827 84.6596 81.068 78.6714 74.8329 76.2829Z" fill="#43535B"/>
<path d="M133.296 81.7126H119.823V85.5622H133.296V81.7126Z" fill="#43535B"/>
<path d="M119.131 91.7814L116.666 94.739L128.216 104.361L130.68 101.404L119.131 91.7814Z" fill="#43535B"/>
<path d="M112.124 97.1111H108.274V110.585H112.124V97.1111Z" fill="#43535B"/>
<path d="M42.3627 39.4238L26.9655 43.2727L27.8985 47.0053L43.2958 43.1564L42.3627 39.4238Z" fill="#43535B"/>
<path d="M32.399 20.4802L30.1628 23.6111L43.6353 33.234L45.8715 30.1032L32.399 20.4802Z" fill="#43535B"/>
<path d="M50.3841 10.0159L46.6546 10.9695L50.5913 26.3666L54.3208 25.4131L50.3841 10.0159Z" fill="#43535B"/>
</g>
<defs>
<filter id="filter0_d" x="0" y="0" width="177.55" height="148.493" filterUnits="userSpaceOnUse" color-interpolation-filters="sRGB">
<feFlood flood-opacity="0" result="BackgroundImageFix"/>
<feColorMatrix in="SourceAlpha" type="matrix" values="0 0 0 0 0 0 0 0 0 0 0 0 0 0 0 0 0 0 127 0"/>
<feOffset dx="4" dy="4"/>
<feGaussianBlur stdDeviation="10"/>
<feColorMatrix type="matrix" values="0 0 0 0 0.964706 0 0 0 0 0.576471 0 0 0 0 0.247059 0 0 0 0.5 0"/>
<feBlend mode="normal" in2="BackgroundImageFix" result="effect1_dropShadow"/>
<feBlend mode="normal" in="SourceGraphic" in2="effect1_dropShadow" result="shape"/>
</filter>
<linearGradient id="paint0_linear" x1="83.0968" y1="122.502" x2="86.2066" y2="22.1533" gradientUnits="userSpaceOnUse">
<stop stop-color="#F4822C"/>
<stop offset="0.64" stop-color="#FAB431"/>
<stop offset="1" stop-color="#FDCA33"/>
</linearGradient>
<clipPath id="clip0">
<rect width="116" height="116" fill="white" transform="translate(25 10)"/>
</clipPath>
</defs>
</svg>
