<svg width="173" height="43" viewBox="0 0 173 43" fill="none" xmlns="http://www.w3.org/2000/svg">
<path d="M56.8583 10.045V18.6324H56.9406C57.1176 18.4037 57.3144 18.1911 57.5288 17.9972C57.7903 17.7606 58.0785 17.5553 58.3875 17.3855C59.2049 16.9365 60.1255 16.7094 61.0579 16.7267C61.8623 16.7171 62.6596 16.8777 63.3976 17.1981C64.1355 17.5184 64.7974 17.9911 65.3398 18.5853C65.8585 19.1821 66.2579 19.873 66.5161 20.6204C66.811 21.4307 66.9584 22.2873 66.9514 23.1496C66.9572 24.0146 66.814 24.8741 66.5279 25.6905C66.2727 26.4499 65.8732 27.1529 65.3515 27.7608C64.8267 28.3515 64.1861 28.828 63.4694 29.1607C62.6823 29.515 61.8268 29.6917 60.9637 29.6783C60.1192 29.6822 59.2853 29.4889 58.5287 29.1136C57.7881 28.756 57.1701 28.187 56.7524 27.4785V29.3136H53.7998V10.045H56.8583ZM63.9164 23.1496C63.9169 22.6711 63.8455 22.1952 63.7046 21.7379C63.5662 21.283 63.3471 20.8566 63.0576 20.4792C62.7637 20.1008 62.3903 19.7916 61.9636 19.5735C61.4812 19.336 60.9484 19.219 60.4109 19.2323C59.8873 19.2216 59.3694 19.343 58.9051 19.5852C58.4569 19.8114 58.0573 20.1231 57.7288 20.5028C57.4119 20.8774 57.1685 21.3084 57.0112 21.7732C56.8512 22.2309 56.7678 22.7118 56.7642 23.1966C56.7669 23.6777 56.8504 24.1548 57.0112 24.6082C57.169 25.0728 57.4124 25.5037 57.7288 25.8787C58.0553 26.2574 58.4556 26.5655 58.9051 26.7845C59.3823 27.0139 59.9049 27.133 60.4344 27.133C60.9638 27.133 61.4865 27.0139 61.9636 26.7845C62.3891 26.5595 62.762 26.2468 63.0576 25.8669C63.3145 25.4831 63.5016 25.057 63.6105 24.6082C63.7703 24.138 63.8576 23.6461 63.8693 23.1496H63.9164ZM68.9394 23.1496C68.9257 22.2447 69.1021 21.347 69.457 20.5145C69.7864 19.7519 70.2665 19.0636 70.8686 18.4912C71.4795 17.9181 72.1997 17.4741 72.986 17.1855C74.6652 16.5741 76.5062 16.5741 78.1855 17.1855C78.9717 17.4744 79.6918 17.9184 80.3029 18.4912C80.9047 19.0639 81.3848 19.752 81.7145 20.5145C82.0691 21.3471 82.2454 22.2447 82.2321 23.1496C82.2315 24.0566 82.0433 24.9538 81.6792 25.7846C81.3498 26.5541 80.8698 27.25 80.2676 27.8314C79.6561 28.4124 78.9368 28.868 78.1502 29.1724C76.4771 29.8179 74.6238 29.8179 72.9507 29.1724C72.164 28.8683 71.4446 28.4127 70.8333 27.8314C70.2266 27.2513 69.7426 26.5553 69.4099 25.7846C69.0576 24.9513 68.8814 24.0542 68.8923 23.1496H68.9394ZM72.0449 23.1496C72.0298 23.6419 72.0893 24.1337 72.2214 24.6082C72.3575 25.0677 72.5768 25.4983 72.8684 25.8787C73.1637 26.2588 73.5367 26.5716 73.9624 26.7962C74.4567 27.0315 74.9972 27.1535 75.5446 27.1535C76.092 27.1535 76.6325 27.0315 77.1268 26.7962C77.5523 26.5713 77.9252 26.2585 78.2208 25.8787C78.5246 25.5009 78.7559 25.0702 78.903 24.6082C79.0434 24.1468 79.1147 23.6671 79.1148 23.1848C79.1153 22.7064 79.0439 22.2305 78.903 21.7732C78.7646 21.3183 78.5455 20.8919 78.256 20.5145C77.9621 20.1361 77.5887 19.8269 77.162 19.6087C76.6656 19.3814 76.1259 19.2637 75.5799 19.2637C75.0338 19.2637 74.4941 19.3814 73.9977 19.6087C73.5708 19.8266 73.1973 20.1358 72.9037 20.5145C72.6138 20.8916 72.3946 21.3181 72.2567 21.7732C72.1031 22.2167 72.0159 22.6805 71.9979 23.1496H72.0449ZM84.7142 17.0796H87.6198V19.0441C87.9312 18.3829 88.4198 17.8209 89.0314 17.4207C89.7242 16.9488 90.5459 16.7023 91.3841 16.7149C92.0898 16.6976 92.79 16.8424 93.4309 17.1384C93.974 17.3983 94.4522 17.7761 94.8308 18.2442C95.1994 18.7113 95.4713 19.2472 95.6307 19.8205C95.8021 20.4171 95.8892 21.0348 95.8895 21.6556V29.3136H92.831V22.5379C92.8302 22.1443 92.8026 21.7513 92.7486 21.3615C92.7048 20.9914 92.5931 20.6325 92.4193 20.3028C92.2497 19.9911 92.0076 19.7248 91.7135 19.5264C91.3611 19.3084 90.9511 19.2018 90.5371 19.2206C90.0956 19.2101 89.6586 19.3112 89.2667 19.5146C88.9216 19.6989 88.6206 19.9557 88.3844 20.2675C88.1501 20.5867 87.9748 20.9452 87.8668 21.3262C87.7526 21.708 87.6932 22.1041 87.6904 22.5026V29.3136H84.6319L84.7142 17.0796ZM107.524 20.4675C107.246 20.094 106.878 19.7982 106.453 19.6087C105.999 19.3853 105.5 19.2686 104.994 19.2676C104.48 19.2547 103.97 19.372 103.512 19.6087C103.097 19.8296 102.736 20.1388 102.454 20.5145C102.171 20.893 101.96 21.3194 101.83 21.7732C101.697 22.2319 101.629 22.7072 101.63 23.1848C101.628 23.6634 101.7 24.1394 101.842 24.5965C101.98 25.0516 102.199 25.4781 102.489 25.8552C102.78 26.2315 103.149 26.5404 103.571 26.7609C104.041 26.9977 104.562 27.1149 105.089 27.1021C105.577 27.0983 106.059 27.0025 106.512 26.8198C106.969 26.6585 107.375 26.3783 107.688 26.0081L109.606 27.949C109.061 28.5144 108.393 28.9454 107.653 29.2077C106.832 29.5108 105.963 29.6623 105.089 29.6548C104.215 29.6591 103.347 29.5118 102.524 29.2195C101.737 28.9435 101.016 28.5057 100.408 27.9344C99.8006 27.3631 99.3192 26.6708 98.995 25.9022C98.6356 25.0381 98.4593 24.1088 98.4775 23.1731C98.4617 22.2528 98.638 21.3394 98.995 20.491C99.3222 19.7236 99.8025 19.0312 100.407 18.4559C100.994 17.9078 101.681 17.4767 102.43 17.1855C104.086 16.5362 105.926 16.5362 107.582 17.1855C108.355 17.4779 109.043 17.9592 109.582 18.5853L107.524 20.4675ZM118.111 16.7149C118.82 16.6958 119.525 16.8407 120.169 17.1384C120.712 17.3983 121.191 17.7761 121.569 18.2442C121.938 18.7115 122.209 19.2473 122.369 19.8205C122.54 20.4172 122.627 21.0348 122.628 21.6556V29.3136H119.569V22.5967C119.566 22.2267 119.539 21.8573 119.487 21.4909C119.442 21.1263 119.335 20.7721 119.169 20.444C119.007 20.1308 118.768 19.8638 118.475 19.6676C118.123 19.4495 117.713 19.3429 117.299 19.3617C116.859 19.3515 116.423 19.4484 116.029 19.644C115.678 19.8252 115.373 20.0825 115.135 20.3969C114.893 20.7147 114.709 21.0733 114.593 21.4556C114.478 21.837 114.418 22.2333 114.417 22.632V29.3136H111.358V10.045H114.417V18.7853C114.549 18.5089 114.724 18.2549 114.935 18.0324C115.173 17.7802 115.441 17.5589 115.734 17.3737C116.06 17.1699 116.413 17.0116 116.781 16.9031C117.201 16.7799 117.638 16.7205 118.075 16.7267L118.111 16.7149ZM125.404 27.5256C125.397 27.2688 125.443 27.0133 125.538 26.7747C125.633 26.5361 125.775 26.3193 125.957 26.1375C126.145 25.9483 126.368 25.7987 126.615 25.6977C126.861 25.5966 127.126 25.5462 127.392 25.5493C127.922 25.5463 128.432 25.7487 128.815 26.1139C129.011 26.2856 129.167 26.4975 129.272 26.735C129.378 26.9726 129.431 27.2303 129.427 27.4903C129.429 27.7524 129.377 28.0122 129.274 28.2532C129.171 28.4941 129.019 28.711 128.827 28.8901C128.64 29.0793 128.416 29.2289 128.169 29.3299C127.923 29.431 127.658 29.4814 127.392 29.4783C127.126 29.4792 126.862 29.4273 126.616 29.3254C126.378 29.2266 126.159 29.0873 125.969 28.9137C125.78 28.7419 125.628 28.5339 125.522 28.302C125.415 28.0614 125.363 27.8003 125.369 27.5373L125.404 27.5256ZM144.414 29.3136H141.508V27.4903C141.091 28.1988 140.473 28.7677 139.732 29.1254C138.975 29.5007 138.141 29.694 137.297 29.69C136.434 29.7035 135.578 29.5267 134.791 29.1724C134.075 28.8398 133.434 28.3633 132.909 27.7726C132.387 27.1646 131.988 26.4616 131.733 25.7022C131.447 24.8859 131.303 24.0263 131.309 23.1613C131.302 22.299 131.45 21.4425 131.745 20.6322C132.002 19.8846 132.402 19.1937 132.921 18.5971C133.463 18.0029 134.125 17.5301 134.863 17.2098C135.601 16.8895 136.398 16.7289 137.203 16.7385C138.135 16.7212 139.056 16.9483 139.873 17.3972C140.182 17.5672 140.47 17.7724 140.732 18.0089C140.946 18.203 141.143 18.4156 141.32 18.6441H141.402V10.045H144.461L144.414 29.3136ZM134.344 23.1378C134.344 23.6201 134.416 24.0998 134.556 24.5612C134.692 25.0207 134.911 25.4513 135.203 25.8316C135.499 26.2115 135.872 26.5242 136.297 26.7492C136.774 26.9786 137.297 27.0977 137.826 27.0977C138.356 27.0977 138.878 26.9786 139.356 26.7492C139.805 26.53 140.205 26.2218 140.532 25.8434C140.844 25.4787 141.087 25.0601 141.249 24.6082C141.41 24.1548 141.494 23.6776 141.496 23.1966C141.493 22.7118 141.409 22.2309 141.249 21.7732C141.092 21.3087 140.848 20.8777 140.532 20.5028C140.203 20.1235 139.803 19.8119 139.356 19.5852C138.891 19.3435 138.373 19.2221 137.85 19.2323C137.312 19.219 136.779 19.336 136.297 19.5735C135.87 19.7913 135.497 20.1005 135.203 20.4792C134.913 20.8563 134.694 21.2828 134.556 21.7379C134.415 22.1952 134.344 22.6711 134.344 23.1496V23.1378ZM159.377 23.3378V23.7495C159.386 23.8866 159.386 24.0241 159.377 24.1612H150.072C150.104 24.5725 150.22 24.9728 150.413 25.3376C150.606 25.7 150.87 26.02 151.19 26.2786C151.518 26.5448 151.887 26.7554 152.284 26.9021C152.689 27.0565 153.12 27.1362 153.554 27.1374C154.226 27.1582 154.893 27.0127 155.495 26.7139C156.02 26.4349 156.469 26.0309 156.801 25.5375L158.836 27.1727C158.231 27.9812 157.435 28.6277 156.52 29.0546C155.604 29.4814 154.598 29.6755 153.589 29.6195C152.695 29.6287 151.807 29.4773 150.966 29.1724C150.195 28.8951 149.488 28.4672 148.884 27.9138C148.286 27.3541 147.817 26.6719 147.508 25.914C147.164 25.0581 146.996 24.1421 147.014 23.2201C147.001 22.2985 147.169 21.3834 147.508 20.5263C147.811 19.7565 148.271 19.058 148.858 18.4749C149.445 17.8918 150.147 17.4367 150.919 17.1384C151.736 16.8196 152.606 16.6599 153.483 16.6679C154.287 16.6614 155.085 16.805 155.836 17.0914C156.554 17.3788 157.198 17.8252 157.718 18.3971C158.249 18.9984 158.65 19.7034 158.895 20.4675C159.221 21.397 159.385 22.3761 159.377 23.3613V23.3378ZM156.318 21.9614C156.326 21.5631 156.27 21.1661 156.154 20.7851C156.048 20.432 155.865 20.1066 155.619 19.8321C155.373 19.5576 155.07 19.3407 154.73 19.197C154.325 19.0268 153.888 18.9426 153.448 18.95C152.588 18.9202 151.749 19.2141 151.095 19.7734C150.784 20.0383 150.53 20.3636 150.348 20.7296C150.166 21.0955 150.06 21.4946 150.037 21.9026L156.318 21.9614ZM159.789 17.0678H163.129L166.341 25.9963L169.576 17.0678H172.811L168 29.3136H164.776L159.789 17.0678Z" fill="#44535B"/>
<path d="M10.5573 21.0792C10.5597 18.2723 11.6768 15.5812 13.6628 13.5976L6.18125 6.09253C3.53059 8.6694 1.63846 11.9247 0.711239 15.5033C-0.727672 20.9142 0.0350854 26.6748 2.83264 31.5248C5.6302 36.3748 10.2348 39.9193 15.6391 41.3829L18.3682 31.2075C16.1399 30.6021 14.1705 29.2848 12.7604 27.4562C11.3502 25.6277 10.5765 23.3882 10.5573 21.0792V21.0792Z" fill="url(#paint0_linear)"/>
<path d="M41.5187 15.5621L31.3198 18.2913C31.7928 20.0819 31.7877 21.9653 31.3052 23.7534C30.8227 25.5414 29.8796 27.1717 28.57 28.4812C27.2604 29.7908 25.6301 30.734 23.8421 31.2165C22.054 31.699 20.1706 31.7041 18.38 31.2311L15.6508 41.4065C19.2243 42.4113 23.0056 42.4113 26.5791 41.4065C31.9777 39.945 36.5789 36.407 39.3779 31.5648C42.177 26.7227 42.9466 20.9697 41.5187 15.5621V15.5621Z" fill="url(#paint1_linear)"/>
<path d="M21.1209 10.4921C23.442 10.496 25.6976 11.2626 27.5404 12.6739C29.3832 14.0853 30.7111 16.0631 31.3198 18.3031L41.5187 15.5739C40.5915 11.9953 38.6994 8.74004 36.0487 6.16317C32.081 2.21586 26.7118 0 21.115 0C15.5182 0 10.149 2.21586 6.18125 6.16317L13.6511 13.633C14.6289 12.6446 15.7919 11.8585 17.0736 11.3196C18.3552 10.7807 19.7305 10.4995 21.1209 10.4921Z" fill="url(#paint2_linear)"/>
<defs>
<linearGradient id="paint0_linear" x1="0.709712" y1="26.4872" x2="21.1138" y2="21.0222" gradientUnits="userSpaceOnUse">
<stop stop-color="#FFCD34"/>
<stop offset="1" stop-color="#EE2924"/>
</linearGradient>
<linearGradient id="paint1_linear" x1="36.053" y1="35.9614" x2="21.1138" y2="21.0223" gradientUnits="userSpaceOnUse">
<stop stop-color="#CCDB2A"/>
<stop offset="1" stop-color="#036667"/>
</linearGradient>
<linearGradient id="paint2_linear" x1="21.1637" y1="20.8393" x2="26.6287" y2="0.435176" gradientUnits="userSpaceOnUse">
<stop stop-color="#21205F"/>
<stop offset="1" stop-color="#69C9CA"/>
</linearGradient>
</defs>
</svg>
