<svg width="312" height="72" viewBox="0 0 312 72" fill="none" xmlns="http://www.w3.org/2000/svg">
<path d="M101.983 11.751V28.6369H102.133C102.453 28.1873 102.81 27.7693 103.198 27.3878C103.672 26.9227 104.193 26.519 104.753 26.185C106.234 25.3022 107.901 24.8556 109.59 24.8896C111.047 24.8708 112.491 25.1866 113.828 25.8165C115.164 26.4464 116.363 27.376 117.345 28.5444C118.285 29.7179 119.008 31.0764 119.476 32.5461C120.01 34.1395 120.277 35.8238 120.264 37.5194C120.275 39.2203 120.015 40.9105 119.497 42.5158C119.035 44.009 118.312 45.3914 117.367 46.5869C116.416 47.7484 115.256 48.6853 113.958 49.3395C112.532 50.0362 110.983 50.3837 109.419 50.3573C107.89 50.3651 106.379 49.9849 105.009 49.247C103.668 48.5437 102.548 47.4249 101.792 46.0317V49.6402H96.4437V11.751H101.983ZM114.767 37.5194C114.768 36.5785 114.639 35.6428 114.384 34.7436C114.133 33.849 113.736 33.0106 113.212 32.2685C112.679 31.5244 112.003 30.9164 111.23 30.4874C110.357 30.0205 109.392 29.7903 108.418 29.8166C107.47 29.7956 106.532 30.0342 105.691 30.5106C104.879 30.9553 104.155 31.5682 103.56 32.3148C102.986 33.0515 102.545 33.899 102.26 34.813C101.971 35.7129 101.819 36.6586 101.813 37.6119C101.818 38.5578 101.969 39.4962 102.26 40.3877C102.546 41.3012 102.987 42.1485 103.56 42.8859C104.151 43.6305 104.876 44.2365 105.691 44.667C106.555 45.1181 107.502 45.3524 108.461 45.3524C109.419 45.3524 110.366 45.1181 111.23 44.667C112.001 44.2246 112.676 43.6096 113.212 42.8627C113.677 42.108 114.016 41.2702 114.213 40.3877C114.503 39.4629 114.661 38.4958 114.682 37.5194H114.767ZM123.865 37.5194C123.84 35.7401 124.16 33.9749 124.802 32.3379C125.399 30.8382 126.269 29.4849 127.359 28.3593C128.466 27.2325 129.77 26.3592 131.194 25.7917C134.236 24.5896 137.57 24.5896 140.612 25.7917C142.036 26.3598 143.34 27.233 144.447 28.3593C145.537 29.4853 146.407 30.8385 147.004 32.3379C147.646 33.9751 147.965 35.7401 147.941 37.5194C147.94 39.303 147.599 41.0671 146.94 42.7008C146.343 44.214 145.474 45.5824 144.383 46.7257C143.276 47.8681 141.973 48.764 140.548 49.3627C137.518 50.6319 134.161 50.6319 131.13 49.3627C129.705 48.7645 128.402 47.8686 127.295 46.7257C126.196 45.5849 125.32 44.2163 124.717 42.7008C124.079 41.0623 123.76 39.2982 123.78 37.5194H123.865ZM129.49 37.5194C129.462 38.4875 129.57 39.4546 129.809 40.3877C130.056 41.2912 130.453 42.138 130.981 42.8859C131.516 43.6333 132.192 44.2484 132.963 44.6901C133.858 45.1527 134.837 45.3927 135.828 45.3927C136.82 45.3927 137.799 45.1527 138.694 44.6901C139.465 44.2478 140.14 43.6328 140.676 42.8859C141.226 42.143 141.645 41.296 141.911 40.3877C142.166 39.4803 142.295 38.5372 142.295 37.5888C142.296 36.6479 142.167 35.7122 141.911 34.813C141.661 33.9183 141.264 33.08 140.74 32.3379C140.207 31.5938 139.531 30.9858 138.758 30.5568C137.859 30.1097 136.881 29.8782 135.892 29.8782C134.903 29.8782 133.926 30.1097 133.027 30.5568C132.254 30.9851 131.577 31.5933 131.045 32.3379C130.52 33.0794 130.123 33.918 129.873 34.813C129.595 35.6851 129.437 36.5971 129.405 37.5194H129.49ZM152.437 25.5836H157.699V29.4465C158.263 28.1463 159.149 27.0413 160.256 26.2544C161.511 25.3264 162.999 24.8417 164.517 24.8665C165.796 24.8323 167.064 25.1172 168.225 25.6992C169.208 26.2102 170.075 26.9531 170.76 27.8736C171.428 28.7921 171.92 29.8458 172.209 30.9732C172.52 32.1464 172.677 33.361 172.678 34.5817V49.6402H167.138V36.3165C167.137 35.5427 167.087 34.7699 166.989 34.0034C166.91 33.2756 166.707 32.5699 166.392 31.9216C166.085 31.3087 165.647 30.7851 165.114 30.3949C164.476 29.9662 163.733 29.7566 162.983 29.7935C162.184 29.7729 161.392 29.9718 160.682 30.3718C160.057 30.734 159.512 31.2391 159.084 31.8522C158.66 32.4798 158.342 33.1849 158.147 33.934C157.94 34.6847 157.832 35.4636 157.827 36.2471V49.6402H152.288L152.437 25.5836ZM193.75 32.2454C193.248 31.511 192.58 30.9294 191.811 30.5568C190.989 30.1174 190.085 29.888 189.169 29.886C188.236 29.8606 187.313 30.0914 186.484 30.5568C185.733 30.991 185.078 31.599 184.567 32.3379C184.056 33.0821 183.673 33.9207 183.438 34.813C183.196 35.7149 183.074 36.6495 183.075 37.5888C183.072 38.5298 183.202 39.4658 183.459 40.3645C183.709 41.2596 184.106 42.0981 184.631 42.8396C185.158 43.5796 185.827 44.1871 186.591 44.6207C187.442 45.0863 188.386 45.3168 189.339 45.2915C190.223 45.284 191.098 45.0957 191.917 44.7364C192.746 44.4193 193.481 43.8684 194.048 43.1403L197.521 46.957C196.535 48.0688 195.324 48.9161 193.984 49.4321C192.498 50.028 190.924 50.3259 189.339 50.3111C187.757 50.3196 186.186 50.03 184.695 49.4552C183.269 48.9125 181.964 48.0517 180.863 46.9282C179.762 45.8048 178.89 44.4435 178.303 42.9321C177.652 41.233 177.332 39.4056 177.365 37.5656C177.337 35.756 177.656 33.9598 178.303 32.2917C178.895 30.7828 179.765 29.421 180.859 28.2899C181.924 27.2122 183.168 26.3643 184.524 25.7917C187.524 24.515 190.857 24.515 193.856 25.7917C195.256 26.3668 196.502 27.3131 197.478 28.5444L193.75 32.2454ZM212.926 24.8665C214.211 24.8288 215.487 25.1137 216.654 25.6992C217.638 26.2102 218.504 26.9531 219.19 27.8736C219.857 28.7924 220.349 29.846 220.638 30.9732C220.949 32.1465 221.106 33.361 221.107 34.5817V49.6402H215.567V36.4322C215.562 35.7046 215.512 34.9782 215.418 34.2578C215.337 33.5408 215.142 32.8444 214.843 32.1991C214.549 31.5834 214.117 31.0583 213.586 30.6725C212.948 30.2438 212.205 30.0342 211.455 30.0711C210.658 30.051 209.869 30.2415 209.154 30.6262C208.52 30.9825 207.966 31.4883 207.535 32.1066C207.097 32.7316 206.765 33.4367 206.555 34.1884C206.345 34.9385 206.238 35.7178 206.235 36.5016V49.6402H200.696V11.751H206.235V28.9376C206.475 28.3941 206.791 27.8946 207.173 27.4572C207.604 26.9613 208.091 26.5261 208.622 26.1618C209.212 25.7612 209.85 25.4499 210.518 25.2366C211.279 24.9943 212.069 24.8774 212.862 24.8896L212.926 24.8665ZM226.135 46.1243C226.123 45.6194 226.206 45.117 226.378 44.6478C226.55 44.1785 226.808 43.7522 227.137 43.3948C227.477 43.0227 227.882 42.7286 228.328 42.5299C228.775 42.3312 229.254 42.232 229.736 42.2382C230.696 42.2322 231.62 42.6302 232.314 43.3485C232.668 43.6859 232.95 44.1026 233.142 44.5698C233.333 45.037 233.429 45.5437 233.422 46.0549C233.426 46.5704 233.332 47.0812 233.145 47.555C232.958 48.0288 232.682 48.4553 232.336 48.8075C231.996 49.1796 231.591 49.4737 231.144 49.6723C230.698 49.871 230.219 49.9702 229.736 49.9641C229.254 49.9659 228.776 49.8637 228.33 49.6634C227.899 49.4692 227.503 49.1953 227.158 48.8538C226.816 48.5161 226.541 48.107 226.348 47.6509C226.155 47.178 226.061 46.6646 226.072 46.1474L226.135 46.1243ZM260.566 49.6402H255.304V46.0549C254.547 47.448 253.428 48.5668 252.087 49.2701C250.716 50.0081 249.206 50.3883 247.676 50.3804C246.113 50.4068 244.564 50.0593 243.138 49.3627C241.84 48.7085 240.679 47.7715 239.729 46.61C238.784 45.4145 238.06 44.0322 237.598 42.5389C237.08 40.9336 236.821 39.2434 236.831 37.5425C236.818 35.847 237.085 34.1626 237.62 32.5693C238.087 31.0993 238.81 29.7407 239.75 28.5675C240.732 27.3991 241.931 26.4695 243.268 25.8396C244.605 25.2098 246.049 24.8939 247.506 24.9128C249.194 24.8787 250.862 25.3253 252.342 26.2081C252.902 26.5423 253.424 26.946 253.898 27.4109C254.286 27.7926 254.642 28.2106 254.963 28.66H255.112V11.751H260.652L260.566 49.6402ZM242.328 37.4962C242.328 38.4447 242.457 39.3879 242.712 40.2951C242.958 41.1987 243.356 42.0454 243.884 42.7933C244.419 43.5403 245.094 44.1552 245.865 44.5976C246.729 45.0487 247.676 45.283 248.635 45.283C249.594 45.283 250.541 45.0487 251.405 44.5976C252.219 44.1666 252.944 43.5606 253.535 42.8165C254.101 42.0993 254.541 41.2762 254.835 40.3877C255.126 39.496 255.277 38.5578 255.283 37.6119C255.276 36.6586 255.124 35.713 254.835 34.813C254.549 33.8995 254.108 33.0521 253.535 32.3148C252.94 31.5691 252.216 30.9563 251.405 30.5106C250.563 30.0351 249.626 29.7965 248.678 29.8166C247.704 29.7903 246.739 30.0205 245.865 30.4874C245.092 30.9157 244.415 31.5239 243.884 32.2685C243.359 33.01 242.962 33.8486 242.712 34.7436C242.456 35.6427 242.327 36.5785 242.328 37.5194V37.4962ZM287.668 37.8895V38.6991C287.684 38.9687 287.684 39.2391 287.668 39.5087H270.815C270.873 40.3174 271.084 41.1046 271.433 41.8218C271.783 42.5346 272.261 43.1638 272.839 43.6723C273.433 44.1957 274.103 44.6098 274.82 44.8983C275.555 45.2019 276.335 45.3587 277.122 45.3609C278.339 45.4019 279.546 45.1159 280.637 44.5282C281.588 43.9796 282.401 43.1851 283.002 42.2151L286.688 45.4303C285.592 47.0202 284.151 48.2914 282.493 49.1308C280.835 49.9702 279.012 50.3518 277.185 50.2416C275.566 50.2598 273.957 49.962 272.434 49.3627C271.038 48.8173 269.756 47.9759 268.663 46.8876C267.581 45.7871 266.73 44.4457 266.17 42.9553C265.548 41.2723 265.244 39.4711 265.275 37.6582C265.252 35.846 265.556 34.0464 266.17 32.3611C266.72 30.8474 267.553 29.4739 268.617 28.3273C269.68 27.1807 270.951 26.2858 272.349 25.6992C273.829 25.0723 275.405 24.7582 276.994 24.774C278.449 24.7612 279.895 25.0436 281.255 25.6067C282.555 26.1719 283.721 27.0497 284.664 28.1743C285.626 29.3567 286.351 30.743 286.795 32.2454C287.386 34.0732 287.682 35.9984 287.668 37.9357V37.8895ZM282.128 35.1831C282.142 34.3998 282.041 33.6192 281.83 32.87C281.639 32.1756 281.308 31.5357 280.862 30.996C280.417 30.4562 279.867 30.0298 279.252 29.7472C278.517 29.4124 277.727 29.247 276.93 29.2615C275.373 29.2029 273.852 29.7807 272.668 30.8807C272.105 31.4016 271.644 32.0412 271.315 32.7608C270.985 33.4804 270.793 34.2651 270.751 35.0674L282.128 35.1831ZM288.414 25.5604H294.465L300.282 43.1172L306.141 25.5604H312L303.286 49.6402H297.448L288.414 25.5604Z" fill="white"/>
<path d="M12.2615 8.68138L24.6053 21.3793C26.4898 19.9248 28.6778 18.8245 31.1313 18.2048C40.0224 15.9536 49.0273 20.8102 52.1891 29.1827L69.3515 24.832C63.7614 7.01193 45.1446 -3.54858 26.7933 1.09299C21.2285 2.50949 16.3213 5.16542 12.2615 8.68138Z" fill="white"/>
<path d="M39.8959 52.8082C37.4423 53.4279 34.9887 53.5038 32.649 53.1244L27.8177 70.1604C33.0663 71.3239 38.6564 71.3239 44.2086 69.9201C62.5472 65.2785 73.9045 47.1296 70.3506 28.7783L53.1882 33.129C54.4024 42.0074 48.7743 50.557 39.8959 52.8082Z" fill="white"/>
<path d="M1.09393 44.2211C4.14194 56.2487 12.9951 65.2663 23.9097 69.0478L28.7283 51.9992C23.682 49.9251 19.6476 45.587 18.2058 39.8831C16.764 34.1918 18.2563 28.4499 21.6964 24.213L9.33999 11.5151C1.54924 20.0394 -1.95407 32.1935 1.09393 44.2211Z" fill="white"/>
</svg>
