<svg width="204" height="204" viewBox="0 0 204 204" fill="none" xmlns="http://www.w3.org/2000/svg">
<circle cx="102" cy="102" r="102" fill="url(#paint0_radial)"/>
<path d="M124.436 76.2215L122.683 66.567C121.968 62.6292 120.206 59.0497 117.588 56.2156L114.589 52.9692V40.298C114.589 39.0288 113.641 38 112.472 38C111.303 38 110.356 39.0288 110.356 40.298V53.9229C110.356 54.5335 110.58 55.119 110.978 55.5501L114.598 59.4697C116.618 61.6565 117.977 64.4179 118.529 67.4559L120.283 77.1103C120.351 77.4872 120.279 77.8694 120.079 78.1863C119.879 78.5031 119.577 78.7146 119.228 78.7812C118.554 78.9117 117.896 78.4455 117.733 77.7223L116.827 73.71C116.507 72.2963 115.31 71.3962 113.978 71.5715C112.647 71.7462 111.681 72.9294 111.681 74.3849V93.0769C111.681 93.8145 111.129 94.4148 110.449 94.4148C109.824 94.4148 109.308 93.9074 109.229 93.2527V83.492C109.229 82.2229 108.281 81.1941 107.112 81.1941C107.11 81.1941 107.108 81.1943 107.106 81.1943C107.104 81.1943 107.102 81.1941 107.1 81.1941C105.931 81.1941 104.983 82.2229 104.983 83.492V93.0769C104.983 93.2021 104.988 93.3262 104.995 93.4494V96.5107C104.995 97.2484 104.442 97.8486 103.763 97.8486C103.083 97.8486 102.531 97.2484 102.531 96.5107V93.448C102.538 93.3251 102.542 93.2017 102.542 93.0769V83.492C102.542 82.2229 101.595 81.1941 100.426 81.1941C100.424 81.1941 100.422 81.1943 100.42 81.1943C100.418 81.1943 100.416 81.1941 100.414 81.1941C99.2448 81.1941 98.2971 82.2229 98.2971 83.492V93.252C98.2178 93.9071 97.7013 94.415 97.0764 94.415C96.397 94.415 95.8441 93.8148 95.8441 93.0771V89.649C95.8511 89.5261 95.856 89.4027 95.856 89.2779V83.492C95.856 82.2229 94.9083 81.1941 93.7393 81.1941C93.7374 81.1941 93.7352 81.1943 93.7333 81.1943C93.7314 81.1943 93.7293 81.1941 93.7274 81.1941C92.5584 81.1941 91.6107 82.2229 91.6107 83.492V89.4527C91.5314 90.1079 91.0149 90.6158 90.39 90.6158C89.7106 90.6158 89.1577 90.0155 89.1577 89.2779V81.2278V75.7741V69.0723C89.1577 64.9189 90.6495 61.0163 93.3587 58.0836L95.6989 55.5503C96.0971 55.1192 96.321 54.5337 96.321 53.9231V48.4928C96.321 47.2236 95.3734 46.1948 94.2043 46.1948C93.0353 46.1948 92.0876 47.2236 92.0876 48.4928V52.9692L90.3695 54.829C86.8581 58.6303 84.9243 63.6886 84.9243 69.072V75.7738V81.2276V89.2776C84.9243 92.5495 87.3763 95.2115 90.39 95.2115C90.9139 95.2115 91.4202 95.1294 91.9003 94.9791C92.6325 97.3205 94.6753 99.0105 97.0762 99.0105C97.6414 99.0105 98.1866 98.917 98.6997 98.7432C99.514 100.912 101.476 102.444 103.762 102.444C106.049 102.444 108.011 100.912 108.826 98.7435C109.339 98.9172 109.884 99.0107 110.449 99.0107C113.463 99.0107 115.915 96.3487 115.915 93.0769V82.3722C117.067 83.2124 118.505 83.5863 119.964 83.3075C121.441 83.0246 122.723 82.1284 123.571 80.7843C124.419 79.4403 124.727 77.82 124.436 76.2215Z" fill="white"/>
<path d="M102.446 122.726C102.187 122.238 101.87 121.801 101.507 121.42C103.008 119.56 103.334 116.796 102.134 114.539C101.852 114.009 101.506 113.544 101.112 113.149C101.555 112.531 101.884 111.817 102.076 111.038C102.454 109.507 102.26 107.908 101.53 106.535C100.387 104.386 98.1839 103.308 96.0476 103.626C95.9273 103.051 95.7271 102.492 95.4475 101.966C94.7177 100.594 93.5389 99.6116 92.1287 99.2014C90.7184 98.791 89.2456 99.0015 87.9811 99.7943L79.4419 105.147C79.5361 103.644 79.1157 102.104 78.1636 100.873C77.1989 99.6245 75.8435 98.868 74.3472 98.7423C72.8518 98.618 71.4046 99.138 70.2745 100.21L63.4499 106.686C60.6662 109.328 58.6918 112.774 57.7399 116.653L56.6498 121.095L50.7838 124.772C49.7714 125.406 49.4245 126.812 50.0091 127.911C50.4011 128.648 51.1125 129.06 51.8441 129.06C52.2031 129.06 52.5671 128.961 52.9005 128.752L59.5274 124.598C60.0145 124.293 60.3697 123.79 60.5145 123.2L61.8308 117.836C62.5651 114.843 64.0885 112.185 66.2361 110.147L73.0607 103.671C73.3272 103.418 73.6676 103.295 74.0211 103.324C74.3739 103.354 74.6933 103.532 74.9209 103.827C75.3618 104.397 75.319 105.247 74.8239 105.762L72.0765 108.62C71.1083 109.627 70.9898 111.203 71.7945 112.367C72.5995 113.532 74.0264 113.849 75.1874 113.121L90.098 103.775C90.3829 103.596 90.715 103.549 91.0331 103.641C91.3511 103.733 91.6169 103.955 91.7816 104.264C91.9461 104.574 91.9899 104.934 91.9048 105.28C91.8303 105.582 91.6605 105.836 91.429 106.015L83.6785 110.873C82.6661 111.508 82.3191 112.913 82.9038 114.012C82.9048 114.014 82.9059 114.016 82.9069 114.018C82.908 114.019 82.9086 114.022 82.9097 114.023C83.4941 115.123 84.7885 115.499 85.8011 114.864L93.4472 110.072C93.5467 110.01 93.6432 109.943 93.7383 109.875L96.1805 108.344C96.7689 107.975 97.5242 108.195 97.8641 108.834C98.2038 109.473 98.0015 110.293 97.413 110.662L94.9698 112.193C94.8684 112.248 94.7674 112.305 94.6679 112.367L87.0218 117.16C86.0094 117.794 85.6624 119.2 86.2471 120.299C86.3265 120.448 86.4234 120.588 86.5309 120.714C86.9369 121.194 87.5046 121.459 88.088 121.459C88.447 121.459 88.811 121.36 89.1444 121.151L96.9298 116.271C97.492 116.018 98.1554 116.25 98.468 116.837C98.8077 117.476 98.6054 118.296 98.0169 118.665L95.2834 120.378C95.1814 120.434 95.08 120.491 94.9803 120.554L90.3649 123.446C89.3525 124.081 89.0056 125.486 89.5902 126.586C89.967 127.291 90.6788 127.746 91.4311 127.746C91.7901 127.746 92.1541 127.647 92.4875 127.438L97.2431 124.457C97.4924 124.345 97.767 124.323 98.0322 124.4C98.3501 124.493 98.6158 124.714 98.7804 125.024C99.1202 125.662 98.9178 126.482 98.3294 126.851L91.5456 131.103L82.2112 136.954C78.8979 139.031 75.0388 139.579 71.3449 138.499L68.154 137.565C67.6107 137.406 67.032 137.488 66.5449 137.794L59.918 141.948C58.9056 142.582 58.5586 143.988 59.1433 145.087C59.5353 145.824 60.2467 146.236 60.9782 146.236C61.3372 146.236 61.7013 146.137 62.0347 145.928L67.9007 142.251L70.2432 142.937C75.0309 144.337 80.0331 143.626 84.3277 140.935L89.6734 137.584C89.6734 137.584 89.6736 137.584 89.6736 137.584L93.6621 135.084L94.0242 134.857L100.446 130.831C103.056 129.196 103.953 125.559 102.446 122.726Z" fill="white"/>
<path d="M157.041 124.795L151.175 121.118L150.551 118.573C149.274 113.371 146.206 109.024 141.912 106.332L132.577 100.481L125.794 96.2289C124.529 95.4363 123.056 95.2258 121.646 95.636C120.236 96.0462 119.057 97.0281 118.327 98.4007C118.066 98.8925 117.878 99.4088 117.758 99.9341C116.944 99.7567 116.098 99.7825 115.272 100.023C113.862 100.433 112.683 101.415 111.954 102.788C111.674 103.313 111.474 103.872 111.354 104.447C109.217 104.129 107.014 105.208 105.871 107.357C104.728 109.506 104.969 112.117 106.291 113.966C105.893 114.367 105.547 114.835 105.267 115.36C103.76 118.194 104.658 121.83 107.268 123.466L115.807 128.819C114.561 129.482 113.543 130.647 113.037 132.157C112.523 133.688 112.597 135.341 113.245 136.811C113.893 138.281 115.032 139.38 116.453 139.906L125.031 143.084C128.53 144.381 132.266 144.514 135.836 143.47L139.925 142.274L145.791 145.951C146.124 146.159 146.488 146.259 146.847 146.259C147.579 146.259 148.29 145.847 148.682 145.109C149.267 144.01 148.92 142.605 147.907 141.97L141.28 137.817C140.793 137.511 140.215 137.429 139.671 137.588L134.734 139.032C131.981 139.838 129.098 139.735 126.398 138.735L117.82 135.556C117.485 135.432 117.216 135.173 117.064 134.826C116.911 134.48 116.893 134.09 117.015 133.729C117.249 133.03 117.949 132.645 118.607 132.853L122.261 134.007C123.548 134.414 124.864 133.737 125.391 132.398C125.917 131.06 125.456 129.56 124.295 128.832L109.384 119.486C108.796 119.117 108.594 118.297 108.933 117.658C109.098 117.349 109.364 117.127 109.682 117.035C109.947 116.958 110.221 116.979 110.471 117.092L118.257 121.972C118.59 122.181 118.954 122.28 119.313 122.28C119.896 122.28 120.463 122.015 120.869 121.536C120.978 121.409 121.075 121.269 121.155 121.12C121.739 120.021 121.392 118.615 120.38 117.981L112.734 113.188C112.634 113.126 112.532 113.068 112.43 113.013L109.989 111.482C109.4 111.114 109.198 110.294 109.538 109.655C109.702 109.345 109.968 109.124 110.286 109.031C110.604 108.939 110.936 108.986 111.221 109.165L113.663 110.696C113.758 110.764 113.855 110.83 113.954 110.893L121.6 115.685C121.934 115.894 122.297 115.994 122.657 115.994C123.239 115.994 123.807 115.728 124.213 115.249C124.321 115.123 124.418 114.982 124.498 114.833C125.082 113.734 124.735 112.329 123.723 111.694L115.972 106.836C115.741 106.656 115.571 106.402 115.497 106.1C115.412 105.755 115.455 105.394 115.62 105.085C115.785 104.775 116.05 104.554 116.368 104.461C116.686 104.369 117.018 104.416 117.303 104.595L120.038 106.309C120.132 106.377 120.229 106.443 120.328 106.506L124.944 109.399C125.277 109.608 125.641 109.707 126 109.707C126.583 109.707 127.15 109.442 127.556 108.962C127.664 108.836 127.761 108.696 127.841 108.547C128.426 107.447 128.079 106.042 127.066 105.407L122.311 102.427C121.829 102.025 121.682 101.285 121.994 100.698C122.159 100.388 122.424 100.167 122.742 100.075C123.06 99.9824 123.392 100.03 123.677 100.208L130.099 104.233L130.461 104.46L134.45 106.96C134.45 106.96 134.45 106.96 134.45 106.961L139.795 110.311C143.109 112.388 145.476 115.742 146.46 119.756L147.311 123.222C147.456 123.812 147.811 124.315 148.298 124.621L154.925 128.774C155.259 128.983 155.623 129.083 155.982 129.083C156.713 129.083 157.425 128.671 157.817 127.933C158.401 126.835 158.054 125.43 157.041 124.795Z" fill="white"/>
<defs>
<radialGradient id="paint0_radial" cx="0" cy="0" r="1" gradientUnits="userSpaceOnUse" gradientTransform="translate(148.613 44.4194) rotate(106.283) scale(166.249)">
<stop stop-color="#B7CB35"/>
<stop offset="1" stop-color="#639B4A"/>
</radialGradient>
</defs>
</svg>
