<svg width="205" height="205" viewBox="0 0 205 205" fill="none" xmlns="http://www.w3.org/2000/svg">
<circle cx="102.5" cy="102.5" r="102.5" fill="url(#paint0_radial)"/>
<g clip-path="url(#clip0)">
<path d="M149.583 61.0667H134.517V64.8334H149.583C152.704 64.8334 155.233 67.3632 155.233 70.4834V117.567H49.7667V70.4834C49.7667 67.3632 52.2965 64.8334 55.4167 64.8334H70.4833V61.0667H55.4167C50.2182 61.0731 46.0064 65.2849 46 70.4834V126.983C46.0064 132.182 50.2182 136.394 55.4167 136.4H87.1832L85.7707 147.7H83.6667C81.5865 147.7 79.9 149.387 79.9 151.467V155.233H76.1333V159H128.867V155.233H125.1V151.467C125.1 149.387 123.413 147.7 121.333 147.7H119.229L117.817 136.4H149.583C154.782 136.394 158.994 132.182 159 126.983V70.4834C158.994 65.2849 154.782 61.0731 149.583 61.0667ZM121.333 155.233H83.6667V151.467H121.333V155.233ZM115.433 147.7H89.5668L90.9793 136.4H114.021L115.433 147.7ZM149.583 132.633H55.4167C52.2965 132.633 49.7667 130.104 49.7667 126.983V121.333H155.233V126.983C155.233 130.104 152.704 132.633 149.583 132.633Z" fill="white"/>
<path d="M145.817 125.1H149.583V128.867H145.817V125.1Z" fill="white"/>
<path d="M132.991 91.1999C133.664 91.1999 134.286 90.8413 134.622 90.2583C134.959 89.6752 134.959 88.958 134.622 88.3749C132.371 84.4694 128.279 81.9865 123.775 81.7961C119.272 81.6049 114.984 83.7319 112.41 87.4333H92.5895C90.0165 83.7319 85.7284 81.6049 81.2251 81.7961C76.721 81.9865 72.6288 84.4694 70.3776 88.3749C70.041 88.958 70.041 89.6752 70.3776 90.2583C70.7142 90.8413 71.3358 91.1999 72.0089 91.1999H78.5418L79.7979 94.9666L78.5418 98.7333H72.0089C71.3358 98.7333 70.7142 99.0919 70.3776 99.6749C70.041 100.258 70.041 100.975 70.3776 101.558C72.6288 105.464 76.721 107.947 81.2251 108.137C85.7284 108.328 90.0165 106.201 92.5895 102.5H112.41C114.984 106.201 119.272 108.328 123.775 108.137C128.279 107.947 132.371 105.464 134.622 101.558C134.959 100.975 134.959 100.258 134.622 99.6749C134.286 99.0919 133.664 98.7333 132.991 98.7333H126.458L125.202 94.9666L126.458 91.1999H132.991ZM121.431 95.5616L123.314 101.212C123.571 101.98 124.29 102.499 125.1 102.5H128.848C126.698 104.117 123.958 104.733 121.323 104.192C118.688 103.652 116.412 102.007 115.071 99.6749C114.735 99.0928 114.115 98.7342 113.442 98.7333H91.5577C90.8855 98.7342 90.2648 99.0928 89.9291 99.6749C88.5884 102.007 86.3123 103.652 83.6768 104.192C81.0421 104.733 78.3017 104.117 76.1517 102.5H79.9C80.7102 102.499 81.4293 101.98 81.6859 101.212L83.5692 95.5616C83.7007 95.1763 83.7007 94.7569 83.5692 94.3716L81.6859 88.7216C81.4293 87.9528 80.7102 87.4342 79.9 87.4333H76.1517C78.3017 85.8166 81.0421 85.2005 83.6768 85.7412C86.3123 86.281 88.5884 87.9262 89.9291 90.2583C90.2648 90.8404 90.8855 91.199 91.5577 91.1999H113.442C114.115 91.199 114.735 90.8404 115.071 90.2583C116.412 87.9262 118.688 86.281 121.323 85.7412C123.958 85.2005 126.698 85.8166 128.848 87.4333H125.1C124.29 87.4342 123.571 87.9528 123.314 88.7216L121.431 94.3716C121.299 94.7569 121.299 95.1763 121.431 95.5616Z" fill="white"/>
<path d="M78.8112 68.3232C78.3376 69.3007 77.9238 70.3077 77.5743 71.3367L70.2157 72.3878C69.2888 72.5202 68.6009 73.3139 68.6 74.25V81.7833H72.3667V75.8832L79.2784 74.8956C80.0094 74.7907 80.6127 74.2684 80.8187 73.5585C81.273 71.9887 81.8955 70.4732 82.6781 69.0386C83.0331 68.3903 82.977 67.594 82.5328 67.0027L78.3523 61.4262L84.0318 55.7459L89.6082 59.9365C90.1995 60.3806 90.9959 60.4367 91.6442 60.0818C93.0797 59.3001 94.5952 58.6776 96.1649 58.2233C96.8739 58.0154 97.3972 57.4122 97.502 56.6802L98.4832 49.7667H106.517L107.502 56.6765C107.607 57.4085 108.13 58.0118 108.84 58.2187C110.409 58.6739 111.924 59.2964 113.36 60.0781C114.006 60.4331 114.801 60.3779 115.392 59.9365L120.968 55.756L126.648 61.4354L122.464 67.0082C122.019 67.5995 121.963 68.3958 122.318 69.0442C123.1 70.4787 123.723 71.9951 124.177 73.5649C124.384 74.2739 124.986 74.7962 125.718 74.902L132.63 75.8887V81.7833H136.396V74.25C136.396 73.3129 135.708 72.5184 134.781 72.3851L127.422 71.3349C127.073 70.3059 126.659 69.2989 126.185 68.3214L130.641 62.3854C131.203 61.6359 131.13 60.5866 130.468 59.9236L122.475 51.9342C121.812 51.273 120.764 51.1985 120.015 51.7594L114.075 56.2112C113.097 55.7367 112.09 55.3238 111.061 54.9743L110.015 47.6176C109.883 46.6897 109.088 46 108.15 46H96.85C95.912 46 95.1175 46.6897 94.9851 47.6176L93.9349 54.9743C92.9059 55.3238 91.8989 55.7367 90.9214 56.2112L84.9854 51.7594C84.2359 51.1985 83.1876 51.273 82.5255 51.9342L74.5323 59.9254C73.8702 60.5885 73.7966 61.6377 74.3594 62.3872L78.8112 68.3232Z" fill="white"/>
<path d="M100.617 53.5334H104.383V57.3H100.617V53.5334Z" fill="white"/>
<path d="M82.5255 62.5878L85.1886 59.9246L87.8518 62.5878L85.1886 65.2518L82.5255 62.5878Z" fill="white"/>
<path d="M117.149 62.5885L119.812 59.9254L122.476 62.5885L119.812 65.2526L117.149 62.5885Z" fill="white"/>
<path d="M87.4333 79.9001H91.2C91.2 73.6597 96.2596 68.6001 102.5 68.6001C108.74 68.6001 113.8 73.6597 113.8 79.9001H117.567C117.567 71.5787 110.821 64.8335 102.5 64.8335C94.1786 64.8335 87.4333 71.5787 87.4333 79.9001Z" fill="white"/>
</g>
<defs>
<radialGradient id="paint0_radial" cx="0" cy="0" r="1" gradientUnits="userSpaceOnUse" gradientTransform="translate(121.788 71.6398) rotate(98.2295) scale(134.748)">
<stop offset="0.244792" stop-color="#71C0C5"/>
<stop offset="1" stop-color="#6D93BA"/>
</radialGradient>
<clipPath id="clip0">
<rect width="113" height="113" fill="white" transform="translate(46 46)"/>
</clipPath>
</defs>
</svg>
