<svg width="205" height="205" viewBox="0 0 205 205" fill="none" xmlns="http://www.w3.org/2000/svg">
<circle cx="102.5" cy="102.5" r="102.5" fill="url(#paint0_radial)"/>
<path d="M152.45 43.3264H89.55C86.485 43.3264 84 46.0243 84 49.3518V70.362C78.3804 68.4438 72.255 69.5451 67.5054 73.3286C62.7557 77.1121 59.95 83.1256 59.95 89.5207V91.5291C59.95 92.553 60.6591 93.413 61.5968 93.5258L61.772 93.5376C58.707 93.5454 56.2283 96.2502 56.2365 99.5776C56.2437 102.906 58.735 105.596 61.8 105.588V109.605C61.8054 114.375 64.8957 118.485 69.2 119.446V123.768C56.6854 124.825 47.0208 136.146 47 149.774V161.825C47 162.934 47.8283 163.833 48.85 163.833H108.05C109.072 163.833 109.9 162.934 109.9 161.825V149.774C109.88 136.146 100.216 124.823 87.7 123.766V119.446C89.9014 118.945 91.858 117.588 93.2021 115.631H152.45C155.515 115.631 158 112.933 158 109.605V49.3518C158 46.0243 155.515 43.3264 152.45 43.3264ZM89.55 47.3433H152.45C153.472 47.3433 154.3 48.2426 154.3 49.3518V55.3771H87.7V49.3518C87.7 48.2426 88.5283 47.3433 89.55 47.3433ZM78.45 73.4531C86.5781 73.4629 93.1813 80.5788 93.25 89.402C88.1878 88.4459 83.4959 85.8971 79.7562 82.0734C79.0335 81.2908 77.8646 81.2908 77.142 82.0734C73.6109 86.2295 68.8233 88.8725 63.65 89.5207C63.659 80.6514 70.2804 73.4629 78.45 73.4531ZM80.3 93.5376H76.6C76.6 92.4284 75.7717 91.5291 74.75 91.5291H70.9813C73.732 90.215 76.2667 88.4233 78.487 86.2246C80.8899 88.4057 83.5736 90.1925 86.4534 91.5291H82.15C81.1283 91.5291 80.3 92.4284 80.3 93.5376ZM65.5 95.546H72.9V99.5629H65.5V95.546ZM84 95.546H91.4V99.5629H84V95.546ZM95.1 97.5545C96.1217 97.5545 96.95 98.4538 96.95 99.5629C96.95 100.672 96.1217 101.571 95.1 101.571V97.5545ZM59.95 99.5629C59.95 98.4538 60.7783 97.5545 61.8 97.5545V101.571C60.7783 101.571 59.95 100.672 59.95 99.5629ZM84 124.968L78.45 132.501L72.9 124.97V119.647H84V124.968ZM106.2 149.774V159.816H98.8V149.774H95.1V159.816H61.8V149.774H58.1V159.816H50.7V149.774C50.7181 137.946 59.3095 128.229 70.1955 127.727L77.0056 136.966C77.3561 137.443 77.8881 137.72 78.45 137.72C79.0119 137.72 79.5439 137.443 79.8944 136.966L86.7045 127.727C97.5905 128.229 106.182 137.946 106.2 149.774ZM91.4 109.605C91.4 112.933 88.915 115.631 85.85 115.631H71.05C67.985 115.631 65.5 112.933 65.5 109.605V103.58H74.75C75.7717 103.58 76.6 102.681 76.6 101.571V97.5545H80.3V101.571C80.3 102.681 81.1283 103.58 82.15 103.58H91.4V109.605ZM152.45 111.614H94.9148C95.0386 110.953 95.1009 110.28 95.1 109.605V105.588C98.165 105.588 100.65 102.89 100.65 99.5629C100.65 96.2355 98.165 93.5376 95.1 93.5376C96.1217 93.5376 96.95 92.6383 96.95 91.5291V89.5207C96.941 82.3548 93.4162 75.7362 87.7 72.1537V59.394H154.3V109.605C154.3 110.714 153.472 111.614 152.45 111.614Z" fill="white"/>
<defs>
<radialGradient id="paint0_radial" cx="0" cy="0" r="1" gradientUnits="userSpaceOnUse" gradientTransform="translate(96.9893 57.8629) rotate(139.764) scale(168.921)">
<stop stop-color="#FCC233"/>
<stop offset="1" stop-color="#F68C2D"/>
</radialGradient>
</defs>
</svg>
