<svg width="204" height="204" viewBox="0 0 204 204" fill="none" xmlns="http://www.w3.org/2000/svg">
<circle cx="102" cy="102" r="102" fill="url(#paint0_radial)"/>
<path d="M146.167 49H57.8333C52.9569 49.006 49.006 52.9569 49 57.8333V146.167C49.006 151.043 52.9569 154.994 57.8333 155H146.167C151.043 154.994 154.994 151.043 155 146.167V57.8333C154.994 52.9569 151.043 49.006 146.167 49ZM57.8333 52.5333H146.167C149.094 52.5333 151.467 54.9064 151.467 57.8333V63.1333H52.5333V57.8333C52.5333 54.9064 54.9064 52.5333 57.8333 52.5333ZM146.167 151.467H57.8333C54.9064 151.467 52.5333 149.094 52.5333 146.167V66.6667H151.467V146.167C151.467 149.094 149.094 151.467 146.167 151.467Z" fill="white"/>
<path d="M59.6 56.0667H63.1334V59.6H59.6V56.0667Z" fill="white"/>
<path d="M66.6667 56.0667H70.2V59.6H66.6667V56.0667Z" fill="white"/>
<path d="M73.7333 56.0667H77.2667V59.6H73.7333V56.0667Z" fill="white"/>
<path d="M87.8666 56.0667H137.333V59.6H87.8666V56.0667Z" fill="white"/>
<path d="M133.8 119.667H138.369L143.151 124.449L145.649 121.951L140.349 116.651C140.018 116.32 139.568 116.133 139.1 116.133H133.8V114.367C133.8 111.63 133.089 108.941 131.737 106.562L138.065 100.233H144.4V96.7H137.333C136.865 96.7 136.416 96.8863 136.084 97.2175L129.631 103.671C129.277 103.279 128.9 102.905 128.5 102.549V98.4666C128.5 95.8347 127.519 93.2969 125.749 91.3491L129.232 87.8666H132.033V84.3333H128.5C128.032 84.3333 127.582 84.5196 127.251 84.8509L122.956 89.1459C119.803 87.4379 116.001 87.4379 112.848 89.1459L108.549 84.8474C108.217 84.517 107.768 84.3324 107.3 84.3333H103.767V87.8666H106.569L110.06 91.3577C108.285 93.3003 107.301 95.8356 107.3 98.4666V102.549C106.904 102.903 106.527 103.277 106.169 103.671L99.7158 97.2175C99.3845 96.8863 98.9351 96.7 98.4667 96.7H91.4V100.233H97.7352L104.063 106.562C102.711 108.941 102 111.63 102 114.367V116.133H96.7C96.2316 116.133 95.7822 116.32 95.4509 116.651L90.1509 121.951L92.6491 124.449L97.4315 119.667H102V124.967C102.003 126.773 102.317 128.566 102.927 130.267H96.7C96.2316 130.267 95.7822 130.453 95.4509 130.784L90.1509 136.084L92.6491 138.582L97.4315 133.8H104.689C107.635 138.215 112.592 140.867 117.9 140.867C123.208 140.867 128.165 138.215 131.111 133.8H138.369L143.151 138.582L145.649 136.084L140.349 130.784C140.018 130.453 139.568 130.267 139.1 130.267H132.873C133.483 128.566 133.797 126.773 133.8 124.967V119.667ZM110.833 98.4666C110.833 94.5641 113.997 91.4 117.9 91.4C121.803 91.4 124.967 94.5641 124.967 98.4666V100.145C120.521 97.9085 115.279 97.9085 110.833 100.145V98.4666ZM105.533 124.967V114.367C105.54 108.225 110.054 103.019 116.133 102.141V137.192C110.054 136.315 105.54 131.109 105.533 124.967ZM119.667 137.192V102.141C125.746 103.019 130.26 108.225 130.267 114.367V124.967C130.26 131.109 125.746 136.315 119.667 137.192Z" fill="white"/>
<path d="M66.1491 79.5509L63.8648 77.2667L66.1491 74.9824L63.6509 72.4842L60.1176 76.0176C59.4283 76.7077 59.4283 77.8256 60.1176 78.5157L63.6509 82.0491L66.1491 79.5509Z" fill="white"/>
<path d="M74.9824 82.0491L78.5158 78.5157C79.205 77.8256 79.205 76.7077 78.5158 76.0176L74.9824 72.4842L72.4843 74.9824L74.7685 77.2667L72.4843 79.5509L74.9824 82.0491Z" fill="white"/>
<path d="M63.1334 86.1H70.2V89.6333H63.1334V86.1Z" fill="white"/>
<path d="M73.7333 86.1H87.8667V89.6333H73.7333V86.1Z" fill="white"/>
<path d="M70.2 93.1667H84.3333V96.7H70.2V93.1667Z" fill="white"/>
<path d="M66.6667 100.233H80.8V103.767H66.6667V100.233Z" fill="white"/>
<path d="M71.9667 107.3H89.6333V110.833H71.9667V107.3Z" fill="white"/>
<path d="M63.1334 114.367H70.2V117.9H63.1334V114.367Z" fill="white"/>
<path d="M73.7333 114.367H87.8667V117.9H73.7333V114.367Z" fill="white"/>
<path d="M63.1334 121.433H70.2V124.967H63.1334V121.433Z" fill="white"/>
<path d="M73.7333 121.433H84.3333V124.967H73.7333V121.433Z" fill="white"/>
<defs>
<radialGradient id="paint0_radial" cx="0" cy="0" r="1" gradientUnits="userSpaceOnUse" gradientTransform="translate(102 102) rotate(90) scale(102)">
<stop stop-color="#F9813A"/>
<stop offset="1" stop-color="#F95C3A"/>
</radialGradient>
</defs>
</svg>
