<svg width="28" height="28" viewBox="0 0 28 28" fill="none" xmlns="http://www.w3.org/2000/svg">
<g clip-path="url(#clip0)">
<path d="M27.8516 20.4396C27.8177 20.3666 27.7861 20.3059 27.7567 20.2574C27.2709 19.3824 26.3425 18.3085 24.9722 17.0353L24.9433 17.0061L24.9288 16.9918L24.9141 16.9772H24.8994C24.2775 16.3843 23.8836 15.9857 23.7187 15.7816C23.4169 15.3928 23.3493 14.9993 23.5142 14.6005C23.6308 14.2993 24.0685 13.663 24.8263 12.691C25.225 12.1758 25.5407 11.7629 25.7738 11.4519C27.4553 9.2164 28.1843 7.7879 27.9607 7.16582L27.8738 7.02045C27.8155 6.93293 27.6648 6.85286 27.4221 6.77985C27.1789 6.70698 26.868 6.69493 26.4888 6.74349L22.2904 6.77249C22.2223 6.74839 22.1252 6.75064 21.9987 6.77985C21.8723 6.80905 21.8091 6.82371 21.8091 6.82371L21.736 6.86022L21.678 6.90408C21.6294 6.93308 21.576 6.98409 21.5176 7.05701C21.4595 7.12967 21.411 7.21494 21.3722 7.31211C20.9151 8.48811 20.3954 9.58149 19.8121 10.5922C19.4525 11.1949 19.1222 11.7172 18.8206 12.1594C18.5194 12.6015 18.2667 12.9272 18.0627 13.136C17.8585 13.345 17.6741 13.5125 17.5086 13.6389C17.3433 13.7655 17.2171 13.8189 17.1298 13.7994C17.0422 13.7798 16.9597 13.7604 16.8817 13.741C16.7457 13.6535 16.6363 13.5345 16.5538 13.3838C16.471 13.2332 16.4153 13.0436 16.3861 12.8152C16.3571 12.5867 16.3399 12.3901 16.335 12.2248C16.3305 12.0597 16.3326 11.8262 16.3424 11.5249C16.3526 11.2235 16.3571 11.0196 16.3571 10.9127C16.3571 10.5433 16.3643 10.1424 16.3788 9.70991C16.3935 9.27742 16.4054 8.93475 16.4153 8.6823C16.4252 8.42959 16.4298 8.16224 16.4298 7.88038C16.4298 7.59852 16.4127 7.37747 16.3788 7.21704C16.3453 7.0568 16.2938 6.90127 16.2261 6.75049C16.1579 6.59986 16.0581 6.48333 15.9272 6.40061C15.796 6.318 15.6329 6.25243 15.4389 6.20372C14.9237 6.08715 14.2677 6.02409 13.4706 6.01428C11.663 5.99488 10.5015 6.1116 9.98636 6.36431C9.78227 6.47108 9.59758 6.61696 9.43244 6.8015C9.25746 7.01539 9.23305 7.13212 9.35938 7.15132C9.9426 7.23869 10.3555 7.44768 10.5985 7.7781L10.6861 7.95319C10.7542 8.07952 10.8222 8.30317 10.8903 8.62383C10.9582 8.9445 11.0021 9.29922 11.0214 9.6878C11.0699 10.3974 11.0699 11.0048 11.0214 11.5101C10.9727 12.0156 10.9268 12.4092 10.8829 12.691C10.839 12.9729 10.7735 13.2013 10.6861 13.3762C10.5985 13.5511 10.5402 13.658 10.511 13.6968C10.4819 13.7357 10.4576 13.7601 10.4383 13.7697C10.3119 13.8181 10.1805 13.8428 10.0446 13.8428C9.90839 13.8428 9.74326 13.7747 9.54892 13.6385C9.35463 13.5024 9.15298 13.3154 8.94399 13.0773C8.73499 12.8391 8.4993 12.5062 8.23679 12.0786C7.97448 11.651 7.70233 11.1457 7.42047 10.5625L7.18727 10.1396C7.04149 9.86759 6.84235 9.47145 6.58964 8.9516C6.33679 8.43153 6.11329 7.92848 5.919 7.44252C5.84134 7.23843 5.72466 7.08305 5.56918 6.97613L5.49621 6.93227C5.4477 6.89346 5.36984 6.85225 5.26301 6.80834C5.15604 6.76448 5.04442 6.73302 4.92769 6.71367L0.933201 6.74267C0.525015 6.74267 0.248057 6.83515 0.102225 7.01984L0.0438619 7.1072C0.0147057 7.15586 0 7.23358 0 7.34055C0 7.44748 0.0291561 7.5787 0.0875195 7.73408C0.670642 9.10458 1.30478 10.4263 1.98992 11.6995C2.67506 12.9726 3.27044 13.9982 3.77569 14.7753C4.28105 15.5529 4.79616 16.2868 5.32102 16.9766C5.84588 17.6667 6.19331 18.109 6.36329 18.3033C6.53348 18.4979 6.66716 18.6434 6.76433 18.7406L7.12885 19.0904C7.3621 19.3237 7.70462 19.6031 8.15657 19.9287C8.60862 20.2544 9.10907 20.575 9.65819 20.8912C10.2074 21.2068 10.8463 21.4643 11.5753 21.6635C12.3042 21.8629 13.0137 21.9429 13.7038 21.9043H15.3803C15.7204 21.875 15.978 21.768 16.1531 21.5835L16.2111 21.5104C16.2501 21.4524 16.2866 21.3623 16.3203 21.241C16.3544 21.1196 16.3713 20.9857 16.3713 20.8402C16.3614 20.4223 16.3932 20.0457 16.4659 19.7105C16.5386 19.3753 16.6214 19.1226 16.714 18.9524C16.8066 18.7824 16.9111 18.6389 17.0273 18.5226C17.1439 18.406 17.2269 18.3354 17.2756 18.3111C17.324 18.2866 17.3627 18.27 17.3918 18.2601C17.6251 18.1823 17.8996 18.2576 18.2157 18.4862C18.5317 18.7146 18.828 18.9966 19.1051 19.3318C19.3821 19.6673 19.715 20.0436 20.1036 20.4615C20.4926 20.8795 20.8326 21.1902 21.1241 21.3946L21.4156 21.5695C21.6102 21.6862 21.8629 21.7932 22.174 21.8903C22.4845 21.9875 22.7565 22.0118 22.9902 21.9632L26.7221 21.905C27.0912 21.905 27.3784 21.8439 27.5822 21.7226C27.7863 21.6011 27.9076 21.4673 27.9467 21.3217C27.9857 21.176 27.9878 21.0106 27.9541 20.8258C27.9195 20.6414 27.8855 20.5125 27.8516 20.4396Z" fill="white"/>
</g>
<defs>
<clipPath id="clip0">
<rect width="28" height="28" fill="white"/>
</clipPath>
</defs>
</svg>
